<?xml version="1.0" encoding="UTF-8"?>
<svg width="769px" height="1074px" viewBox="0 0 769 1074" version="1.1" xmlns="http://www.w3.org/2000/svg" xmlns:xlink="http://www.w3.org/1999/xlink">
    <!-- Generator: Sketch 51.3 (57544) - http://www.bohemiancoding.com/sketch -->
    <title>Group 3</title>
    <desc>Created with Sketch.</desc>
    <defs>
        <circle id="path-1" cx="364.5" cy="364.5" r="364.5"></circle>
    </defs>
    <g id="Page-1" stroke="none" stroke-width="1" fill="none" fill-rule="evenodd">
        <g id="design-team" transform="translate(-393.000000, -191.000000)">
            <g id="Group-3" transform="translate(226.000000, 193.000000)">
                <g id="Group-2" transform="translate(187.000000, 176.000000)">
                    <mask id="mask-2" fill="white">
                        <use xlink:href="#path-1"></use>
                    </mask>
                    <circle stroke="#934567" stroke-width="20" cx="364.5" cy="364.5" r="374.5"></circle>
                    <path d="M1010.82428,448.884438 L1010.82428,449.085761 L1027.5487,449.085761 C1040.14598,449.085761 1050.3581,459.294468 1050.3581,471.893733 C1050.3581,484.490228 1040.14785,494.701704 1027.5487,494.701704 L981.938709,494.701704 C994.532706,494.701704 1004.74216,504.910411 1004.74216,517.509676 C1004.74216,530.10617 994.536513,540.317647 981.938709,540.317647 L633.727965,540.317647 C621.133968,540.317647 610.924517,530.10894 610.924517,517.509676 C610.924517,504.913181 621.130161,494.701704 633.727965,494.701704 L647.418698,494.701704 C634.821415,494.701704 624.6093,484.492997 624.6093,471.893733 C624.6093,459.297238 634.819549,449.085761 647.418698,449.085761 L599.521958,449.085761 C586.924675,449.085761 576.71256,438.877054 576.71256,426.27779 C576.71256,413.681295 586.922809,403.469819 599.521958,403.469819 L662.622586,403.469819 L670.22192,403.469819 C682.821689,403.469819 693.033214,393.258342 693.033214,380.661847 C693.033214,368.062583 682.82025,357.853876 670.22192,357.853876 L660.342502,357.853876 L658.062418,357.853876 C645.465135,357.853876 635.25302,347.645169 635.25302,335.045904 C635.25302,322.44941 645.463269,312.237933 658.062418,312.237933 L620.809398,312.237933 C608.212115,312.237933 598,302.029226 598,289.429962 C598,276.833467 608.210249,266.62199 620.809398,266.62199 L659.775237,266.62199 C647.176727,266.62199 636.963618,256.413283 636.963618,243.814019 C636.963618,231.217524 647.181741,221.006047 659.775237,221.006047 L1059.47764,221.006047 C1072.07615,221.006047 1082.28926,231.214754 1082.28926,243.814019 C1082.28926,256.410513 1072.07114,266.62199 1059.47764,266.62199 L1029.06576,266.62199 C1041.66496,266.62199 1051.87863,276.830697 1051.87863,289.429962 C1051.87863,302.026456 1041.66965,312.237933 1029.06576,312.237933 L1010.82428,312.237933 L1008.93289,312.237933 C996.332855,312.237933 986.115647,322.44941 986.115647,335.045904 C986.115647,347.645169 996.331274,357.853876 1008.93289,357.853876 L1010.82428,357.853876 L1063.28119,357.853876 C1075.87847,357.853876 1086.09059,368.062583 1086.09059,380.661847 C1086.09059,393.258342 1075.88034,403.469819 1063.28119,403.469819 L1010.82428,403.469819 L1010.82428,403.670982 C1009.82876,403.538305 1008.81293,403.469819 1007.78111,403.469819 L950.765404,403.469819 C938.171669,403.469819 927.95532,413.681295 927.95532,426.27779 C927.95532,438.877054 938.167743,449.085761 950.765404,449.085761 L1007.78111,449.085761 C1008.81289,449.085761 1009.82872,449.017219 1010.82428,448.884438 Z" id="Combined-Shape" fill="#F6F9FC" opacity="0.339787138" mask="url(#mask-2)" transform="translate(842.045294, 380.661847) scale(-1, 1) translate(-842.045294, -380.661847) "></path>
                    <path d="M72.0423529,342.831713 L72.0423529,343.058824 L90.9089787,343.058824 C105.119829,343.058824 116.64,354.575149 116.64,368.788235 C116.64,382.998197 105.121934,394.517647 90.9089787,394.517647 L39.456868,394.517647 C53.6640113,394.517647 65.1811765,406.033973 65.1811765,420.247059 C65.1811765,434.457021 53.6683066,445.976471 39.456868,445.976471 L-353.355691,445.976471 C-367.562835,445.976471 -379.08,434.460145 -379.08,420.247059 C-379.08,406.037097 -367.56713,394.517647 -353.355691,394.517647 L-337.911332,394.517647 C-352.122182,394.517647 -363.642353,383.001321 -363.642353,368.788235 C-363.642353,354.578274 -352.124287,343.058824 -337.911332,343.058824 L-391.943096,343.058824 C-406.153947,343.058824 -417.674118,331.542498 -417.674118,317.329412 C-417.674118,303.11945 -406.156052,291.6 -391.943096,291.6 L-320.76,291.6 L-312.187278,291.6 C-297.973623,291.6 -286.454118,280.08055 -286.454118,265.870588 C-286.454118,251.657502 -297.975246,240.141176 -312.187278,240.141176 L-323.332136,240.141176 L-325.904273,240.141176 C-340.115123,240.141176 -351.635294,228.624851 -351.635294,214.411765 C-351.635294,200.201803 -340.117228,188.682353 -325.904273,188.682353 L-367.928979,188.682353 C-382.139829,188.682353 -393.66,177.166027 -393.66,162.952941 C-393.66,148.742979 -382.141934,137.223529 -367.928979,137.223529 L-323.972062,137.223529 C-338.184296,137.223529 -349.705588,125.707204 -349.705588,111.494118 C-349.705588,97.2841559 -338.178641,85.7647059 -323.972062,85.7647059 L126.92765,85.7647059 C141.139884,85.7647059 152.661176,97.2810315 152.661176,111.494118 C152.661176,125.704079 141.134229,137.223529 126.92765,137.223529 L92.6203514,137.223529 C106.833368,137.223529 118.355294,148.739855 118.355294,162.952941 C118.355294,177.162903 106.838656,188.682353 92.6203514,188.682353 L72.0423529,188.682353 L69.893062,188.682353 C55.6947398,188.682353 44.1688235,200.201803 44.1688235,214.411765 C44.1688235,228.624851 55.6859574,240.141176 69.893062,240.141176 L72.0423529,240.141176 L131.218391,240.141176 C145.429241,240.141176 156.949412,251.657502 156.949412,265.870588 C156.949412,280.08055 145.431346,291.6 131.218391,291.6 L72.0423529,291.6 L72.0423529,291.82693 C70.9193147,291.677259 69.7733734,291.6 68.6093807,291.6 L4.2906193,291.6 C-9.91622922,291.6 -21.4411765,303.11945 -21.4411765,317.329412 C-21.4411765,331.542498 -9.92065909,343.058824 4.2906193,343.058824 L68.6093807,343.058824 C69.7733275,343.058824 70.9192726,342.981502 72.0423529,342.831713 Z" id="Combined-Shape" fill="#F6F9FC" opacity="0.339787138" mask="url(#mask-2)"></path>
                    <g id="Group-55" mask="url(#mask-2)">
                        <g transform="translate(30.000000, -165.000000)">
                            <path d="M190.065708,529 L465.065708,529 L635.51835,925.037963 C635.51835,925.037963 555.818099,904.061041 455.765931,926.029858 C355.713764,947.998674 345.827969,896.198461 213.597226,927.366173 C81.3664831,958.533885 35,928.351694 35,928.351694 L190.065708,529 Z" id="Rectangle-9" fill="#EB4B4B"></path>
                            <g id="Group-54" stroke-width="1" fill="none" transform="translate(511.000000, 603.000000)">
                                <path d="M43.1959595,3.19595949 L115.195959,3.19595949 L115.195959,119.198158 C115.195959,139.079195 99.082582,155.195959 79.1959595,155.195959 L79.1959595,155.195959 C59.3137085,155.195959 43.1959595,139.0732 43.1959595,119.198158 L43.1959595,3.19595949 Z" id="Rectangle-3" fill="#FFDCBF" transform="translate(79.195959, 79.195959) rotate(-45.000000) translate(-79.195959, -79.195959) "></path>
                            </g>
                            <g id="Group-53" stroke-width="1" fill="none" transform="translate(0.000000, 603.000000)">
                                <path d="M43.1959595,3.19595949 L115.195959,3.19595949 L115.195959,119.198158 C115.195959,139.079195 99.082582,155.195959 79.1959595,155.195959 L79.1959595,155.195959 C59.3137085,155.195959 43.1959595,139.0732 43.1959595,119.198158 L43.1959595,3.19595949 Z" id="Rectangle-3" fill="#FFDCBF" transform="translate(79.195959, 79.195959) scale(-1, 1) rotate(-45.000000) translate(-79.195959, -79.195959) "></path>
                            </g>
                            <polyline id="Path-37" fill="#78A6E0" points="303.607876 517.114591 195.964489 517.114591 103 602.910976 154.232559 660.865951 196.256123 624.297061 255.151558 813.867686 333.752585 813.867686 412.205028 813.753095 471.100464 624.182471 513.124027 660.75136 564.356586 602.796385 471.392097 517 363.74871 517"></polyline>
                            <g id="Group" stroke-width="1" fill="none" transform="translate(270.000000, 596.453253)">
                                <circle id="Oval-9" stroke="#EB4B4B" stroke-width="6" fill="#FFC636" cx="65" cy="65" r="65"></circle>
                                <text id="G" font-family="WorkSans-Bold, Work Sans" font-size="70" font-weight="bold" fill="#EB4B4B">
                                    <tspan x="40.195" y="89">G</tspan>
                                </text>
                            </g>
                            <rect id="Rectangle-8" fill="#FFC636" x="255" y="811" width="158" height="26"></rect>
                            <path d="M508.350455,630.035622 L581.625477,634.322149 L574.113688,832.198968 C573.278022,854.21223 554.733458,872.057505 532.70503,872.057505 L540.496131,872.057505 C518.462427,872.057505 501.17202,854.211944 501.877058,832.194221 L508.350455,630.035622 Z" id="Rectangle-3" fill="#FFDCBF" transform="translate(541.740859, 751.046564) rotate(-120.000000) translate(-541.740859, -751.046564) "></path>
                            <circle id="Oval-8" fill="#FFDCBF" cx="433.5" cy="815.5" r="42.5"></circle>
                            <path d="M94.3504546,630.035622 L167.625477,634.322149 L160.113688,832.198968 C159.278022,854.21223 140.733458,872.057505 118.70503,872.057505 L126.496131,872.057505 C104.462427,872.057505 87.17202,854.211944 87.8770578,832.194221 L94.3504546,630.035622 Z" id="Rectangle-3" fill="#FFDCBF" transform="translate(127.740859, 751.046564) scale(-1, 1) rotate(-120.000000) translate(-127.740859, -751.046564) "></path>
                            <circle id="Oval-8" fill="#FFDCBF" transform="translate(222.500000, 808.500000) scale(-1, 1) translate(-222.500000, -808.500000) " cx="222.5" cy="808.5" r="42.5"></circle>
                            <path d="M299,434 L369,434 L369,514.008268 C369,533.333668 353.334216,549 334,549 L334,549 C314.670034,549 299,533.325934 299,514.008268 L299,434 Z" id="Rectangle-237" fill="#FACAA3"></path>
                        </g>
                    </g>
                </g>
                <text id="#belikebaheti" font-family="ChalkboardSE-Bold, Chalkboard SE" font-size="70" font-weight="bold" fill="#934567">
                    <tspan x="318.10221" y="1065">#belikebaheti</tspan>
                </text>
                <g id="face-1" transform="translate(392.000000, 0.000000)">
                    <path d="M280.624564,156.071822 C280.624564,156.071822 248.343854,121.930952 211.076734,112.594356 C173.809613,103.25776 150.148299,100.617143 110.669744,112.594356 C71.1911886,124.571569 43.4493721,156.071822 43.4493721,156.071822 C40.8322472,165.8643 31.7847608,305.229841 31.7847608,305.229841 C31.7847608,305.229841 -46.4133118,128.203394 43.4493721,106.057826 C14.2712425,31.2978916 100.975514,-0.0179447595 100.620402,0.816888192 C207.017385,0.816883415 274.786093,100.427543 274.786093,100.427543 C364.648777,127.097771 292.308726,305.229841 292.308726,305.229841 C292.308726,305.229841 292.308726,277.853005 288.448585,237.714817 C284.588443,197.576628 285.848906,180.057288 280.624564,156.071822 Z" id="Path-1735" stroke="#7B3157" stroke-width="5" fill="#934567" transform="translate(160.039931, 153.015248) scale(-1, 1) translate(-160.039931, -153.015248) "></path>
                    <path d="M37.7743375,156.385266 L27.027027,300.736295 L50.8474158,420.955977 C53.4687702,435.546359 133.62219,485.915529 133.62219,485.915529 C147.047207,494.635959 168.880858,494.728901 182.307453,486.012166 C182.307453,486.012166 262.832411,435.869207 265.453765,421.278824 L289.274154,301.059143 L278.526843,156.708113 C278.526843,156.708113 231.922978,101.621622 157.930334,101.621622 C83.9376896,101.621622 37.7743375,156.385266 37.7743375,156.385266 Z" id="Path-1722" fill="#FFDCBF"></path>
                    <rect id="Rectangle-233" fill="#934567" x="48.6486486" y="214.054054" width="81.0810811" height="15.1351351" rx="7.56756757"></rect>
                    <rect id="Rectangle-233" fill="#934567" x="185.945946" y="214.054054" width="81.0810811" height="15.1351351" rx="7.56756757"></rect>
                    <g id="Group-45" transform="translate(19.459459, 224.864865)" stroke="#7B3157" stroke-width="5">
                        <g id="Group-44" transform="translate(0.000000, 32.432432)">
                            <path d="M121.483244,3.27318049 C121.483244,3.27318049 139.066022,-3.07717132 157.037737,3.27318049" id="Path-35"></path>
                            <path d="M255.287216,1.93650687 L276.517927,5.72400157" id="Path-36"></path>
                            <path d="M-3.93285404e-12,2.16216216 L18.8718842,5.19937745" id="Path-36" transform="translate(9.435942, 3.680770) scale(-1, 1) translate(-9.435942, -3.680770) "></path>
                        </g>
                        <path d="M65.819814,112.180169 C96.7975122,112.180169 128.648649,83.2255906 128.648649,52.2478924 C128.648649,21.2701942 96.7975122,0 65.819814,0 C34.8421159,0 9.72972973,25.1123861 9.72972973,56.0900843 C9.72972973,87.0677825 34.8421159,112.180169 65.819814,112.180169 Z" id="Oval-2" fill="#FFFFFF"></path>
                        <path d="M206.360355,112.180169 C237.338053,112.180169 269.189189,83.2255906 269.189189,52.2478924 C269.189189,21.2701942 237.338053,0 206.360355,0 C175.382656,0 150.27027,25.1123861 150.27027,56.0900843 C150.27027,87.0677825 175.382656,112.180169 206.360355,112.180169 Z" id="Oval-2" fill="#FFFFFF" transform="translate(209.729730, 56.090084) scale(-1, 1) translate(-209.729730, -56.090084) "></path>
                    </g>
                    <path d="M206.486486,260.540541 C206.486486,260.540541 225.810811,292.238377 245.135135,260.540541" id="Path-2442" stroke="#7B3157" stroke-width="5"></path>
                    <path d="M71.3513514,260.540541 C71.3513514,260.540541 90.6756762,292.238377 110,260.540541" id="Path-2442" stroke="#7B3157" stroke-width="5"></path>
                    <g id="Group-47" transform="translate(67.027027, 356.756757)" fill="#FFC497">
                        <g id="Group-46">
                            <circle id="Oval-3" cx="6.57894737" cy="6.57894737" r="6.57894737"></circle>
                            <circle id="Oval-3" cx="15.1315789" cy="15.1315789" r="1.97368421"></circle>
                            <circle id="Oval-3" cx="21.7105263" cy="3.28947368" r="3.28947368"></circle>
                        </g>
                        <g id="Group-46" transform="translate(174.662162, 10.526316) scale(-1, 1) translate(-174.662162, -10.526316) translate(162.162162, 0.000000)">
                            <circle id="Oval-3" cx="6.57894737" cy="10.5263158" r="6.57894737"></circle>
                            <circle id="Oval-3" cx="19.0789474" cy="19.0789474" r="1.97368421"></circle>
                            <circle id="Oval-3" cx="21.7105263" cy="3.28947368" r="3.28947368"></circle>
                        </g>
                    </g>
                    <path d="M149.189189,431.823143 L167.150187,431.823143" id="Path-1729" stroke="#7B3157" stroke-width="5"></path>
                    <g id="Group-49" transform="translate(91.891892, 382.702703)" stroke="#7B3157">
                        <g id="Group-48" stroke-width="3">
                            <path d="M122.393822,0 C122.393822,0 131.666574,6.04585455 131.666574,15.8456243" id="Path-38"></path>
                            <path d="M-9.82325332e-13,0 C-9.82325332e-13,0 9.2727513,6.04585455 9.2727513,15.8456243" id="Path-38" transform="translate(4.636376, 7.922812) scale(-1, 1) translate(-4.636376, -7.922812) "></path>
                        </g>
                        <path d="M4.41779535,5.61776084 C4.41779535,5.61776084 62.0051636,73.9286161 127.68598,5.84353313" id="Path-39" stroke-width="5"></path>
                    </g>
                </g>
            </g>
        </g>
    </g>
</svg>