<?xml version="1.0" encoding="UTF-8"?>
<svg width="369px" height="443px" viewBox="0 0 369 443" version="1.1" xmlns="http://www.w3.org/2000/svg" xmlns:xlink="http://www.w3.org/1999/xlink">
    <!-- Generator: Sketch 51.3 (57544) - http://www.bohemiancoding.com/sketch -->
    <title>Group 4</title>
    <desc>Created with Sketch.</desc>
    <defs></defs>
    <g id="Page-1" stroke="none" stroke-width="1" fill="none" fill-rule="evenodd">
        <g id="bot" transform="translate(-91.000000, -104.000000)">
            <g id="Group-4" transform="translate(91.000000, 106.000000)">
                <g id="body" transform="translate(0.000000, 264.000000)">
                    <path d="M8.4768701e-08,178.517919 C8.4768701e-08,178.517919 -1.05962961e-07,189.979487 8.47718274e-08,117.691249 C2.75506608e-07,45.4030112 25.9493577,20.6455332 78.932763,13.269713 C131.916168,5.89389286 169.788738,0 169.788738,0 L188.309791,0 L198.521053,2.27373675e-13 C198.521053,2.27373675e-13 236.393622,5.89389286 289.377028,13.269713 C342.360433,20.6455332 368.30979,45.4030112 368.309791,117.691249 C368.309791,189.979487 368.309791,178.517919 368.309791,178.517919" id="Path-581" fill="#FD5B5B"></path>
                    <g id="arms" transform="translate(49.000000, 92.000000)" stroke="#DB4848" stroke-linecap="square" stroke-width="3">
                        <path d="M1.5,84.5158417 L1.5,0.419661785" id="Line"></path>
                        <path d="M268.5,84.5158417 L268.5,0.419661785" id="Line"></path>
                    </g>
                </g>
                <g id="hoodie" transform="translate(96.000000, 247.000000)">
                    <path d="M5.19130684,31.812501 C3.26963631,14.2429418 16.0427956,0 33.7167104,0 L143.924453,0 C161.600269,0 174.371475,14.2434146 172.449857,31.812501 L172.408841,32.187499 C170.487171,49.7570582 154.605416,64 136.928031,64 L40.7131322,64 C23.0392925,64 7.15394108,49.7565854 5.23232226,32.187499 L5.19130684,31.812501 Z" id="Rectangle-238" fill="#9A4343"></path>
                    <path d="M5.23635987,39.7070406 C3.33167773,28.8231426 10.7420588,20 21.7938369,20 L155.998953,20 C167.048077,20 174.460317,28.8276882 172.55643,39.7070406 L172.453894,40.2929594 C170.549212,51.1768574 160.047863,60 148.997067,60 L28.7957233,60 C17.7455573,60 7.24278235,51.1723118 5.33889568,40.2929594 L5.23635987,39.7070406 Z" id="Rectangle-238" fill="#000000"></path>
                    <path d="M0.329965942,44.7253467 C-1.69659458,31.0699148 7.84879022,20 21.6632393,20 L156.337059,20 C170.145661,20 179.697533,31.0656014 177.670332,44.7253467 L177.588811,45.2746533 C175.562251,58.9300852 162.726575,70 148.927599,70 L29.0726992,70 C15.2701092,70 2.43868749,58.9343986 0.411486837,45.2746533 L0.329965942,44.7253467 Z" id="Rectangle-238" fill="#000000" opacity="0.37890625"></path>
                    <rect id="Rectangle-238" stroke="#DB4848" stroke-width="5" x="4.5" y="2.5" width="169.217534" height="59" rx="29.5"></rect>
                    <g id="Group-8" transform="translate(50.000000, 66.000000)" stroke-linecap="square" stroke-width="4">
                        <path d="M1,0.5 L1,29.0175381" id="Line" stroke="#000000"></path>
                        <path d="M1,23 L1,29.0175381" id="Line" stroke="#FFFFFF"></path>
                    </g>
                    <g id="Group-7" transform="translate(130.000000, 66.000000)" stroke-linecap="square" stroke-width="4">
                        <path d="M1,0.5 L1,29.0175381" id="Line" stroke="#000000"></path>
                        <path d="M1,23 L1,29.0175381" id="Line" stroke="#FFFFFF"></path>
                    </g>
                </g>
                <g id="earphone" transform="translate(85.000000, 143.000000)">
                    <path d="M11,10.5123211 C11,10.5123211 18.243751,71.2091056 26.521987,135.132019 C34.8002229,199.054933 102.608536,242.458588 102.608536,242.458588 C102.608536,242.458588 169.193466,183.639377 174.099898,135.132019 C179.006329,86.6246609 187.831833,10 187.831833,10" id="Path-671" stroke="#2482F1" stroke-width="2"></path>
                    <path d="M0,5.5 C0,2.46243388 2.45733601,0 5.50830317,0 L12,0 L12,11 L5.50830317,11 C2.46615133,11 0,8.53138529 0,5.5 L0,5.5 Z" id="Rectangle-235" fill="#2482F1"></path>
                    <path d="M187,6.5 C187,3.46243388 189.457336,1 192.508303,1 L199,1 L199,12 L192.508303,12 C189.466151,12 187,9.53138529 187,6.5 L187,6.5 Z" id="Rectangle-235" fill="#2482F1" transform="translate(193.000000, 6.500000) scale(-1, 1) translate(-193.000000, -6.500000) "></path>
                    <path d="M103,242 C103,242 108.721487,292.874035 118.926848,298.375217" id="Path-672" stroke="#2482F1" stroke-width="2"></path>
                </g>
                <g id="neck" transform="translate(163.000000, 228.000000)">
                    <rect id="Rectangle-237" fill="#FFFFFF" x="0" y="21" width="45" height="57"></rect>
                    <path d="M0,0 L45,0 L45,39.0039723 C45,48.942904 36.9419199,57 27.0046233,57 L17.9953767,57 C8.0568046,57 0,48.9391115 0,39.0039723 L0,0 Z" id="Rectangle-237" fill="#F1C49F"></path>
                </g>
                <g id="face" transform="translate(95.000000, 0.000000)">
                    <path d="M7.38750841,66.8163754 C7.38750842,66.5203929 11.9693651,37.7181164 39.626508,17.2449831 C62.4622149,0.340906198 85.5581091,-1.66786116 106.805414,3.52178012 C117.631619,6.16607411 130.94773,12.1253735 141.004487,20.3030352 C165.694275,40.3795586 172.709821,66.520393 172.709821,66.520393 C172.709821,66.520393 190.196579,142.326995 167.966395,190.680077 C156.8317,214.899255 151.836805,225.796303 149.787015,230.292611 C146.962006,236.489396 118.469348,256.931117 101.941529,263.477915 C97.1296777,265.383927 90.5084329,262.521682 89.0486623,262.578623 C87.9628611,262.446111 81.3852746,264.989037 76.4816035,262.689407 C60.2988713,255.10034 32.5242932,233.173859 31.0638695,230.292618 C19.9154709,208.298165 26.6788457,223.183975 11.9693652,190.957682 C-11.7288992,139.038295 7.38750841,66.8163754 7.38750841,66.8163754 Z" id="Path-574" fill="#FFDCBF"></path>
                    <path d="M91,223 C96.5228475,223 101,218.522847 101,213 C101,207.477153 96.5228475,203 91,203 C85.4771525,203 81,207.477153 81,213 C81,218.522847 85.4771525,223 91,223 Z" id="MOUTH" stroke="#FBD1AF" stroke-width="3" fill="#FBD1AF"></path>
                    <path d="M16.6237535,71.3969383 C19.8657084,59.7354126 29.6701702,37 53.3250302,37 C76.9798902,37 88.8980835,48.6673943 88.8980835,48.6673943 C89.8465759,48.6673943 101.764769,37 125.419629,37 C149.074489,37 161.442726,59.2658266 164.537769,71.396938 C167.632813,83.5280495 173.33126,160.789766 175,157.14798 C176.66874,153.506194 182.153831,101.955773 170.770992,57.7938215 C159.388153,13.6318703 69.4065287,-38.4607867 14.6446153,46.0580608 C7.95750372,56.3788646 4.25656482,82.7642863 4.25656482,82.7642863 C4.25656482,82.7642863 2.67714419,92.7449975 1.91878171,108.058895 C0.454140085,137.634953 3.76482206,150.26813 3.76482206,150.26813 C4.44699214,154.067768 5.25678149,154.032159 5.65969404,150.18693 C5.65969404,150.18693 13.3817987,83.0584641 16.6237535,71.3969383 Z" id="Path-575" stroke="#000000" stroke-width="5" fill="#000000"></path>
                    <g id="Group-3" transform="translate(21.000000, 101.000000)">
                        <g id="Group" transform="translate(25.000000, 18.000000) rotate(-10.000000) translate(-25.000000, -18.000000) translate(3.000000, 4.000000)">
                            <rect id="Rectangle-233" fill="#000000" x="-3.43058915e-14" y="-7.10542736e-14" width="44" height="10" rx="5"></rect>
                            <path d="M13,21 C13,21 21.8702364,34.5995502 30.7404728,21" id="Path-576" stroke="#000000" stroke-width="3"></path>
                        </g>
                        <g id="Group-2" transform="translate(113.000000, 18.000000) rotate(10.000000) translate(-113.000000, -18.000000) translate(91.000000, 4.000000)">
                            <rect id="Rectangle-233" fill="#000000" x="-1.20792265e-12" y="1.15463195e-13" width="44" height="10" rx="5"></rect>
                            <path d="M13,21 C13,21 21.8702364,34.5995502 30.7404728,21" id="Path-576" stroke="#000000" stroke-width="3"></path>
                        </g>
                    </g>
                    <path d="M88.9999999,263 L89.0000001,253" id="Path-578" stroke="#F6CDAB" stroke-width="4"></path>
                    <path d="M80.7862825,131.339819 C86.1337367,117.851523 94.8021715,117.849198 100.149832,131.339819 L114.307561,167.055727 C117.156911,174.243823 113.204642,180.070926 105.463562,180.070926 L75.4699682,180.070926 C67.7362128,180.070926 63.7789021,174.238846 66.6266595,167.055727 L80.7862825,131.339819 Z" id="Rectangle-267" fill="#FBD1AF"></path>
                </g>
            </g>
        </g>
    </g>
</svg>