<?xml version="1.0" encoding="UTF-8"?>
<svg width="128px" height="32px" viewBox="0 0 128 32" version="1.1" xmlns="http://www.w3.org/2000/svg" xmlns:xlink="http://www.w3.org/1999/xlink">
    <!-- Generator: Sketch 51.3 (57544) - http://www.bohemiancoding.com/sketch -->
    <title>decathlon-seeklogo.com</title>
    <desc>Created with Sketch.</desc>
    <defs></defs>
    <g id="Dribbble" stroke="none" stroke-width="1" fill="none" fill-rule="evenodd">
        <g id="home-2" transform="translate(-656.000000, -744.000000)">
            <g id="Group-6" transform="translate(610.000000, 685.000000)">
                <g id="decathlon-seeklogo.com" transform="translate(46.000000, 59.000000)">
                    <polygon id="Fill-1" fill="#286BA2" points="0.00476426799 31.9952357 127.807047 31.9952357 127.807047 0.0397816377 0.00476426799 0.0397816377"></polygon>
                    <path d="M14.3171017,11.2551861 L12.6531811,11.2551861 L12.6531811,20.8788486 L14.3398114,20.8788486 C17.5347295,20.8788486 19.0465112,19.3997022 19.0465112,16.0462134 C19.0465112,12.9750868 17.3989479,11.2551861 14.3171017,11.2551861" id="Fill-3" fill="#286BA2"></path>
                    <path d="M23.0940744,14.5228387 C22.8084566,12.5004864 22.0052804,10.8387097 20.7071762,9.63509677 C18.9238313,7.9591067 17.0293995,7.60607444 14.3171017,7.60607444 L8.4693598,7.60607444 L8.4693598,24.600139 L14.8946898,24.600139 C17.2995335,24.600139 18.9018362,24.2756129 20.7291712,22.5039404 C22.0289429,21.2426005 22.8140943,19.6425211 23.0940744,17.7519007 L23.0940744,24.512 L32.405995,24.512 L32.405995,20.8550273 L27.2089727,20.8550273 L27.2089727,17.6957618 L31.7088238,17.6957618 L31.7088238,14.0454591 L27.2089727,14.0454591 L27.2089727,11.2726551 L32.405995,11.2726551 L32.405995,7.52865509 L23.0940744,7.52865509 L23.0940744,14.5228387 Z M14.3398114,20.8788486 L12.6531811,20.8788486 L12.6531811,11.2551861 L14.3171017,11.2551861 C17.3994243,11.2551861 19.0465112,12.9750868 19.0465112,16.0472457 C19.0465112,19.3997022 17.535206,20.8788486 14.3398114,20.8788486 Z" id="Fill-4" fill="#FFFFFE"></path>
                    <path d="M45.0456774,18.385866 C44.91466,18.6144715 43.69334,20.4923077 41.216794,20.6602481 C38.7543821,20.7729231 36.6703325,18.4365261 36.7087643,15.9167047 C36.7880099,13.4181638 38.64266,11.424397 41.1200794,11.3861241 C43.2173102,11.424397 44.7649032,13.0500447 44.7398908,13.0500447 C45.195196,13.4461935 45.4916129,13.732129 45.8301141,14.2417469 L48.0721787,10.289866 C47.6664218,9.87068983 47.4989578,9.67972208 46.9940248,9.30453598 C45.7171216,8.14451613 43.8499256,7.22985608 41.216794,7.1378263 C38.6877618,7.07898759 36.1369727,8.14451613 34.158531,10.6933201 C32.9476129,12.3142829 32.4657866,13.7696079 32.4062333,15.9167047 C32.4256873,18.4365261 33.3289926,20.476665 34.6533002,21.9440596 C36.9151365,24.3329429 39.6526055,24.9028288 41.1200794,24.9028288 C43.2173102,24.8100844 44.7516427,24.3037221 46.2087146,23.328397 C46.66934,23.0103027 47.1741935,22.5831067 47.6847643,22.0382333 L51.601469,22.0382333 L51.601469,24.512 L55.615603,24.512 L55.615603,7.52936973 L51.2204864,7.52936973 L45.0456774,18.385866 Z M51.601469,18.4803573 L49.4453995,18.4803573 L51.601469,14.6397221 L51.601469,18.4803573 Z" id="Fill-5" fill="#FFFFFE"></path>
                    <polyline id="Fill-6" fill="#FFFFFE" points="56.4121092 11.5483474 59.5792357 11.5483474 59.5792357 24.6007742 63.7667097 24.6007742 63.7667097 11.5483474 67.0058561 11.5483474 67.0058561 7.60607444 56.4121092 7.60607444 56.4121092 11.5483474"></polyline>
                    <polyline id="Fill-7" fill="#FFFFFE" points="76.209866 14.0652308 71.9282184 14.0652308 71.9282184 7.60607444 67.7527345 7.60607444 67.7527345 24.6007742 71.9282184 24.6007742 71.9282184 18.104139 76.209866 18.104139 76.209866 24.6007742 80.4248139 24.6007742 80.4248139 7.60607444 76.209866 7.60607444 76.209866 14.0652308"></polyline>
                    <path d="M115.153945,17.0513945 L108.877022,7.60607444 L105.100546,7.60607444 L105.100546,13.3401092 C104.675732,12.03867 103.927742,10.8358511 102.879603,9.79168238 C101.210521,8.17230769 99.0467494,7.28583623 96.7702233,7.28583623 C94.3364764,7.28583623 92.2195533,8.12704715 90.5377667,9.77492804 C88.8496278,11.4235236 87.9356824,13.5763375 87.9356824,15.9242481 C87.9356824,17.7900149 88.3938462,19.4317816 89.2871464,20.8550273 L86.0871464,20.8550273 L86.0871464,7.60607444 L81.9271464,7.60607444 L81.9271464,24.6007742 L90.9768734,24.6007742 L90.9768734,22.8138561 C92.5498759,24.203196 94.5048139,24.9202978 96.746402,24.9202978 C99.1205955,24.9202978 101.388387,23.9867395 103.04794,22.2624715 C104.001588,21.2768238 104.693995,20.1121985 105.100546,18.8116328 L105.100546,24.6007742 L109.280397,24.6007742 L109.280397,15.1300447 L115.659752,24.6007742 L119.33062,24.6007742 L119.33062,7.60607444 L115.153945,7.60607444 L115.153945,17.0513945 Z M96.746402,20.7120199 C94.3801489,20.7120199 92.2521092,18.6486948 92.2521092,15.9743524 C92.2521092,13.479861 94.2419851,11.4978462 96.7988089,11.4978462 C99.2039702,11.4978462 101.197022,13.479861 101.197022,15.9743524 C101.197022,18.74533 99.2039702,20.7120199 96.746402,20.7120199 Z" id="Fill-8" fill="#FFFFFE"></path>
                </g>
            </g>
        </g>
    </g>
</svg>