<?xml version="1.0" encoding="UTF-8"?>
<svg width="123px" height="34px" viewBox="0 0 123 34" version="1.1" xmlns="http://www.w3.org/2000/svg" xmlns:xlink="http://www.w3.org/1999/xlink">
    <!-- Generator: Sketch 51.3 (57544) - http://www.bohemiancoding.com/sketch -->
    <title>Flipkart</title>
    <desc>Created with Sketch.</desc>
    <defs>
        <linearGradient x1="50%" y1="-0.000170136456%" x2="50%" y2="100.000084%" id="linearGradient-1">
            <stop stop-color="#F7E830" offset="0%"></stop>
            <stop stop-color="#FDCB06" offset="100%"></stop>
        </linearGradient>
        <radialGradient cx="49.5782321%" cy="353.559807%" fx="49.5782321%" fy="353.559807%" r="437.812754%" gradientTransform="translate(0.495782,3.535598),scale(0.153572,1.000000),translate(-0.495782,-3.535598)" id="radialGradient-2">
            <stop stop-color="#F29405" offset="59.6%"></stop>
            <stop stop-color="#F7D01E" offset="73.6%"></stop>
            <stop stop-color="#FDCB06" offset="100%"></stop>
        </radialGradient>
        <linearGradient x1="49.793906%" y1="-0.0266608552%" x2="50.599637%" y2="98.0268923%" id="linearGradient-3">
            <stop stop-color="#FADA1C" offset="0%"></stop>
            <stop stop-color="#FDCB06" offset="100%"></stop>
        </linearGradient>
        <linearGradient x1="50.1971362%" y1="-0.0244772417%" x2="49.3914164%" y2="98.0269354%" id="linearGradient-4">
            <stop stop-color="#FADA1C" offset="0%"></stop>
            <stop stop-color="#FDCB06" offset="100%"></stop>
        </linearGradient>
        <path d="M14.8088588,0.657446328 C14.7727006,0.589649718 14.768226,0.508293785 14.768226,0.431457627 L14.7320226,0.435977401 C14.6778305,0.237107345 14.5106441,0.0472768362 14.2936497,0.0382372881 C14.1308927,0.0246779661 13.9275028,0.0291977401 13.832678,0.182870056 C13.651887,0.426937853 13.7376723,0.73880226 13.728678,1.01450847 C13.728678,1.03258757 13.7332429,1.06422599 13.7332429,1.08230508 C13.7332429,1.26761582 13.7106441,1.44840678 13.6790056,1.62919774 C13.651887,1.68343503 13.6383729,1.74219209 13.6383729,1.80546893 C13.5615819,2.23032768 13.4078192,2.65066667 13.2,3.03484746 C13.159322,3.08908475 13.1275932,3.14784181 13.1141243,3.21111864 C12.9785311,3.44614689 12.8158192,3.66309605 12.6485876,3.8800452 C12.6214237,3.90264407 12.5988249,3.92976271 12.576226,3.95688136 C12.4586667,4.10151412 12.3322034,4.22354802 12.2010395,4.35010169 C12.1694463,4.36818079 12.1468475,4.39077966 12.1196836,4.40885876 C11.9660565,4.5580113 11.7942599,4.69812429 11.6089492,4.81111864 C11.5863503,4.82467797 11.5637514,4.84275706 11.5365876,4.86083616 C10.3794802,5.62467797 8.9739209,5.94106215 7.60438418,5.95462147 C6.44284746,5.99077966 5.27213559,5.74219209 4.22354802,5.24049718 C4.20555932,5.23145763 4.16036158,5.21337853 4.14219209,5.20433898 C3.9659661,5.10942373 3.78517514,5.0280678 3.62241808,4.91055367 C3.58625989,4.89247458 3.55010169,4.86987571 3.50942373,4.85179661 C3.34219209,4.75236158 3.184,4.64388701 3.03484746,4.51733333 C2.98512994,4.47213559 2.93089266,4.4359774 2.87665537,4.39529944 C2.7139435,4.26422599 2.54671186,4.12411299 2.40668927,3.9659209 C2.37053107,3.92524294 2.33428249,3.88908475 2.29821469,3.85292655 C1.80564972,3.34219209 1.42146893,2.71846328 1.2180791,2.04049718 C1.02363842,1.50264407 1.05084746,0.915073446 1.02824859,0.350101695 C0.865446328,0.101514124 0.522033898,-0.0385988701 0.250847458,0.115073446 C0.137853107,0.196429379 0.124293785,0.345581921 0.0384180791,0.449536723 C-0.101694915,1.94106215 0.53559322,3.4280678 1.55254237,4.50377401 C1.55254237,4.5399322 1.57062147,4.56253107 1.60235028,4.5760904 C1.78314124,4.74332203 1.95932203,4.91507345 2.14011299,5.07778531 C2.17175141,5.10942373 2.2079096,5.14106215 2.24858757,5.16818079 C2.42937853,5.31733333 2.62372881,5.45292655 2.81355932,5.59303955 C2.84971751,5.62015819 2.88587571,5.64275706 2.92655367,5.66535593 C3.17514124,5.8099887 3.4100791,5.98174011 3.67683616,6.08117514 C3.69491525,6.09473446 3.72655367,6.11733333 3.74463277,6.12637288 C4.60338983,6.53767232 5.5299435,6.81789831 6.47909605,6.90829379 C6.58305085,6.90829379 6.68700565,6.91733333 6.79096045,6.9399322 C7.24293785,6.96705085 7.69491525,6.95349153 8.14689266,6.94445198 C9.54341243,6.82241808 10.9853107,6.48343503 12.1514124,5.66083616 L12.1649718,5.67891525 C12.2011299,5.64727684 12.2327684,5.62015819 12.2689266,5.59303955 C12.4543277,5.45744633 12.6351186,5.31281356 12.8159096,5.16366102 C12.8564972,5.1320226 12.9016949,5.09586441 12.9424633,5.05518644 C13.1412881,4.83823729 13.3718418,4.63936723 13.5390734,4.39077966 L13.5661921,4.40433898 C13.5797514,4.38174011 13.6023503,4.33654237 13.616,4.3139435 C13.7695819,4.1060339 13.9097853,3.88908475 14.0453785,3.67213559 C14.0543277,3.65857627 14.0769266,3.6359774 14.0859661,3.62241808 L14.0679774,3.60433898 C14.0815367,3.58625989 14.1131751,3.55010169 14.1267345,3.5320226 C14.375322,3.02580791 14.5967006,2.49699435 14.6736271,1.93654237 C14.7052655,1.92298305 14.7233898,1.89586441 14.7233898,1.86422599 C14.7279548,1.68343503 14.7911864,1.51168362 14.7731525,1.33089266 C14.8133333,1.10942373 14.8178983,0.883435028 14.8088588,0.657446328 Z" id="path-5"></path>
    </defs>
    <g id="Dribbble" stroke="none" stroke-width="1" fill="none" fill-rule="evenodd">
        <g id="home-2" transform="translate(-418.000000, -743.000000)">
            <g id="Group-7" transform="translate(370.000000, 685.000000)">
                <g id="Flipkart" transform="translate(49.000000, 59.000000)">
                    <path d="M121.279096,5.54124294 C121.265537,5.4960452 121.251887,5.45084746 121.233898,5.40564972 C110.526554,5.41016949 99.8237288,5.40564972 89.120904,5.41016949 C89.0937853,5.44180791 89.0757062,5.47344633 89.0711864,5.51412429 C89.0711864,13.8169492 89.0711864,22.115209 89.0665763,30.4180791 C89.1343729,30.8609718 89.3784407,31.2632316 89.7039548,31.5661017 C89.7175141,31.5706215 89.7491525,31.5750056 89.7627119,31.5796158 C89.9299435,31.7557966 90.1694915,31.8418079 90.3954802,31.9231186 C90.5627119,31.9141243 90.7254237,31.9863955 90.8926554,31.9683164 L104.180791,31.9683164 C104.307345,31.9637966 104.438328,31.9863955 104.560362,31.9367232 C104.564972,31.9187345 104.569401,31.8870056 104.573921,31.8689266 C104.578531,31.8463277 104.58296,31.7966102 104.587525,31.7695367 C104.872316,30.1786215 105.147932,28.583096 105.450847,26.9921808 L105.477966,26.788791 C104.248633,26.7841808 103.014689,26.788791 101.785356,26.7841808 C101.487006,26.7751864 101.179751,26.7841808 100.881401,26.7479774 C100.370712,26.7253785 99.8554576,26.7434576 99.3447232,26.6937853 C98.7119548,26.6937853 98.0837062,26.6349831 97.4509379,26.6349831 C96.9537627,26.5852655 96.4520678,26.6033898 95.9503729,26.580791 C95.6250395,26.5402034 95.2904859,26.5581921 94.9606328,26.5445876 C94.4227797,26.4858757 93.875887,26.5265989 93.3380339,26.4677966 C92.7685424,26.4724068 92.1990508,26.4225989 91.6295593,26.4089944 C91.6340791,26.4044746 91.6385989,26.3863955 91.6385989,26.3818757 C91.8284294,26.3863955 92.0137401,26.3728814 92.2035706,26.3683616 C92.6239096,26.3140791 93.0487684,26.3502825 93.4691073,26.2914802 C93.9075254,26.2914802 94.3414237,26.2327684 94.7798418,26.2327684 C95.1685424,26.1784859 95.5617627,26.2101695 95.9503729,26.155887 C96.4069605,26.155887 96.8543277,26.0971751 97.3109153,26.0926102 C97.6860565,26.0428927 98.0657175,26.0700113 98.4408588,26.0202938 C98.8792768,26.0248136 99.3131751,25.9570169 99.7515932,25.9615819 C100.180972,25.911774 100.619299,25.9252881 101.048678,25.8800904 C101.00809,25.7129944 100.976362,25.5457175 100.940294,25.3783955 C100.908655,25.2744859 100.782102,25.2970847 100.700746,25.2834802 C99.7199548,25.1432768 98.7436836,25.0032994 97.7674124,24.8677062 C97.8306893,24.8178983 97.916565,24.8404972 97.9888814,24.8315028 C98.7482034,24.7727006 99.5030056,24.704904 100.262328,24.6507119 C100.434079,24.6417175 100.601311,24.6100339 100.773062,24.6055141 C100.696226,24.3705311 100.651028,24.1128588 100.547073,23.8959548 C98.924565,23.6473672 97.3018757,23.4258983 95.6837966,23.1591864 C96.1041356,23.0913898 96.5289944,23.0597966 96.9493333,23.0145989 L96.9854915,23.0009944 C98.3278644,22.860791 99.6747571,22.7025989 101.01713,22.5716158 C102.720994,22.5626215 104.42052,22.5670056 106.124475,22.5716158 C106.178621,22.5626215 106.273627,22.5896045 106.282667,22.5128136 C106.42278,21.7806554 106.558373,21.0484972 106.698395,20.3162034 C106.892746,19.2993446 107.20009,18.2959096 107.674667,17.3693559 C108.420429,15.8778305 109.60009,14.6122938 111.037288,13.771661 C112.379661,12.9852203 113.934554,12.6055593 115.480316,12.5332429 C115.982011,12.4880452 116.488226,12.5016045 116.985401,12.5648814 C117.310825,12.6417175 117.645288,12.732113 117.902915,12.9535819 C118.115345,13.1253333 118.241898,13.3784407 118.336814,13.631548 C118.544814,14.232678 118.662237,14.8564068 118.761672,15.4846554 C118.766192,15.7377627 118.81139,16.0225085 118.675797,16.2530169 C118.549243,16.4790056 118.296226,16.5874802 118.056633,16.6552768 C117.184271,16.8812655 116.271322,16.668791 115.39896,16.8812655 C114.680407,17.0349379 114.011435,17.4326328 113.554893,18.0066893 C113.017085,18.6755706 112.732294,19.5071186 112.574102,20.3388927 C112.452113,21.0801356 112.298395,21.8213333 112.176362,22.567096 C113.035119,22.5717062 113.898441,22.5625763 114.761672,22.5717062 C115.105175,22.5717062 115.457718,22.7614915 115.597831,23.0868701 C115.778621,23.5027345 115.737944,23.9728362 115.679186,24.411209 C115.60687,24.9038644 115.489356,25.3919548 115.267887,25.8439322 C115.082486,26.228113 114.775232,26.5807006 114.354893,26.7162938 C114.137944,26.8021695 113.902915,26.7840904 113.672407,26.7840904 C112.912994,26.7840904 112.153672,26.7930847 111.394441,26.7840904 C111.272407,27.3400678 111.191051,27.9095141 111.082576,28.4744859 C110.883797,29.5727458 110.689401,30.6755706 110.490486,31.7784407 C110.485966,31.8146441 110.481446,31.891435 110.481446,31.932113 C110.838508,31.9501921 111.195571,31.932113 111.552633,31.9411073 C114.20122,31.9411073 116.854328,31.9364972 119.507435,31.9411073 C119.792181,31.9501921 120.081446,31.8823955 120.330034,31.7422373 C120.479186,31.6880452 120.569582,31.5569266 120.700655,31.4846554 C120.827209,31.412339 120.863367,31.2632768 120.971842,31.1682712 C121.089356,30.9603616 121.21139,30.7435028 121.220429,30.4992994 C121.233989,30.4992994 121.270147,30.4947797 121.288226,30.4903051 C121.274486,22.1740113 121.288136,13.8576271 121.279096,5.54124294 Z" id="Shape" stroke="#FCD109" stroke-width="0.094" fill="url(#linearGradient-1)" fill-rule="nonzero"></path>
                    <path d="M93.2836158,0.0723163842 C93.6677966,-0.0497175141 94.0700565,0.0316384181 94.4633672,0.00451977401 C101.844158,0.00903954802 109.224949,0.00451977401 116.60565,0.00451977401 C117.044068,-0.013559322 117.428249,0.235028249 117.835028,0.361581921 C118.160452,0.492655367 118.499435,0.596610169 118.824859,0.736723164 C118.892655,0.763841808 118.942373,0.82259887 118.992,0.872316384 C118.98748,1.46892655 118.992,2.0700565 118.992,2.67118644 C118.99661,2.82937853 118.969401,2.9920904 119.023638,3.14576271 C119.118644,3.15932203 119.168271,3.23163842 119.231638,3.29039548 C119.529944,3.4259887 119.78296,3.64745763 120.054147,3.82824859 C120.460927,4.11751412 120.894915,4.37062147 121.292565,4.66892655 C121.310599,4.78644068 121.297085,4.90847458 121.260927,5.01694915 C121.220339,5.14350282 121.247367,5.27909605 121.233808,5.40564972 C110.526463,5.41016949 99.8236384,5.40564972 89.1208136,5.41016949 C89.0982147,5.26101695 89.1388927,5.11186441 89.0756158,4.97175141 C89.0665763,4.85423729 89.0258983,4.70056497 89.1388927,4.61920904 C89.5908701,4.30282486 90.0699661,4.0180791 90.5128136,3.68361582 C90.7886102,3.50734463 91.0551864,3.32655367 91.3218531,3.14576271 C91.3760904,3.05536723 91.3580113,2.94237288 91.3580113,2.84293785 C91.3580113,2.18757062 91.3580113,1.53220339 91.3625311,0.876836158 C91.5162034,0.677966102 91.7829605,0.655367232 91.9952994,0.555932203 C92.4248588,0.393220339 92.8587571,0.235028249 93.2836158,0.0723163842 Z M93.3107345,0.149152542 C92.7322034,0.370621469 92.1491525,0.583050847 91.5706215,0.804519774 C91.4937853,0.818079096 91.4530169,0.885875706 91.4124294,0.944632768 C91.4169492,0.98079096 91.4214689,1.0440678 91.4214689,1.08022599 C91.4168588,1.62259887 91.4214689,2.16497175 91.4168588,2.70734463 C91.4214689,2.84293785 91.4032994,2.97853107 91.4530169,3.10056497 C91.3942599,3.15932203 91.3310734,3.2180791 91.2586667,3.26327684 C90.6032994,3.68813559 89.9705311,4.14915254 89.3151638,4.56949153 C89.2021695,4.63728814 89.0756158,4.72768362 89.111774,4.87683616 C89.0891751,4.95819209 89.1298531,5.0259887 89.2157288,5.00338983 C90.6349379,4.99435028 92.0496271,5.01242938 93.4689266,4.98983051 C95.579661,4.98983051 97.6858757,4.99435028 99.7966102,4.98983051 L99.8282486,4.97627119 C99.9231638,4.99887006 100.017989,4.98983051 100.117424,4.98983051 C103.941153,4.98983051 107.764881,4.99435028 111.593085,4.98983051 C112.79539,4.99435028 114.002169,4.98983051 115.208904,4.98983051 C117.197605,4.98983051 119.19087,5.0079096 121.179571,4.99887006 C121.238328,4.98531073 121.256407,4.94463277 121.233808,4.87231638 C121.229198,4.8 121.256407,4.70056497 121.179571,4.65536723 C120.863186,4.50621469 120.592,4.27570621 120.289175,4.09491525 C120.180791,4.00451977 120.040588,3.95480226 119.959232,3.83276836 C119.647367,3.65649718 119.358102,3.43954802 119.050712,3.24519774 C118.99191,3.20903955 118.946712,3.15028249 118.897085,3.10056497 C118.924203,3.00564972 118.933243,2.90169492 118.933243,2.80225989 C118.928723,2.22824859 118.933243,1.65423729 118.928723,1.08022599 C118.942282,0.989830508 118.937718,0.885875706 118.856316,0.827118644 C118.313944,0.632768362 117.776181,0.424858757 117.238237,0.225988701 C117.071006,0.144632768 116.885695,0.0994350282 116.704904,0.0723163842 L93.604339,0.0723163842 C93.5050847,0.0768361582 93.4101695,0.126553672 93.3107345,0.149152542 Z" id="Shape" stroke="#F8F3B5" stroke-width="0.094" fill="#F8F3B5" fill-rule="nonzero"></path>
                    <path d="M91.4214689,1.08022599 C91.819209,1.24745763 92.2439774,1.34237288 92.6463277,1.50508475 C92.8632768,1.59096045 92.9310734,1.8259887 93.0259887,2.01581921 C92.9309831,2.11073446 92.8179887,2.18757062 92.7049944,2.25988701 C92.2891751,2.54011299 91.8643164,2.81129944 91.4530169,3.10056497 C91.4032994,2.97853107 91.4214689,2.84293785 91.4168588,2.70734463 C91.4214689,2.16497175 91.4169492,1.62259887 91.4214689,1.08022599 Z M117.703864,1.50508475 C118.106124,1.34689266 118.526463,1.23841808 118.928814,1.08022599 C118.933333,1.65423729 118.928814,2.22824859 118.933333,2.80225989 C118.933333,2.90169492 118.924294,3.00564972 118.897175,3.10056497 C118.544633,2.85649718 118.187571,2.6259887 117.835028,2.38644068 C117.663277,2.25988701 117.473446,2.16497175 117.319774,2.01129944 C117.414689,1.82146893 117.487006,1.59096045 117.703864,1.50508475 Z" id="Shape" stroke="#F7B402" stroke-width="0.094" fill="#F7B402" fill-rule="nonzero"></path>
                    <path d="M98.3186441,1.69039548 C98.8158192,1.57288136 99.3717514,2.01581921 99.3310734,2.53559322 C99.3355932,3.04632768 98.7976497,3.46214689 98.3050847,3.34463277 C98.1062147,3.27683616 97.9162938,3.17288136 97.7943503,2.99661017 C97.6361582,2.75706215 97.5999096,2.43615819 97.7265537,2.1740113 C97.8169492,1.92090395 98.0610169,1.74915254 98.3186441,1.69039548 Z M111.213559,1.97514124 C111.421469,1.74463277 111.751412,1.61355932 112.058757,1.69491525 C112.289266,1.76271186 112.515254,1.91186441 112.614689,2.13785311 C112.813559,2.52655367 112.659887,3.05084746 112.271186,3.25423729 C111.927593,3.4440678 111.493785,3.35367232 111.231638,3.0779661 C110.964972,2.77514124 110.946802,2.2779661 111.213559,1.97514124 Z" id="Shape" stroke="#BDA727" stroke-width="0.094" fill="#BDA727" fill-rule="nonzero"></path>
                    <path d="M92.7050847,2.25988701 C92.8180791,2.18757062 92.9310734,2.11073446 93.0260791,2.01581921 L93.0576271,2.04745763 C93.0892655,2.28248588 93.0666667,2.5220339 93.0757062,2.75706215 C93.0621469,3.46214689 93.0892655,4.17175141 93.0576271,4.87683616 C91.7423729,4.87683616 90.427209,4.86779661 89.1118644,4.87683616 C89.0757062,4.72768362 89.2022599,4.63728814 89.3152542,4.56949153 C89.9706215,4.14915254 90.6033898,3.68813559 91.2587571,3.26327684 C91.3311638,3.2180791 91.3943503,3.15932203 91.4531073,3.10056497 C91.8644068,2.81129944 92.2892655,2.54011299 92.7050847,2.25988701 Z M117.274486,2.16949153 C117.274486,2.11073446 117.288136,2.06101695 117.319684,2.01129944 C117.473356,2.16497175 117.663277,2.25988701 117.834938,2.38644068 C118.18748,2.6259887 118.544542,2.85649718 118.897085,3.10056497 C118.946802,3.15028249 118.992,3.20903955 119.050712,3.24519774 C119.358102,3.43954802 119.647277,3.65649718 119.959232,3.83276836 C120.040588,3.95480226 120.180655,4.00451977 120.289175,4.09491525 C120.592,4.27570621 120.863186,4.50621469 121.179571,4.65536723 C121.256407,4.70056497 121.229288,4.8 121.233808,4.87231638 C119.918463,4.87683616 118.607729,4.86779661 117.292565,4.87683616 C117.269966,4.6960452 117.283525,4.51525424 117.279006,4.33898305 C117.279096,3.61581921 117.270056,2.89265537 117.274486,2.16949153 Z" id="Shape" stroke="#F7E62D" stroke-width="0.094" fill="#F7E62D" fill-rule="nonzero"></path>
                    <path d="M121.233898,4.87231638 C119.918554,4.87683616 118.607819,4.86779661 117.292655,4.87683616 C117.270056,4.6960452 117.283616,4.51525424 117.279096,4.33898305 C117.279096,3.61581921 117.270056,2.89265537 117.274486,2.16949153 C117.274486,2.11073446 117.288136,2.06101695 117.319684,2.01129944 C117.414689,1.82146893 117.486915,1.59096045 117.703864,1.50508475 C118.106124,1.34689266 118.526463,1.23841808 118.928814,1.08022599 C118.942373,0.989830508 118.937853,0.885875706 118.856407,0.827118644 C118.314034,0.632768362 117.776271,0.424858757 117.238328,0.225988701 C117.071096,0.144632768 116.885785,0.0994350282 116.704994,0.0723163842 L93.6044294,0.0723163842 C93.5049944,0.0768361582 93.4100791,0.126553672 93.3106441,0.149152542 C92.732113,0.370621469 92.1490621,0.583050847 91.5705311,0.804519774 C91.4936949,0.818079096 91.4529266,0.885875706 91.412339,0.944632768 C91.4168588,0.98079096 91.4213785,1.0440678 91.4213785,1.08022599 C91.8191186,1.24745763 92.243887,1.34237288 92.6462373,1.50508475 C92.8631864,1.59096045 92.9309831,1.8259887 93.0258983,2.01581921 L93.0574463,2.04745763 C93.0890847,2.28248588 93.0664859,2.5220339 93.0755254,2.75706215 C93.0619661,3.46214689 93.0890847,4.17175141 93.0574463,4.87683616 C91.7421921,4.87683616 90.4270282,4.86779661 89.1116836,4.87683616 C89.0890847,4.95819209 89.1297627,5.0259887 89.2156384,5.00338983 C90.6348475,4.99435028 92.0495367,5.01242938 93.4688362,4.98983051 C95.5795706,4.98983051 97.6857853,4.99435028 99.7965198,4.98983051 L99.8281582,4.97627119 C99.9230734,4.99887006 100.017898,4.98983051 100.117333,4.98983051 C103.941062,4.98983051 107.764791,4.99435028 111.592994,4.98983051 C112.795299,4.99435028 114.002079,4.98983051 115.208814,4.98983051 C117.197514,4.98983051 119.19078,5.0079096 121.17948,4.99887006 C121.238418,4.98531073 121.256497,4.94463277 121.233898,4.87231638 Z M97.7265537,2.1740113 C97.8169492,1.92090395 98.0609266,1.74915254 98.3186441,1.69039548 C98.8158192,1.57288136 99.3717514,2.01581921 99.3310734,2.53559322 C99.3355932,3.04632768 98.7976497,3.46214689 98.3050847,3.34463277 C98.1062147,3.27683616 97.9162938,3.17288136 97.7943503,2.99661017 C97.6361582,2.75706215 97.6,2.43615819 97.7265537,2.1740113 Z M111.213559,1.97514124 C111.421469,1.74463277 111.751412,1.61355932 112.058757,1.69491525 C112.289266,1.76271186 112.515254,1.91186441 112.614689,2.13785311 C112.813559,2.52655367 112.659887,3.05084746 112.271186,3.25423729 C111.927593,3.4440678 111.493785,3.35367232 111.231638,3.0779661 C110.964972,2.77514124 110.946802,2.2779661 111.213559,1.97514124 Z" id="Shape" stroke="#FCD109" stroke-width="0.094" fill="url(#radialGradient-2)" fill-rule="nonzero"></path>
                    <path d="M112.365559,6.85857627 C112.428746,6.87213559 112.036158,6.48135593 112.112994,6.46327684 C112.185311,6.47231638 112.45948,6.25948023 112.79096,6.43312994 C113.12235,6.60677966 113.040181,7.01315254 113.002576,7.16384181 C112.957831,7.34318644 112.843661,7.45762712 112.753266,7.5480226 C112.703548,7.58870056 112.59209,7.6519774 112.524294,7.64745763 C112.564972,7.4259887 112.433898,7.38983051 112.424859,7.16384181 L112.365559,6.85857627 Z" id="Shape" stroke="#FCD109" stroke-width="0.094" fill="url(#linearGradient-3)" fill-rule="nonzero"></path>
                    <path d="M97.9171073,7.10359322 C97.9080678,7.32958192 97.776904,7.36574011 97.8176723,7.58720904 C97.7498757,7.59172881 97.6383277,7.52845198 97.5886554,7.48777401 C97.4982599,7.39737853 97.384226,7.28293785 97.3393898,7.10359322 C97.3017853,6.95294915 97.2195706,6.54657627 97.5510056,6.37288136 C97.8824407,6.19918644 98.1566554,6.4120226 98.2289718,6.40302825 C98.3058079,6.42110734 97.9132203,6.81188701 97.9764068,6.79832768 L97.9171073,7.10359322 Z" id="Shape" stroke="#FCD109" stroke-width="0.094" fill="url(#linearGradient-4)" fill-rule="nonzero"></path>
                    <path d="M111.773831,9.7539435 C111.841808,9.69491525 111.887006,9.69491525 111.977401,9.69491525 C111.435028,10.8700565 110.80226,12.0451977 109.850893,12.9601356 C109.749139,13.0509665 109.641664,13.135177 109.52913,13.2122486 C109.420203,13.2919322 109.313446,13.3666893 109.207277,13.4428475 C109.103322,13.5150282 109,13.5876158 108.89939,13.663322 C108.641763,13.803435 108.415774,13.9978305 108.131028,14.083661 C107.611254,14.3322486 107.050893,14.4994802 106.485921,14.6169944 C106.264452,14.6531977 106.038463,14.7073898 105.812475,14.7119096 C105.532249,14.7933107 105.233944,14.7345085 104.949198,14.7525876 C104.791006,14.7797062 104.650802,14.6893107 104.49722,14.7073898 C104.363887,14.6885424 104.23087,14.6659435 104.098667,14.639548 C103.964505,14.6121336 103.831241,14.5804945 103.699073,14.544678 C101.627119,13.8983051 99.5932203,12.3163842 99.000678,10.1769492 C98.9739795,10.032868 98.9605147,9.8866469 98.960452,9.74011299 C99.0236836,9.86666667 99.0892655,9.99231638 99.1571073,10.116791 C100,11.9548023 101.672316,13.4011299 103.648,13.8372429 C103.808362,13.9103729 103.981921,13.8847458 104.135638,13.9480226 C104.275751,13.9480226 104.411345,13.9435028 104.546938,13.9887006 C105.012475,13.9976949 105.478011,13.9932203 105.943548,13.9932203 C106.006734,13.9977401 106.065492,13.9661017 106.128859,13.9525424 C106.904723,13.9262373 107.664949,13.7146215 108.372791,13.3937175 C108.514441,13.3295367 108.653921,13.2609718 108.791006,13.1886554 C108.911004,13.1254952 109.02815,13.0570592 109.142102,12.983548 C109.254027,12.9113994 109.362855,12.834555 109.468294,12.7532203 C110.305085,12.0903955 111.028249,11.2316384 111.519322,10.244113 C111.612791,10.0663955 111.698305,9.90183051 111.773831,9.7539435 Z" id="Shape" stroke="#BDA727" stroke-width="0.094" fill="#BDA727" fill-rule="nonzero"></path>
                    <path d="M111.037198,13.7717514 C112.379571,12.9853107 113.934463,12.6056497 115.480226,12.5333333 C115.981921,12.4881356 116.488136,12.5016949 116.985311,12.5649718 C117.310734,12.6418079 117.645198,12.7322034 117.902825,12.9536723 C117.771751,12.9627119 117.645198,12.9039548 117.514124,12.8858757 C117.143503,12.8135593 116.759322,12.840678 116.384181,12.8316384 C115.294825,12.8316384 114.19661,12.9175141 113.143503,13.2158192 C112.59209,13.3830508 112.040678,13.5774011 111.538983,13.8666667 C110.671186,14.3457627 109.889266,14.9785311 109.256497,15.7378531 C108.126554,17.0350734 107.462147,18.680226 107.141243,20.3571073 C106.987571,21.256452 106.811209,22.151322 106.671186,23.0552768 C106.445198,23.0778757 106.214689,23.0643616 105.988701,23.0643616 C104.99435,23.0598418 104,23.0552768 103.00565,23.0463729 C102.79322,23.0552768 102.58522,23.0056949 102.372881,23.0191638 C100.564972,23.0281582 98.7570621,23.0146441 96.9491525,23.0146441 L96.9853107,23.0010395 C98.3276836,22.8608362 99.6745763,22.7026441 101.016949,22.571661 C102.720814,22.5626667 104.420339,22.5670508 106.124294,22.571661 C106.178441,22.5626667 106.273446,22.5896497 106.282486,22.5128588 C106.422599,21.7807006 106.558192,21.0485424 106.698215,20.3162486 C106.892655,19.299435 107.2,18.296 107.674576,17.3694463 C108.420339,15.8779209 109.6,14.6123842 111.037198,13.7717514 Z" id="Shape" stroke="#0D69B3" stroke-width="0.094" fill="#0D69B3" fill-rule="nonzero"></path>
                    <path d="M113.143503,13.2158192 C114.19661,12.9175141 115.294915,12.8316384 116.384181,12.8316384 C116.759322,12.840678 117.143503,12.8135593 117.514124,12.8858757 C117.645107,12.9039548 117.771661,12.9627119 117.902825,12.9536723 C118.115254,13.1254237 118.241808,13.3785311 118.336723,13.6316384 C118.544723,14.2327684 118.662147,14.8564972 118.761582,15.4847458 C118.766102,15.7378531 118.811299,16.0225989 118.675706,16.2531073 C118.549153,16.479096 118.296136,16.5875706 118.056542,16.6553672 C117.184181,16.8813559 116.271232,16.6688814 115.39887,16.8813559 C114.680316,17.0350282 114.011345,17.4327232 113.554802,18.0067797 C113.016994,18.675661 112.732203,19.507209 112.574011,20.3389831 C112.452023,21.080226 112.298305,21.8214237 112.176271,22.5671864 C112.122034,22.7344633 112.090441,22.9152542 112.058757,23.0915706 C112.912904,23.1051751 113.767232,23.0915706 114.621469,23.100565 C114.946802,23.0915706 115.272226,23.1095593 115.59774,23.0869605 C115.778531,23.5028249 115.737853,23.9729266 115.679096,24.4112994 C115.60678,24.9039548 115.489266,25.3920452 115.267797,25.8440226 C115.082395,26.2282034 114.775141,26.580791 114.354802,26.7163842 C114.137853,26.8022599 113.902825,26.7841808 113.672316,26.7841808 C112.912904,26.7841808 112.153582,26.7931751 111.39435,26.7841808 C111.272316,27.3401582 111.19096,27.9096045 111.082486,28.4745763 C110.883706,29.5728362 110.689311,30.675661 110.490395,31.7785311 C110.485876,31.8147345 110.481356,31.8915254 110.481356,31.9322034 L110.481356,31.9367232 C108.506215,31.9367232 106.535593,31.9413333 104.560452,31.9367232 C104.565017,31.9187345 104.569492,31.8870056 104.574011,31.8689266 C104.578621,31.8463277 104.583051,31.7966102 104.587616,31.7695367 C104.592181,31.8057401 104.59661,31.8735367 104.60122,31.9051299 C104.723209,31.9187345 104.944723,31.9819209 104.976362,31.8057401 C105.283706,30.1424181 105.568452,28.4701017 105.884836,26.8067797 C105.762847,26.779661 105.636249,26.779661 105.509695,26.8022599 C105.491706,26.8655367 105.473537,26.9287684 105.450938,26.9920452 L105.478056,26.7886554 C104.248768,26.7840452 103.01478,26.7886554 101.785492,26.7840452 C101.487096,26.7751412 101.179842,26.7840452 100.881537,26.7479322 C100.370802,26.7253333 99.855548,26.7434124 99.3448136,26.6936497 C98.7120452,26.6936497 98.0837966,26.6349379 97.4510282,26.6349379 C96.9538531,26.5852203 96.4521582,26.6032542 95.9504633,26.5806554 C95.6251299,26.5400678 95.2905763,26.5580565 94.9607232,26.5445424 C94.4228701,26.4857401 93.8759774,26.5265537 93.3381243,26.467661 C92.7686328,26.4722712 92.1991412,26.4224633 91.6296497,26.4089492 C91.6341695,26.4044294 91.6386893,26.3863503 91.6386893,26.3818305 C91.8285198,26.3863503 92.0138305,26.3727458 92.203661,26.368226 C92.624,26.3140339 93.0488588,26.3501469 93.4691977,26.291435 C93.9076158,26.291435 94.3415141,26.2326328 94.7799322,26.2326328 C95.1686328,26.1784407 95.5618531,26.2100339 95.9504633,26.1558418 C96.4070508,26.1558418 96.8544181,26.0970395 97.3110056,26.092565 C97.6861469,26.0428475 98.0658079,26.0699661 98.4409492,26.0202486 C98.8793672,26.0247684 99.3132655,25.9569718 99.7516836,25.9614463 C100.181062,25.9116384 100.61939,25.9252429 101.048768,25.8800452 C101.008181,25.7128588 100.976452,25.5456723 100.940384,25.3783503 C100.908746,25.2743503 100.782192,25.2969492 100.700836,25.283435 C99.7200452,25.1432316 98.743774,25.0031638 97.7675028,24.8675706 C97.8307797,24.8177627 97.9166554,24.8403616 97.9889718,24.8314576 C98.7482938,24.772565 99.503096,24.7047684 100.262418,24.6506667 C100.434169,24.6415819 100.601401,24.6099887 100.773153,24.6054689 C100.696316,24.3703955 100.651119,24.1128136 100.547164,23.8958192 C98.9246554,23.6472316 97.3019661,23.4257627 95.683887,23.1591412 C96.104226,23.0913446 96.5290847,23.059661 96.9494237,23.0144633 C98.7573333,23.0144633 100.565243,23.0280678 102.373153,23.0189831 C102.585492,23.0054689 102.793492,23.0551864 103.005921,23.0461921 C104.000271,23.0551864 104.994621,23.0597966 105.988972,23.0641808 C106.21496,23.0641808 106.445469,23.0777853 106.671458,23.0551864 C106.811571,22.1512316 106.987842,21.2562712 107.141514,20.3569266 C107.462418,18.68 108.126825,17.0348927 109.256768,15.7377627 C109.889537,14.9783955 110.671458,14.3456271 111.539254,13.8665311 C112.040678,13.5774011 112.59209,13.3830508 113.143503,13.2158192 Z" id="Shape" stroke="#107BD4" stroke-width="0.094" fill="#107BD4" fill-rule="nonzero"></path>
                    <path d="M112.176271,22.5671864 C113.035028,22.5741011 113.898395,22.5604074 114.761582,22.5741011 C115.105085,22.5741011 115.457627,22.858755 115.59774,23.3467814 C115.272316,23.3806768 114.946893,23.3536961 114.621469,23.3671864 C113.767232,23.3536961 112.912904,23.3741011 112.058757,23.3536961 C112.090395,23.0892439 112.121944,22.8180804 112.176271,22.5671864 Z M105.509605,26.8022599 C105.636158,26.779661 105.762802,26.779661 105.884746,26.8067797 C105.568362,28.4701017 105.283616,30.1424181 104.976271,31.8057401 C104.944633,31.9819209 104.723119,31.9187345 104.60113,31.9051299 C104.59652,31.8735367 104.59209,31.8057401 104.587571,31.7695367 C104.872316,30.1786215 105.147932,28.583096 105.450847,26.9921808 C105.473446,26.9287684 105.491525,26.8655819 105.509605,26.8022599 Z" id="Shape" stroke="#0D69B3" stroke-width="0.094" fill="#0D69B3" fill-rule="nonzero"></path>
                    <path d="M112.571571,6.98512994 C112.535412,6.91733333 112.530938,6.8359774 112.530938,6.75914124 L112.494734,6.76366102 C112.440542,6.56479096 112.273356,6.37496045 112.056362,6.3659209 C111.893605,6.35236158 111.690215,6.35688136 111.59539,6.51055367 C111.414599,6.75462147 111.500384,7.06648588 111.49139,7.34219209 C111.49139,7.36027119 111.495955,7.3919096 111.495955,7.4099887 C111.495955,7.59529944 111.473356,7.7760904 111.441718,7.95688136 C111.414599,8.01111864 111.401085,8.06987571 111.401085,8.13315254 C111.324294,8.5580113 111.170531,8.97835028 110.962712,9.36253107 C110.922034,9.41676836 110.890305,9.47552542 110.876836,9.53880226 C110.741243,9.77383051 110.578531,9.99077966 110.411299,10.2077288 C110.384136,10.2303277 110.361537,10.2574463 110.338938,10.284565 C110.221379,10.4291977 110.094915,10.5512316 109.963751,10.6777853 C109.932158,10.6958644 109.909559,10.7184633 109.882395,10.7365424 C109.728768,10.8856949 109.556972,11.0258079 109.371661,11.1388023 C109.349062,11.1523616 109.326463,11.1704407 109.299299,11.1885198 C108.142192,11.9523616 106.736633,12.2687458 105.367096,12.2823051 C104.205559,12.3184633 103.034847,12.0698757 101.98626,11.5681808 C101.968271,11.5591412 101.923073,11.5410621 101.904904,11.5320226 C101.728678,11.4371073 101.547887,11.3557514 101.38513,11.2382373 C101.348972,11.2201582 101.312814,11.1975593 101.272136,11.1794802 C101.104904,11.0800452 100.946712,10.9715706 100.797559,10.8450169 C100.747842,10.7998192 100.693605,10.763661 100.639367,10.7229831 C100.476655,10.5919096 100.309424,10.4517966 100.169401,10.2936045 C100.133243,10.2529266 100.096994,10.2167684 100.060927,10.1806102 C99.5683616,9.66987571 99.1841808,9.04614689 98.980791,8.36818079 C98.7863503,7.83032768 98.8135593,7.24275706 98.7909605,6.67778531 C98.6281582,6.42919774 98.2847458,6.28908475 98.0135593,6.44275706 C97.900565,6.52411299 97.8870056,6.67326554 97.8011299,6.77722034 C97.6610169,8.26874576 98.2983051,9.75575141 99.3152542,10.8314576 C99.3152542,10.8676158 99.3333333,10.8902147 99.3650621,10.903774 C99.5458531,11.0710056 99.7220339,11.2427571 99.9028249,11.4054689 C99.9344633,11.4371073 99.9706215,11.4687458 100.011299,11.4958644 C100.19209,11.6450169 100.386441,11.7806102 100.576271,11.9207232 C100.612429,11.9478418 100.648588,11.9704407 100.689266,11.9930395 C100.937853,12.1376723 101.172791,12.3094237 101.439548,12.4088588 C101.457627,12.4224181 101.489266,12.4450169 101.507345,12.4540565 C102.366102,12.8653559 103.292655,13.1455819 104.241808,13.2359774 C104.345763,13.2359774 104.449718,13.2450169 104.553672,13.2676158 C105.00565,13.2947345 105.457627,13.2811751 105.909605,13.2721356 C107.306124,13.1501017 108.748023,12.8111186 109.914124,11.9885198 L109.927684,12.0065989 C109.963842,11.9749605 109.99548,11.9478418 110.031638,11.9207232 C110.21704,11.7851299 110.397831,11.6404972 110.578621,11.4913446 C110.619209,11.4597062 110.664407,11.423548 110.705175,11.3828701 C110.904,11.1659209 111.134554,10.9670508 111.301785,10.7184633 L111.328904,10.7320226 C111.342463,10.7094237 111.365062,10.664226 111.378712,10.6416271 C111.532294,10.4337175 111.672497,10.2167684 111.80809,9.99981921 C111.81704,9.98625989 111.839638,9.96366102 111.848678,9.95010169 L111.830689,9.9320226 C111.844249,9.9139435 111.875887,9.87778531 111.889446,9.85970621 C112.138034,9.35349153 112.359412,8.82467797 112.436339,8.26422599 C112.467977,8.25066667 112.486102,8.22354802 112.486102,8.1919096 C112.490667,8.01111864 112.553898,7.83936723 112.535864,7.65857627 C112.576045,7.43710734 112.58061,7.21111864 112.571571,6.98512994 Z" id="Shape" stroke="#FFFFFF" stroke-width="0.094" fill="#FFFFFF" fill-rule="nonzero"></path>
                    <g id="Clipped" transform="translate(97.762712, 6.327684)">
                        <mask id="mask-6" fill="white">
                            <use xlink:href="#path-5"></use>
                        </mask>
                        <g id="e"></g>
                        <g id="Group" mask="url(#mask-6)" stroke="#D1D1D1" stroke-width="2">
                            <g transform="translate(-0.316384, -0.045198)" id="Shape">
                                <path d="M0.0075480226,0.698833425 C0.373920904,1.49480299 1.21563842,-0.507797593 1.45387571,1.32484173 M0.218485876,2.17137669 C0.569581921,1.83830473 1.32244068,1.04967709 1.63466667,1.51422806 M0.580067797,2.96827562 C0.749785311,3.04043404 1.08433898,2.64896278 1.25053107,2.53425702 C1.49776271,2.36353354 1.75141243,2.23268707 2.02639548,2.17708475 M1.12244068,3.95484746 C1.29749153,3.7060791 1.50702825,3.49948023 1.7599096,3.32275706 C2.01057627,3.14766102 2.69631638,2.67981921 2.99059887,2.8399548 M1.63466667,4.79855367 C1.83335593,4.64058757 1.91425989,4.36117514 2.12289266,4.19520904 C2.37527684,3.99444068 2.7619435,3.95841808 3.02074576,3.83430508 M2.48587571,5.42372881 C2.54531073,4.98675706 2.98901695,4.45943503 3.41242938,4.49717514 M3.14124294,6.0339435 C3.36497175,6.01152542 3.55425989,5.51073446 3.70553672,5.34101695 C3.93224859,5.08677966 4.16709605,5.00858757 4.46698305,4.91905085 M4.43695238,6.57631638 C4.42026859,6.26011299 4.79716584,5.35349153 5.23641876,5.40117514 M5.40136616,6.87764972 C5.3813375,6.5039548 5.62527629,5.3799322 6.20023003,5.34092655 M6.44563733,7.48027119 C6.26178264,6.95769492 6.27371251,6.20171751 7.15103898,5.82300565 M8.2075163,7.60081356 C8.04290997,7.16519774 6.49282662,6.28461017 8.2075163,5.94354802 M9.48762461,7.29948023 C8.87314003,7.05988701 8.5159003,6.11480226 8.77072593,5.85315254 M10.5934283,7.08854237 C10.2960763,6.79914124 9.92754865,6.52736723 9.81488208,6.19141243 C9.74758573,5.99064407 9.86556517,5.70463277 9.80628029,5.55181921 M11.7019793,6.63656497 C10.964167,6.41044068 10.7593853,5.57934463 10.9945515,5.22038418 M12.5890169,6.18458757 C12.2050395,5.65708475 11.7955813,5.2480904 11.7890169,4.64786441 M13.2956384,5.22038418 C12.9135367,4.96334463 12.4259435,4.4960904 12.4820791,3.98499435 M14.3502825,4.40682486 C13.7697175,4.27819209 13.0729944,3.75873446 12.7231638,3.2919322 M14.8323616,3.41247458 C14.4135593,3.32266667 13.0297401,2.78277966 13.1148475,2.23733333 M15.284339,2.35787571 C14.7008362,2.1439548 13.8519322,1.95163842 13.3860339,1.54431638 M15.5856271,1.67562741 C15.2180791,1.72440216 14.6915254,1.44850249 14.3179661,1.34857033 C13.9031412,1.23763582 13.5185085,1.02088253 13.1148475,0.881355932 M15.2240452,0.82860175 C14.5151186,0.908170922 13.8499435,0.453380993 13.2052429,0.037740113"></path>
                            </g>
                        </g>
                    </g>
                    <g id="Group" transform="translate(0.000000, 8.813559)" fill="#107BD4" fill-rule="nonzero" stroke="#107BD4" stroke-width="0.101">
                        <path d="M21.9604972,0.101694915 C22.615548,0.00284745763 23.3693107,-0.0589378531 23.9253785,0.348836158 C24.2713672,0.608271186 24.3949379,1.07783051 24.3702147,1.4980791 C24.3949379,2.1900565 24.0736723,2.93152542 23.4559096,3.2899435 C22.9120904,3.58653107 22.2572203,3.61111864 21.6516158,3.54937853 C21.2438418,3.5000226 20.8360678,3.27764972 20.6259887,2.90689266 C20.1562938,1.83177401 20.7371299,0.311774011 21.9604972,0.101694915 Z M2.36144633,0.880225989 C2.39846328,0.509468927 2.73215819,0.175819209 3.11520904,0.188248588 C5.96989831,0.188248588 8.81211299,0.200542373 11.6543729,0.188248588 C11.9632994,0.163525424 12.2969944,0.299389831 12.4451977,0.571254237 C12.6552316,0.942011299 12.4699209,1.34978531 12.4451977,1.73292655 C12.3587797,2.25184181 12.3834124,2.9439548 11.7779887,3.14160452 C9.70187571,3.20338983 7.62576271,3.14160452 5.54964972,3.16632768 C5.3519548,4.47615819 5.16659887,5.77369492 4.96881356,7.07123164 C4.96881356,7.12067797 4.98124294,7.232 4.98124294,7.28126554 C6.50119774,7.26897175 8.02115254,7.28126554 9.54110734,7.26897175 C9.96131073,7.24424859 10.4061017,7.60275706 10.3690395,8.04750282 C10.3320226,8.50476836 10.2331299,8.94960452 10.1713898,9.40687006 C10.1218531,9.71575141 9.87475706,10 9.55344633,10.0617853 C7.86042938,10.0988475 6.14268927,10.0247232 4.44985311,10.0988475 C4.17789831,11.9648362 3.85658757,13.8307345 3.57233898,15.6968136 C3.53536723,16.0675706 3.23868927,16.3888362 2.8679774,16.4010847 C2.16367065,16.4135141 1.4591994,16.4135141 0.754892655,16.4010847 C0.297672316,16.4135141 -0.0730847458,15.9067119 0.050440678,15.4742599 C0.804474576,10.6056045 1.58296045,5.74915254 2.36144633,0.880225989 Z M14.9166554,0.212836158 C15.559322,0.163480226 16.2141921,0.200542373 16.8568588,0.188248588 C17.252339,0.163525424 17.647774,0.47240678 17.6847458,0.880225989 C17.6847458,1.20144633 17.5982373,1.52280226 17.5612203,1.8440678 C17.0421695,5.1559322 16.5108249,8.46779661 15.9917288,11.7796158 C15.9176045,12.3109605 15.7816949,12.8793672 15.9423729,13.4231412 C16.1277288,13.9668249 16.9555706,13.7320226 17.1533559,14.3004294 C17.2769266,14.7576949 17.1409266,15.2395932 17.1038644,15.7092429 C17.0668475,16.327096 16.3624407,16.4629605 15.8805876,16.599096 C14.8302373,16.7967458 13.5572881,16.648452 12.8034802,15.783322 C12.2597514,15.1532203 12.2226441,14.2633672 12.3339661,13.4725876 C12.9888814,9.27105085 13.6437966,5.06951412 14.3111864,0.855502825 C14.3482938,0.546531073 14.5953898,0.262327684 14.9166554,0.212836158 Z M39.4464181,0.880225989 C39.4833898,0.509468927 39.8171299,0.188248588 40.1878418,0.188248588 L42.0662147,0.188248588 C42.535774,0.175819209 42.9189605,0.682531073 42.8076836,1.12732203 C42.3751864,3.87073446 41.9303503,6.61414689 41.4978531,9.35737853 C42.1527684,9.25857627 42.8942825,9.13500565 43.3515028,8.60366102 C44.1175593,7.73853107 44.7479322,6.73776271 45.2174463,5.68736723 C45.3780339,5.27950282 45.4645876,4.68637288 45.9959774,4.61220339 C46.7003842,4.58748023 47.4170395,4.59981921 48.1214463,4.61220339 C48.603435,4.59981921 48.9617627,5.14354802 48.8011299,5.58838418 C48.615774,6.24348023 48.3068475,6.84890395 47.9855819,7.42974011 C47.268791,8.59136723 46.4780113,9.74056497 45.4398644,10.6550056 C45.8970847,12.0266667 46.4779661,13.3613107 46.9845876,14.708339 C47.1328362,15.1531751 47.4913446,15.6721356 47.1576045,16.1047684 C46.7744181,16.6237288 46.0577175,16.364113 45.5263729,16.4258983 C44.9702599,16.364113 44.1670508,16.6483616 43.8580791,16.0181695 C43.2772429,14.6711412 42.7953898,13.2872316 42.2021243,11.9402034 C41.8561356,11.952452 41.4978079,11.9649266 41.1517288,11.9278644 C41.1271412,11.9773107 41.0776497,12.0760678 41.0528814,12.1256045 C40.8674802,13.3613107 40.6698305,14.5971073 40.4720452,15.8327684 C40.3978757,16.1293559 40.1630734,16.3889266 39.8418531,16.4136497 C39.1869379,16.4383729 38.5195932,16.4258983 37.8522938,16.4258983 C37.568,16.4258983 37.308565,16.2405876 37.1849492,15.9934463 C37.0613785,15.7461695 37.1354576,15.4621017 37.1727006,15.1902373 C37.9387571,10.4202034 38.692565,5.65016949 39.4464181,0.880225989 Z M73.7880226,2.22720904 C73.8745763,1.88108475 74.2081356,1.64637288 74.5542599,1.65866667 C75.0485876,1.67109605 75.555209,1.64637288 76.0617853,1.67109605 C76.4696497,1.68338983 76.7909153,2.09120904 76.7414237,2.48664407 C76.6672994,3.19105085 76.4942373,3.89545763 76.4448814,4.59972881 C76.9267797,4.59972881 77.4210621,4.58743503 77.9030508,4.59972881 C78.3355932,4.59972881 78.6940113,5.04465537 78.6197966,5.46472316 C78.5579661,5.8479548 78.4714576,6.21871186 78.4096723,6.60162712 C78.347887,6.92302825 78.076113,7.18250847 77.7671864,7.2319096 C77.1739661,7.26897175 76.5932203,7.20718644 76.0123842,7.26897175 C75.7652429,8.92479096 75.4933785,10.5806554 75.2338531,12.2367458 C75.1967006,12.6197966 75.1720678,13.0522486 75.3944859,13.3859435 C75.7281808,13.7937627 76.3088814,13.6453785 76.7785763,13.6949153 C77.1492881,13.8060565 77.3840452,14.2139661 77.3222147,14.5847684 C77.2604294,15.004791 77.2480904,15.4249944 77.1492881,15.8327232 C77.0009944,16.2898983 76.4696045,16.3764972 76.0617401,16.4876384 C74.9372203,16.7843164 73.6396836,16.7843164 72.6388249,16.1293107 C71.7120452,15.4990282 71.563661,14.275661 71.6625085,13.2376045 C71.9219435,11.235661 72.3298983,9.24614689 72.5522712,7.23186441 C72.2062825,7.24415819 71.7860791,7.29364972 71.5266441,6.98467797 C71.2300565,6.67579661 71.3783503,6.21853107 71.4277514,5.83534463 C71.5019661,5.42757062 71.4895367,4.89622599 71.9344633,4.67376271 C72.2927458,4.53776271 72.7006554,4.63674576 73.0837062,4.58725424 C73.3184633,3.79651977 73.5408814,3.00569492 73.7880226,2.22720904 Z M66.8060113,6.23096045 C67.5845424,5.45242938 68.523661,4.80985311 69.5987797,4.48863277 C70.068339,4.27850847 70.6738983,4.6739887 70.6616045,5.19299435 C70.575096,5.87267797 70.4144181,6.53988701 70.3031864,7.20718644 C70.2536497,7.54088136 69.9694915,7.82512994 69.6357966,7.86219209 C68.4247684,8.07218079 67.3744181,8.80117514 66.5341017,9.66630508 C66.3240678,9.9259209 66.015096,10.1730169 65.9780339,10.5313446 C65.7185989,12.2613785 65.4466893,13.9914576 65.1748249,15.7214915 C65.1378079,16.0921582 64.8163616,16.4506667 64.4333559,16.4259435 L62.5549379,16.4259435 C62.1224859,16.4506667 61.739435,16.0182147 61.7888362,15.5856271 C62.332565,12.1625311 62.8763842,8.7519548 63.4076836,5.32881356 C63.4324068,4.98287006 63.6795932,4.64922034 64.0378757,4.61211299 C64.4951412,4.58738983 64.9523164,4.59972881 65.4219661,4.59972881 C65.792678,4.59972881 66.1386215,4.93337853 66.1386215,5.31651977 C66.1386215,5.84786441 66.0892655,6.39154802 66.0768814,6.93527684 C66.3735141,6.7500565 66.5588701,6.45342373 66.8060113,6.23096045 Z M20.6135141,4.66155932 C21.2808136,4.52569492 21.9728362,4.63692655 22.6401356,4.59977401 C23.0232768,4.55041808 23.4310508,4.79751412 23.492791,5.18065537 C23.5423277,5.52659887 23.4432994,5.86029379 23.4062373,6.1939887 C22.899661,9.3699435 22.392904,12.5457627 21.8986215,15.7216271 C21.8615593,16.0801356 21.5651073,16.4384181 21.1819209,16.4259887 C20.5146667,16.4259887 19.847322,16.4384181 19.1677288,16.4137401 C18.7475254,16.3642034 18.4385537,15.8823955 18.5498305,15.4744859 C19.0812203,12.1751412 19.5879322,8.8879548 20.1192768,5.58842938 C20.144,5.2300565 20.2428475,4.80985311 20.6135141,4.66155932 Z M60.6024859,4.82232768 C58.7611751,4.47620339 56.8829379,4.22906215 55.0168588,4.41441808 C53.3486102,4.62454237 51.6679774,5.37839548 50.6423955,6.7500565 C49.2212429,8.55421469 48.7392542,10.9763616 49.0604746,13.2254915 C49.2335819,14.3005198 49.703096,15.3880226 50.580565,16.0552768 C51.396113,16.6855593 52.4959548,16.7719774 53.4846102,16.6113446 C54.8685198,16.339435 56.0424859,15.4498983 57.0064633,14.4611977 C57.0558192,14.8813107 56.9569718,15.3015141 56.9817401,15.7093333 C57.0064633,16.0922938 57.352452,16.4506667 57.7355028,16.4259435 L58.9960678,16.4259435 C59.3667797,16.4259435 59.6757514,16.0800904 59.7004746,15.7215819 C60.2318192,12.3727006 60.7631638,9.03611299 61.2822147,5.69966102 C61.3562486,5.27945763 61.0227345,4.87168362 60.6024859,4.82232768 Z M57.1301243,10.6426667 C56.6357514,11.5694915 55.9436836,12.4098079 55.1651525,13.1264181 C54.7203616,13.4971751 54.1518192,13.8803164 53.5464407,13.756791 C52.9532203,13.6332203 52.6689718,13.0153672 52.5331073,12.4839322 C52.2241808,11.0999322 52.5083842,9.59222599 53.2868249,8.39362712 C53.6328588,7.83742373 54.1889266,7.41735593 54.831548,7.24429379 C55.7336045,7.02183051 56.6852429,7.13306215 57.5626667,7.38020339 L57.6120226,7.42974011 C57.5008362,8.50476836 57.2907119,9.56754802 57.1301243,10.6426667 Z M36.3447232,8.78906215 C36.3322938,7.55326554 35.9986893,6.25577401 35.1336949,5.32890395 C34.540565,4.6739887 33.6507571,4.34033898 32.7857627,4.35258757 C31.352226,4.30327684 30.0052881,5.00768362 28.9549379,5.94675706 C28.7200452,6.13220339 28.5594576,6.4040678 28.3000226,6.55231638 C28.3000226,6.14440678 28.3370395,5.73667797 28.3246102,5.31656497 C28.3370395,4.93337853 27.9786215,4.59977401 27.6079096,4.59977401 L26.3473898,4.59977401 C25.9520452,4.59977401 25.6306893,4.94585311 25.6059661,5.32885876 C24.827435,10.2719096 24.0366554,15.2149153 23.2580791,20.1579661 C23.1469379,20.6151412 23.5424181,21.084791 24.0119774,21.0724068 C24.7039548,21.0600678 25.4083616,21.1218531 26.088,21.0228701 C26.631774,20.8745763 26.6193446,20.244339 26.7058983,19.7871638 C26.903548,18.699661 27.0395932,17.6122034 27.1631186,16.5123616 C29.5975593,16.9819209 32.427435,16.6607458 34.2439774,14.8193898 C35.7268249,13.200678 36.4188023,10.9639322 36.3447232,8.78906215 Z M32.8846102,10.0371073 C32.8105311,11.1740113 32.4026667,12.3232994 31.6118418,13.1511412 C30.5862147,14.1275028 29.0290169,13.9914576 27.7685876,13.6579435 C27.744,13.620791 27.7068023,13.5466215 27.6944633,13.5096497 C27.8921582,12.4345311 27.9910508,11.3470282 28.2382373,10.2842938 C28.9302599,9.14748023 29.7704859,7.99810169 30.9691751,7.3679548 C31.4140565,7.1579209 32.0195706,7.20732203 32.3408814,7.61514124 C32.8846102,8.29477966 32.9340565,9.20922034 32.8846102,10.0371073 Z" id="Shape"></path>
                    </g>
                </g>
            </g>
        </g>
    </g>
</svg>