<?xml version="1.0" encoding="UTF-8"?>
<svg width="371px" height="375px" viewBox="0 0 371 375" version="1.1" xmlns="http://www.w3.org/2000/svg" xmlns:xlink="http://www.w3.org/1999/xlink">
    <!-- Generator: Sketch 51.3 (57544) - http://www.bohemiancoding.com/sketch -->
    <title>Group</title>
    <desc>Created with Sketch.</desc>
    <defs></defs>
    <g id="Final" stroke="none" stroke-width="1" fill="none" fill-rule="evenodd">
        <g id="code" transform="translate(-215.000000, -133.000000)">
            <g id="Group" transform="translate(211.000000, 133.000000)">
                <g id="See-entire-menu-+-Rectangle-32" transform="translate(107.000000, 330.000000)">
                    <rect id="Rectangle-32" stroke="#4A90E2" fill="#FFFFFF" x="0.5" y="0.5" width="163" height="44" rx="3"></rect>
                    <text id="Go-Back" font-family="Lato-Bold, Lato" font-size="16" font-weight="bold" fill="#4A90E2">
                        <tspan x="51" y="28">Go Back</tspan>
                    </text>
                </g>
                <text id="It-seems-you’ve-ende" font-family="Lato-Light, Lato" font-size="20" font-weight="300" fill="#000000">
                    <tspan x="2.385" y="278">It seems you’ve ended up at the wrong table. </tspan>
                </text>
                <text id="Page-Not-Found" font-family="Lato-Regular, Lato" font-size="18" font-weight="normal" fill="#000000">
                    <tspan x="126.887" y="214">Page Not Found</tspan>
                </text>
                <g transform="translate(18.000000, 0.000000)">
                    <g transform="translate(253.000000, 13.000000)"></g>
                    <ellipse id="ovalRight" fill="#D3D2D2" opacity="0.41901819" cx="301" cy="120.5" rx="38" ry="3.5"></ellipse>
                    <g transform="translate(79.000000, 13.000000)"></g>
                    <g id="ghostRight" transform="translate(249.000000, 0.000000)">
                        <path d="M51.8547523,0.85727358 C32.9579933,0.85727358 20.2630747,12.6477284 18.148939,33.1672224 C18.1431118,33.2237797 14.7921465,72.9768652 14.7921465,72.9768652 L11.9949388,96.4477357 C11.7985846,98.0953084 12.8024955,98.7532857 14.2333288,97.9196458 L20.1090792,94.4962842 C21.5416621,93.661625 23.675109,93.9111995 24.874544,95.0539893 L26.841456,96.9280107 C28.0407666,98.0706819 29.9805838,98.0536873 31.1574763,96.9063161 L32.8085237,95.2966839 C33.9928852,94.1420311 35.9086926,94.1493127 37.0877183,95.3130656 L38.6852817,96.8899344 C39.864254,98.0536346 41.7698285,98.0536873 42.9416197,96.8899344 L44.5293803,95.3130656 C45.7011185,94.1493654 47.5972448,94.1493127 48.781072,95.3294716 L50.329928,96.8735284 C51.5063343,98.0462894 53.4054304,98.0536873 54.5882385,96.8735284 L56.1357615,95.3294716 C57.3111551,94.1567106 59.2210915,94.1622659 60.3893051,95.3294716 L61.9346949,96.8735284 C63.1084685,98.0462894 65.0169264,98.0407341 66.1849384,96.8735284 L67.7300616,95.3294716 C68.9036327,94.1567106 70.8117613,94.1622659 71.9795717,95.3294716 L73.5244283,96.8735284 C74.6977969,98.0462894 76.5595713,98.0152445 77.6829314,96.8040654 L79.2050686,95.1629346 C80.3283779,93.9518103 82.3876207,93.6842799 83.7898795,94.5562869 L90.4441326,98.6942928 C91.8529444,99.5703749 92.856139,98.9421927 92.6863608,97.3059589 L90.6340751,77.5270948 L86.0519035,33.1672215 C83.5749519,12.3681407 70.7515114,0.85727358 51.8547523,0.85727358 Z" id="Shape" fill="#DBDBDB"></path>
                        <path d="M12.25,13 C11.8375,13 11.5,13.33075 11.5,13.735 L11.5,24.515 C11.5,24.91925 11.275,25.25 11,25.25 C10.725,25.25 10.5,24.91925 10.5,24.515 L10.5,13.735 C10.5,13.33075 10.1625,13 9.75,13 C9.3375,13 9,13.33075 9,13.735 L9,24.515 C9,24.91925 8.775,25.25 8.5,25.25 C8.225,25.25 8,24.91925 8,24.515 L8,13.735 C8,13.33075 7.6625,13 7.25,13 C6.8375,13 6.5,13.33075 6.5,13.735 L6.5,24.515 C6.5,24.91925 6.275,25.25 6,25.25 C5.725,25.25 5.5,24.91925 5.5,24.515 L5.5,13.735 C5.5,13.33075 5.1625,13 4.75,13 C4.3375,13 4,13.33075 4,13.735 L4,24.27 C4,28.40462 4.696,31.07757 6.5,32.11196 L6.5,60.04 C6.5,61.118 7.4,62 8.5,62 C9.6,62 10.5,61.118 10.5,60.04 L10.5,32.11196 C12.304,31.07757 13,28.40462 13,24.27 L13,13.735 C13,13.33075 12.6625,13 12.25,13 L12.25,13 Z" id="Shape" fill="#4A4A4A"></path>
                        <path d="M33,62.8497787 C22.8281807,63.4790128 10.1021703,47.1744284 10.1021703,47.1744284 C4.50856763,41.0680361 1.71863362,42.5927697 4.1010026,50.5444252 C4.1010026,50.5444252 9.81389813,75.7166457 18.6539967,78.5178467" id="Line" stroke="#D3D2D2" fill="#DBDBDB" stroke-linecap="square" transform="translate(18.000000, 60.758923) rotate(-10.000000) translate(-18.000000, -60.758923) "></path>
                        <path d="M29.682,42.653973 C25.540848,42.653973 22.182,39.2960981 22.182,35.153973 C22.182,31.0108749 25.540848,27.653 29.682,27.653 C33.8250981,27.653 37.182,31.0108749 37.182,35.153973 C37.182,39.2960981 33.8241251,42.653973 29.682,42.653973 L29.682,42.653973 Z" id="Path" fill="#FFFFFF"></path>
                        <path d="M45.230973,42.6568921 C41.0878749,42.6568921 37.73,39.2983638 37.73,35.1554327 C37.73,31.0115284 41.0878749,27.653 45.230973,27.653 C49.3721251,27.653 52.73,31.0115284 52.73,35.1554327 C52.73,39.2983638 49.3721251,42.6568921 45.230973,42.6568921 L45.230973,42.6568921 Z" id="Path" fill="#FFFFFF"></path>
                        <path d="M45,37.3287268 C45,34.9377917 46.9374147,33 49.3278846,33 C51.7172318,33 53.6546465,34.9377917 53.6546465,37.3287268 C53.6546465,39.7191004 51.7172318,41.6568921 49.3278846,41.6568921 C46.9374147,41.6568921 45,39.7191004 45,37.3287268 Z" id="Path" fill="#4A4A4A"></path>
                        <path d="M33.3278846,41.6568921 C30.9374147,41.6568921 29,39.7191004 29,37.3287268 C29,34.9377917 30.9374147,33 33.3278846,33 C35.7172318,33 37.6546465,34.9377917 37.6546465,37.3287268 C37.6546465,39.7191004 35.7172318,41.6568921 33.3278846,41.6568921 L33.3278846,41.6568921 Z" id="Path" fill="#4A4A4A"></path>
                    </g>
                    <g id="ghostLeft" transform="translate(47.000000, 50.000000) scale(-1, 1) translate(-47.000000, -50.000000) ">
                        <path d="M52.8547523,0.85727358 C33.9579933,0.85727358 21.2630747,12.6477284 19.148939,33.1672224 C19.1431118,33.2237797 15.7921465,72.9768652 15.7921465,72.9768652 L12.9949388,96.4477357 C12.7985846,98.0953084 13.8024955,98.7532857 15.2333288,97.9196458 L21.1090792,94.4962842 C22.5416621,93.661625 24.675109,93.9111995 25.874544,95.0539893 L27.841456,96.9280107 C29.0407666,98.0706819 30.9805838,98.0536873 32.1574763,96.9063161 L33.8085237,95.2966839 C34.9928852,94.1420311 36.9086926,94.1493127 38.0877183,95.3130656 L39.6852817,96.8899344 C40.864254,98.0536346 42.7698285,98.0536873 43.9416197,96.8899344 L45.5293803,95.3130656 C46.7011185,94.1493654 48.5972448,94.1493127 49.781072,95.3294716 L51.329928,96.8735284 C52.5063343,98.0462894 54.4054304,98.0536873 55.5882385,96.8735284 L57.1357615,95.3294716 C58.3111551,94.1567106 60.2210915,94.1622659 61.3893051,95.3294716 L62.9346949,96.8735284 C64.1084685,98.0462894 66.0169264,98.0407341 67.1849384,96.8735284 L68.7300616,95.3294716 C69.9036327,94.1567106 71.8117613,94.1622659 72.9795717,95.3294716 L74.5244283,96.8735284 C75.6977969,98.0462894 77.5595713,98.0152445 78.6829314,96.8040654 L80.2050686,95.1629346 C81.3283779,93.9518103 83.3876207,93.6842799 84.7898795,94.5562869 L91.4441326,98.6942928 C92.8529444,99.5703749 93.856139,98.9421927 93.6863608,97.3059589 L91.6340751,77.5270948 L87.0519035,33.1672215 C84.5749519,12.3681407 71.7515114,0.85727358 52.8547523,0.85727358 Z" id="Shape" fill="#DBDBDB"></path>
                        <path d="M8,13 C4.6855,13 2,18.373 2,25 C2,30.2245 3.6695,34.667 6,36.3145 L6,61 C6,62.1 6.9,63 8,63 C9.1,63 10,62.1 10,61 L10,15 C10,13.9 9.1,13 8,13 L8,13 Z" id="Shape" fill="#4A4A4A"></path>
                        <path d="M33,62.8497787 C22.8281807,63.4790128 10.1021703,47.1744284 10.1021703,47.1744284 C4.50856763,41.0680361 1.71863362,42.5927697 4.1010026,50.5444252 C4.1010026,50.5444252 9.81389813,75.7166457 18.6539967,78.5178467" id="Line" stroke="#D3D2D2" fill="#DBDBDB" stroke-linecap="square" transform="translate(18.000000, 60.758923) rotate(-10.000000) translate(-18.000000, -60.758923) "></path>
                        <path d="M30.682,42.653973 C26.540848,42.653973 23.182,39.2960981 23.182,35.153973 C23.182,31.0108749 26.540848,27.653 30.682,27.653 C34.8250981,27.653 38.182,31.0108749 38.182,35.153973 C38.182,39.2960981 34.8241251,42.653973 30.682,42.653973 L30.682,42.653973 Z" id="Path" fill="#FFFFFF"></path>
                        <path d="M46.230973,42.6568921 C42.0878749,42.6568921 38.73,39.2983638 38.73,35.1554327 C38.73,31.0115284 42.0878749,27.653 46.230973,27.653 C50.3721251,27.653 53.73,31.0115284 53.73,35.1554327 C53.73,39.2983638 50.3721251,42.6568921 46.230973,42.6568921 L46.230973,42.6568921 Z" id="Path" fill="#FFFFFF"></path>
                        <path d="M46.3453535,37.3287268 C46.3453535,34.9377917 48.2827682,33 50.6732382,33 C53.0625853,33 55,34.9377917 55,37.3287268 C55,39.7191004 53.0625853,41.6568921 50.6732382,41.6568921 C48.2827682,41.6568921 46.3453535,39.7191004 46.3453535,37.3287268 Z" id="Path" fill="#4A4A4A"></path>
                        <path d="M34.6732382,41.6568921 C32.2827682,41.6568921 30.3453535,39.7191004 30.3453535,37.3287268 C30.3453535,34.9377917 32.2827682,33 34.6732382,33 C37.0625853,33 39,34.9377917 39,37.3287268 C39,39.7191004 37.0625853,41.6568921 34.6732382,41.6568921 L34.6732382,41.6568921 Z" id="Path" fill="#4A4A4A"></path>
                    </g>
                    <ellipse id="ovalLeft" fill="#D3D2D2" opacity="0.41901819" transform="translate(43.000000, 120.500000) scale(-1, 1) translate(-43.000000, -120.500000) " cx="43" cy="120.5" rx="38" ry="3.5"></ellipse>
                    <g id="table" transform="translate(101.000000, 7.000000)">
                        <path d="M0,71.9900668 C0,69.234129 2.24850363,67 4.99122821,67 L140.008772,67 C142.765351,67 145,69.2370258 145,71.9900668 L145,136 L0,136 L0,71.9900668 Z" id="Rectangle-70" fill="#D8D8D8"></path>
                        <path d="M0,129 L0,138.956806 C0,140.61734 1.23143417,141.440461 2.76290263,140.790023 L11.3924736,137.124916 C12.9183826,136.476839 15.3678497,136.527926 16.8680856,137.241195 L24.0878515,140.673745 C25.5860395,141.38604 28.00746,141.376329 29.5016965,140.649402 L36.0031332,137.486537 C37.4949292,136.760798 39.907265,136.764994 41.4016576,137.501042 L47.7642965,140.634897 C49.2540232,141.368648 51.6682026,141.365543 53.142523,140.634897 L59.4661206,137.501042 C60.9467063,136.767292 63.3489234,136.770397 64.8322981,137.508313 L71.1028034,140.627626 C72.5858756,141.365392 74.9890738,141.365543 76.4711718,140.627626 L82.7362798,137.508313 C84.2180756,136.770547 86.6185836,136.770397 88.0986387,137.508313 L94.3551112,140.627626 C95.8348645,141.365392 98.2335099,141.365543 99.7279163,140.620342 L105.954096,137.515597 C107.441661,136.773808 109.846432,136.770397 111.340581,137.515597 L117.565686,140.620342 C119.052994,141.362131 121.436366,141.329867 122.899302,140.542787 L128.820401,137.357153 C130.278767,136.572531 132.686381,136.481956 134.200824,137.156123 L142.260183,140.743816 C143.773342,141.417412 145,140.624977 145,138.956805 L145,129 L0,129 Z" id="Shape" fill="#D8D8D8"></path>
                        <g id="Group" transform="translate(23.000000, 0.000000)">
                            <path d="M51.0126166,-1.18259975 C35.759977,-1.18259975 25.4220975,8.89111039 23.7156594,25.4535508 C23.7132291,25.4771388 46.8123753,39.739441 46.8123753,39.739441 L22.3190819,37.4935695 L18.8279814,75.3917157 C18.6758621,77.0430692 19.7199929,77.7015709 21.1474806,76.8698803 L24.8876582,74.6907577 C26.3208015,73.855772 28.4525659,74.1030459 29.657324,75.2509074 L30.4010202,75.9594813 C31.6020906,77.1038292 33.5344677,77.0968379 34.7205862,75.9404722 L35.2254237,75.4482981 C36.4099838,74.2934518 38.328576,74.3031666 39.5025449,75.4619281 L39.9735604,75.9268421 C41.1511891,77.0892161 43.0582822,77.0856037 44.238779,75.913205 L44.6794416,75.4755653 C45.857428,74.3056597 47.7612176,74.3031666 48.9372605,75.4755653 L49.3762604,75.913205 C50.5498024,77.0831106 52.4491723,77.0856037 53.6242029,75.913205 L54.062825,75.4755653 C55.2353569,74.3056597 57.1326012,74.3031666 58.3060122,75.4755653 L58.7440297,75.913205 C59.9149454,77.0831106 61.8107162,77.0856037 62.9839248,75.913205 L63.4218667,75.4755653 C64.5925804,74.3056597 66.4880241,74.3031666 67.6610302,75.4755653 L68.0988966,75.913205 C69.2694082,77.0831106 71.1313668,77.0470554 72.2630727,75.826878 L72.6855223,75.3714033 C73.8148216,74.1538207 75.8748874,73.878547 77.2731614,74.748076 L81.6763779,77.4862549 C83.0807617,78.3595834 84.0806554,77.7319521 83.9088236,76.0759269 L82.3135944,60.7019355 L78.6150653,24.8965808 C76.6157781,8.10847006 66.2652562,-1.18259975 51.0126166,-1.18259975 Z" id="Shape" fill="#DBDBDB" transform="translate(51.370647, 38.348640) rotate(-261.000000) translate(-51.370647, -38.348640) "></path>
                            <path d="M0.782499202,61.5570383 C-0.745443696,59.5925403 0.0342941367,58 2.51122787,58 L100.5206,58 C103.003293,58 103.780568,59.5883021 102.249329,61.5570383 L98.0159139,67 L5.01591385,67 L0.782499202,61.5570383 Z" id="Rectangle-71" fill="#FFE0B0"></path>
                            <g id="Rectangle-59-+-Rectangle-59" transform="translate(69.500000, 32.000000) rotate(-320.000000) translate(-69.500000, -32.000000) translate(65.000000, 27.000000)" fill="#4A4A4A" stroke="#4A4A4A" stroke-width="0.7">
                                <rect id="Rectangle-59" x="-1.62418466" y="4.06456948" width="12.080364" height="2.03886635" rx="1.01943318"></rect>
                                <rect id="Rectangle-59" x="-1.62418466" y="4.06456948" width="12.080364" height="2.03886635" rx="1.01943318"></rect>
                            </g>
                            <g id="Line-+-Line" transform="translate(45.000000, 35.000000) scale(-1, 1) translate(-45.000000, -35.000000) translate(36.000000, 27.000000)">
                                <path d="M0,2.3045859 C0,2.3045859 2.25565769,5.63268767 3.47932288,7.89649916 C4.70298807,10.1603106 4.57545118,11.895024 6.21828656,13.7357003 C7.86112193,15.5763765 9.67688734,15.8601415 12.1378447,15.8601415 C14.598802,15.8601415 18.1220771,12.8859322 17.8254594,9.86178669 C17.5288417,6.83764115 15.1047968,3.36583361 11.8257176,1.79421233 C8.54663832,0.222591042 5.52977355,-0.16835254 1.34863341,0.0600198994" id="Line" fill="#EC959E"></path>
                                <path d="M1.33925686,1.42515812 C1.33925686,1.42515812 9.87481396,3.65365368 12.3788099,10.312207" id="Line" stroke="#E17E8C" stroke-linecap="square"></path>
                            </g>
                        </g>
                    </g>
                </g>
                <rect id="Rectangle-23" fill="#4A90E2" x="149" y="235" width="80" height="2"></rect>
            </g>
        </g>
    </g>
</svg>