<?xml version="1.0" encoding="UTF-8"?>
<svg width="317px" height="404px" viewBox="0 0 317 404" version="1.1" xmlns="http://www.w3.org/2000/svg" xmlns:xlink="http://www.w3.org/1999/xlink">
    <!-- Generator: Sketch 51.3 (57544) - http://www.bohemiancoding.com/sketch -->
    <title>hero_img</title>
    <desc>Created with Sketch.</desc>
    <defs></defs>
    <g id="Page-2" stroke="none" stroke-width="1" fill="none" fill-rule="evenodd">
        <g id="home-2" transform="translate(-987.000000, -135.000000)">
            <g id="hero_img" transform="translate(926.000000, 57.000000)">
                <path d="M147.111012,333.580039 C150.407653,344.090781 150.733247,355.118301 150.55417,366.128303 C150.375093,377.138305 150.049499,388.332246 149.789024,399.412319 L148.161053,467.732142 C148.161053,469.422619 150.603009,469.422619 150.603009,467.732142 C151.145666,444.374937 151.688323,421.032331 152.23098,397.704324 C152.491456,386.387758 152.874029,375.071193 152.987987,363.745868 C153.093805,353.296439 152.548435,342.864528 149.42273,332.896841 C148.926199,331.302712 146.565642,332.020946 147.070313,333.588798 L147.111012,333.580039 Z" id="Shape" fill="#F3CD3A" fill-rule="nonzero"></path>
                <path d="M151.317927,470 L294.682073,469 C295.409944,469 296,468.328427 296,467.5 C296,466.671573 295.409944,466 294.682073,466 L151.317927,467 C150.590056,467 150,467.671573 150,468.5 C150,469.328427 150.590056,470 151.317927,470 Z" id="Shape" fill="#F3CD3A" fill-rule="nonzero"></path>
                <path d="M296.995645,467.730837 C293.741701,422.314909 292.933899,376.768222 294.575461,331.272457 C294.630465,329.575848 291.880256,329.575848 291.825251,331.272457 C290.18369,376.768222 290.991492,422.314909 294.245436,467.730837 C294.373779,469.418656 297.123988,469.427447 296.995645,467.730837 Z" id="Shape" fill="#F3CD3A" fill-rule="nonzero"></path>
                <path d="M292.369858,331.009115 C268.314058,334.65666 243.829627,334.569189 219.563886,334.92782 C207.696358,335.102762 195.825914,335.222306 183.952554,335.286452 C177.875914,335.32144 171.796357,335.338934 165.713884,335.338934 C159.59059,335.338934 153.257354,335.77629 147.930088,332.338675 C146.504235,331.420229 145.1921,333.694478 146.609206,334.604177 C150.711813,337.22831 155.295536,337.849355 160.097949,337.945574 C166.308719,338.068033 172.528236,337.945574 178.739007,337.945574 C191.761213,337.893091 204.789251,337.773547 217.823121,337.586942 C242.911133,337.22831 268.200339,337.324529 293.052167,333.545777 C294.714205,333.292111 294.005652,330.764195 292.352362,331.017862 L292.369858,331.009115 Z" id="Shape" fill="#F3CD3A" fill-rule="nonzero"></path>
                <path d="M159.612067,347.62467 L164.078519,344.78512 L157.755424,336.590737 C156.207938,337.795272 154.541084,338.837805 152.781022,339.701973 L159.09536,347.896356 L162.134299,345.267142 L153.945803,338.948265 C151.741555,342.235538 149.218797,345.297315 146.414138,348.089165 C142.911038,351.594783 146.414138,358.667368 151.484875,356.80939 C158.418133,354.261213 165.551068,352.294215 172.809996,350.928716 L166.924788,343.260176 C164.759413,346.453797 162.321472,349.453565 159.63834,352.225794 C155.530955,356.485121 160.741816,363.338604 165.961435,360.420177 C174.403906,355.687592 183.030289,351.30557 191.840586,347.274109 L185.51749,339.079726 L168.290997,357.142424 C164.358767,361.27029 169.543355,368.789841 174.614092,365.336807 C181.602201,360.579535 188.834316,356.191511 196.280765,352.190738 L189.143199,345.048041 C184.368142,351.694188 179.209828,358.056 173.694528,364.101076 C169.806087,368.377931 174.745458,375.397931 180.017624,372.295459 C189.014752,366.99029 198.242501,362.123323 207.70087,357.694559 L201.377775,349.543996 L184.921963,368.088717 C181.226193,372.251639 186.148048,379.928943 191.236301,376.2831 C200.948419,369.326855 211.031839,362.904989 221.44178,357.04602 L215.092411,348.834109 L191.20127,373.785347 C187.15519,378.018381 192.313504,385.029618 197.524365,381.97973 C215.267566,371.6031 233.258903,361.670514 251.498377,352.181974 L245.175281,343.987591 C235.156416,355.6613 224.060347,366.309616 212.938005,376.922875 C208.769316,380.901752 214.453095,388.754337 219.252342,385.117258 C232.296611,375.231015 245.986259,366.227825 260.229853,358.167817 L253.915515,349.973435 C243.861619,360.203997 233.547909,370.200852 222.974386,379.963999 L230.348411,387.343326 C238.323802,379.870516 246.529813,372.651864 254.966445,365.687369 L247.583662,358.308042 C238.242063,368.363324 228.608538,378.158606 218.683088,387.693887 C213.787506,392.417708 221.01265,399.367596 226.057114,395.073214 L245.788324,378.281302 L237.599828,371.953661 C231.79344,380.91928 225.636742,389.657034 219.068429,398.079282 C214.943529,403.337709 221.152774,409.735463 226.433697,405.458608 L265.22177,374.013212 L257.033274,367.685571 L235.1389,399.306248 C231.6358,404.354338 239.132434,409.472541 243.327396,405.625125 L262.778358,387.790292 L254.589862,381.462651 L237.030574,408.140406 C233.623809,413.319957 240.971561,418.201531 245.21907,414.468047 C250.47372,409.875687 255.807189,405.449844 261.359603,401.251866 L254.222037,394.117933 L241.032866,421.119958 C238.817155,425.659734 243.414974,430.988273 248.170432,428.253891 L257.12961,423.109396 C262.953513,419.770295 257.707621,410.743328 251.87496,414.099957 L242.915782,419.244452 L250.053348,426.387149 L263.189972,399.37636 C265.22177,395.222203 260.623952,388.789393 256.061164,392.242427 C249.799373,396.975012 243.703979,401.882878 237.810014,407.088721 L245.99851,413.407598 L263.557798,386.729842 C266.929531,381.61164 259.590537,376.537257 255.369302,380.410965 L235.91834,398.245799 L244.106836,404.57344 L266.044999,372.952763 C269.670707,367.694335 262.104011,363.189616 257.856503,366.633886 L219.068429,398.079282 L226.477486,405.458608 C233.606294,396.326473 240.320569,386.913887 246.62031,377.220853 C250.018317,371.962425 242.714354,367.256133 238.431814,370.901976 L218.700604,387.693887 L226.074629,395.073214 C235.953371,385.53209 245.586895,375.736808 254.975203,365.687369 C259.625568,360.683099 252.706946,354.083772 247.601178,358.308042 C239.158707,365.266694 230.949777,372.485347 222.974386,379.963999 C218.061288,384.573887 225.417798,391.883101 230.348411,387.343326 C240.916096,377.597707 251.241483,367.592088 261.324572,357.326469 C265.475745,353.093435 260.194822,346.196131 255.001476,349.132086 C240.757882,357.192093 227.068235,366.195284 214.023966,376.081527 L220.347061,384.27591 C231.469403,373.66265 242.565472,363.014335 252.584338,351.340626 C256.411474,346.879726 251.708563,340.32422 246.27,343.146243 C228.030527,352.669839 210.047947,362.611189 192.322262,372.970291 L198.636599,381.164673 L222.527741,356.213435 C226.61761,351.945345 221.433022,345.083097 216.213403,348.019052 C205.803462,353.878022 195.720043,360.299888 186.007924,367.256133 L192.33102,375.450516 L208.786831,356.905795 C212.824154,352.366019 207.823479,346.204895 202.472494,348.711412 C193.014124,353.146019 183.786375,358.012986 174.789247,363.312312 L181.103585,371.506695 C187.200997,364.78863 192.903146,357.721661 198.181196,350.341525 C201.404048,345.845569 195.291139,340.920175 191.052388,343.198827 C183.607875,347.202992 176.375934,351.59091 169.385715,356.344896 L175.700053,364.539279 L192.926547,346.467816 C197.217844,341.980625 191.840586,335.898377 186.612209,338.282198 C177.801913,342.284445 169.175529,346.651861 160.733059,351.384446 L167.047396,359.578829 C170.336505,356.150506 173.319668,352.440864 175.962785,348.492311 C178.730234,344.399502 174.211236,340.061299 170.077578,340.832535 C162.817695,342.193904 155.68442,344.160996 148.752457,346.71321 L153.823194,355.433435 C157.236313,351.990513 160.304476,348.221532 162.9838,344.1804 C166.443112,338.992085 159.051571,334.17186 154.795304,337.852759 L151.756365,340.481973 C147.097242,344.522198 153.034997,351.279277 158.079461,348.676356 C160.596933,347.342509 162.971033,345.753744 165.16448,343.935007 C169.788572,340.219052 163.798271,332.603096 158.850143,335.740624 L154.38369,338.580175 C148.726184,342.16467 153.95456,351.200401 159.63834,347.589614 L159.612067,347.62467 Z" id="Shape" fill="#F3CD3A" fill-rule="nonzero"></path>
                <path d="M250.536902,427.399406 L249.271923,430.288125 C248.485584,432.091386 247.562491,433.947169 248.229169,435.978027 C248.640006,437.4813 249.65458,438.735316 251.020479,439.428091 C252.386379,440.120866 253.975208,440.18728 255.391689,439.61081 C257.731079,438.688811 259.105126,436.19896 258.669748,433.670782 C258.234371,431.142604 256.111546,429.284404 253.605333,429.237682 L253.502767,429.237682 C250.670487,429.237682 248.374471,431.589179 248.374471,434.489898 C248.434123,437.357745 250.702183,439.661254 253.502767,439.698347 L253.605333,439.698347 L248.699263,435.872982 L248.699263,435.960519 L248.699263,433.194352 L249.109527,432.196431 L250.938619,430.32314 L250.827506,430.393169 L254.750652,429.867948 L254.622445,429.867948 L257.665233,432.26646 L257.537026,432.082633 L258.229346,434.708741 C258.198862,435.267065 258.047015,435.81137 257.784894,436.301913 L257.930195,435.978027 L258.417383,434.857554 L259.33193,432.774174 C259.98399,431.546508 260.166789,430.114304 259.844759,428.756229 C259.484865,427.449991 258.649793,426.334719 257.511385,425.639913 C255.289123,424.440657 251.71641,424.852081 250.54545,427.513204 L250.536902,427.399406 Z" id="Shape" fill="#F3CD3A" fill-rule="nonzero"></path>
                <path d="M151.448442,355.526333 C149.273845,361.427757 155.815101,365.143468 160.766893,363.333698 L154.898103,355.692447 C151.608553,361.072214 148.214203,366.384953 144.715053,371.630663 C142.322123,375.223975 146.356917,380.91557 150.583843,379.280657 L174.111405,370.135636 L168.233881,362.494384 C164.689407,367.097189 160.825545,371.444396 156.670967,375.503746 C152.592507,379.516714 158.120698,387.297851 162.96769,383.678311 L174.722737,374.883004 L167.605082,367.766323 C161.698399,375.579314 156.374158,383.816932 151.675508,392.412419 C148.994379,397.317158 154.199437,401.548697 158.78443,399.537842 L202.616958,380.303571 L195.473103,373.204376 C191.17631,380.379342 186.559296,387.341565 181.622059,394.091046 C177.823065,399.293042 185.586986,403.708182 189.787712,400.403384 C198.288143,393.758818 206.954507,387.347394 215.786803,381.169113 L209.49008,372.994548 L188.250648,398.820928 C186.627453,400.909175 186.811908,403.880715 188.68087,405.751717 C190.549832,407.622718 193.518132,407.807375 195.604103,406.182408 C204.465598,398.752405 214.081198,392.273473 224.293056,386.851966 L217.9876,378.677401 L192.102042,412.206232 C188.084715,417.451942 194.302838,424.113994 199.455497,419.567712 C205.911815,413.873816 212.682035,408.546885 219.734263,403.61201 L212.616608,396.486587 L193.647839,428.415477 C191.027844,432.786902 196.320235,438.391069 200.756761,435.532157 L240.35363,410.055491 L232.711976,404.171553 C229.838714,411.882747 225.026655,418.658456 220.336862,425.346736 C217.227801,429.770619 223.192658,434.911415 227.445784,432.463417 L254.475407,416.936114 L246.833752,411.060919 L240.06543,434.535472 C238.755432,439.055526 243.794557,442.47398 247.698351,440.410668 C258.422867,434.745301 268.961072,428.741877 279.312966,422.400396 L271.671312,416.5252 C269.124467,423.107382 266.184773,429.530384 262.868126,435.759471 C260.501397,440.227068 265.374589,445.665121 269.985781,442.884894 L277.444036,438.382326 L269.811115,432.507131 L263.121392,453.411286 C261.828861,457.476712 265.854921,460.510481 269.522915,459.819796 C271.094913,459.977167 271.444245,459.199053 270.553447,457.494197 C269.112449,464.025107 279.129566,466.814076 280.579297,460.265681 C282.561761,451.321745 273.924508,448.427862 266.754453,449.774261 L273.147243,456.174027 L279.836965,435.269872 C281.225563,430.898446 275.994305,427.104049 272.195311,429.385933 L264.737056,433.888501 L271.854711,441.005182 C275.566462,433.97868 278.853199,426.735295 281.697162,419.31417 C283.373959,414.986459 277.706035,411.21829 274.064241,413.438974 C263.706525,419.768798 253.162498,425.769307 242.43216,431.440503 L250.073814,437.315699 L256.842136,413.832402 C258.117201,409.417263 253.095542,405.719037 249.209215,407.948464 L222.135926,423.475766 L229.253581,430.601189 C234.493573,423.099824 239.462831,415.580972 242.676693,406.943036 C244.266157,402.676525 238.694299,398.707271 235.043772,401.059098 L195.473103,426.55325 L202.590758,433.66993 L221.576994,401.74104 C224.11839,397.474529 218.852198,391.555619 214.468072,394.615617 C206.686341,400.058419 199.213593,405.93106 192.084575,412.206232 L199.43803,419.567712 L225.323588,386.038881 C228.816915,381.562541 224.589989,374.891746 219.026865,377.864316 C208.066443,383.749935 197.751506,390.767879 188.250648,398.803442 L195.604103,406.164922 L216.869735,380.329799 C220.319396,376.141974 215.786803,368.483237 210.573012,372.155234 C201.030405,378.869743 191.665376,385.829052 182.477924,393.033161 L190.643578,399.336756 C195.574992,392.587276 200.189095,385.625053 204.485888,378.450087 C207.394084,373.580319 201.813493,369.383751 197.368233,371.324663 L153.535705,390.558934 L160.65336,397.675615 C165.353995,389.07853 170.678134,380.838147 176.582934,373.020776 C179.674529,368.946608 173.552472,362.852841 169.474012,365.904096 L157.718965,374.690661 L164.015688,382.865226 C168.767481,378.149745 173.177346,373.10106 177.211733,367.75758 C179.892862,364.26044 175.412669,358.533873 171.342943,360.107586 L147.824114,369.243865 L153.692905,376.893859 C157.186232,371.648149 160.580582,366.33541 163.875955,360.955643 C166.129151,357.26616 162.338891,351.749421 157.998431,353.305649 L159.125029,353.777763 L161.517959,356.890217 L161.474292,358.297816 C163.797355,352.011707 153.745305,349.29268 151.448442,355.535076 L151.448442,355.526333 Z" id="Shape" fill="#F3CD3A" fill-rule="nonzero"></path>
                <path d="M274.103806,355.288348 L248.619771,376.770716 L255.96322,384.174791 C260.347076,379.994817 265.248433,376.403721 270.54546,373.490764 L263.43749,366.332906 C260.611745,372.863499 257.5418,379.265122 254.227654,385.537774 C251.951359,389.855352 256.844085,395.826096 261.335624,392.704425 C267.540679,388.418634 274.013832,384.541449 280.714654,381.097088 L273.606684,373.930436 C268.751751,380.965186 263.655526,387.821136 258.318007,394.498287 C254.192768,399.642448 261.169917,407.028935 265.661456,401.902361 C268.281317,398.859134 271.290341,396.180106 274.609649,393.935507 L267.501679,386.768855 L253.870075,410.115432 C250.660587,415.611331 257.646457,419.893735 262.024617,416.455501 L278.464523,403.573114 L269.743088,398.481714 L260.611745,420.975328 C258.3965,426.400879 265.844606,428.889421 269.33318,426.066728 C274.170613,422.182681 279.251195,418.616886 284.543364,415.391495 L276.920829,409.482305 L272.839197,425.574295 C271.810068,429.60169 276.633022,434.367733 280.461732,431.483486 L292.331606,422.56694 L284.70035,416.65775 L277.461558,435.123969 C275.603892,439.854838 281.473419,442.686325 285.092814,441.033159 L287.351666,439.995533 L279.729131,434.086343 C278.777062,438.314204 277.612705,442.490601 276.240557,446.599405 C274.121248,453.001028 284.150899,455.753374 286.261487,449.386925 C287.622031,445.262802 288.77326,441.103506 289.750061,436.865069 C290.814076,432.1342 286.217879,429.082877 282.127526,430.955879 L279.859953,431.993505 L287.482488,437.902695 L294.721279,419.436476 C296.326023,415.338734 290.630926,410.862874 287.098744,413.518492 L275.228871,422.435038 L282.860127,428.344228 L286.941759,412.252237 C288.040659,407.925866 283.261313,403.916058 279.310503,406.343047 C273.280474,410.062761 267.497514,414.175095 261.998453,418.65386 L270.676281,423.74526 L279.833789,401.269234 C282.066476,395.799716 274.644535,393.443074 271.15596,396.177833 L254.733497,409.06022 L262.888039,415.400288 L276.519643,392.062505 C279.066302,387.709753 273.842162,381.941258 269.420395,384.904646 C265.333462,387.600526 261.617924,390.829306 258.370336,394.50708 L265.713785,401.911155 C271.615289,394.548116 277.252244,386.98576 282.624648,379.224085 C285.807972,374.625118 279.78146,369.876661 275.5254,372.066227 C268.823849,375.509254 262.350611,379.386489 256.14637,383.673565 L263.245618,390.831423 C266.559764,384.552909 269.629709,378.154217 272.455454,371.635349 C274.461384,367.027587 270.248931,361.760318 265.356206,364.468697 C259.287587,367.836028 253.671793,371.973304 248.645935,376.77951 C243.718324,381.475206 250.948394,388.439608 255.989384,384.183584 L281.473419,362.701216 C286.601623,358.374845 279.223288,351.005944 274.12997,355.297142 L274.103806,355.288348 Z" id="Shape" fill="#F3CD3A" fill-rule="nonzero"></path>
                <path d="M281.772549,458.311497 C282.347242,457.494157 283.154167,456.866783 284.089568,456.510043 L277.65633,450.108761 L275.506067,459.387122 C274.408993,464.118125 279.069361,467.091398 283.176803,465.263709 L288.398872,462.95505 L280.56138,458.51263 L280.104998,462.99003 C279.762711,466.365569 283.720952,468.901597 286.722544,468.009615 C289.10759,467.307489 291.397672,466.317819 293.541952,465.062576 L285.827332,459.159754 L284.853131,462.806387 C284.150675,465.570418 285.761434,468.394509 288.504191,469.207669 L286.748874,466.977714 C286.933182,473.177863 294.875993,473.632599 297.008703,468.368156 C300.023862,460.76318 300.779446,452.454427 299.185297,444.433307 C298.562159,440.996553 294.235302,439.850969 291.51456,441.320115 L282.316698,446.269741 L289.996211,449.374188 C289.562862,447.896181 289.446243,446.343902 289.653924,444.818084 C290.040094,440.874124 284.93212,438.338097 281.754996,440.323194 L277.524681,442.946671 L284.677599,450.073781 L290.540359,440.856634 C293.331314,436.484174 287.784511,430.983619 283.396218,433.738269 L278.209255,437.000124 L285.362173,444.11849 L297.649394,426.033993 C300.800189,421.40793 294.80578,416.764377 290.496476,418.906882 L278.033723,425.107032 L285.713237,430.983619 C290.291198,419.097 293.70365,406.796753 295.902854,394.25495 C296.561098,390.529613 293.594611,386.629379 289.478392,387.853667 C286.583325,388.72177 283.895825,390.167785 281.579464,392.103699 L290.312168,394.403613 C289.860131,393.474811 289.631741,392.453758 289.645147,391.421595 C289.487169,387.853667 285.186641,384.425658 281.74622,386.926706 L277.981064,389.681356 L285.133982,396.799722 L295.025195,381.329956 C297.895139,376.835067 292.278123,371.710543 287.872277,374.202846 C280.646221,378.330448 273.332399,382.268578 265.930811,386.017234 L273.083729,393.144345 L281.948081,376.144218 C283.887707,372.436372 280.61404,366.874602 276.050215,368.501157 L273.417239,369.445609 L278.498883,378.146805 L289.40818,364.600922 C293.225995,359.861175 288.60951,354.107017 283.080261,356.424421 L279.753934,357.832353 L286.081853,366.008855 C289.504722,362.510886 293.980781,359.012918 296.727853,354.920295 C299.220403,351.299897 296.727853,344.723716 296.008173,340.718543 C295.57812,338.173771 292.006049,336.083734 289.583711,337.080655 C281.716594,340.282766 274.09058,344.044024 266.764586,348.335369 L274.435323,351.448561 L274.575748,352.060705 C277.533458,347.539581 271.811124,342.511251 267.431607,344.933595 L254.731886,351.929531 L261.059805,360.106033 L265.527088,354.535518 C269.30102,349.83075 264.745972,343.927929 259.199169,346.359017 L235.800789,356.739238 L242.944931,363.857604 C245.306046,359.062228 248.140219,354.512859 251.40556,350.276741 C254.328163,346.481446 249.518594,341.53182 245.507694,342.624935 C239.95504,344.094082 234.352653,345.367926 228.700531,346.446466 L235.318077,351.466051 C235.252245,349.127049 235.658129,346.798665 236.511693,344.618777 C238.003712,340.587369 233.624196,337.526646 230.078455,338.217495 L212.261984,341.654249 L218.686446,348.055531 C219.143183,346.126521 220.044668,344.330057 221.319422,342.808579 C225.707715,337.72778 219.028733,331.01168 213.938312,335.445355 C211.170264,337.84102 208.154684,339.936981 204.942311,341.697974 L212.613048,344.811166 C212.478413,343.999172 212.448916,343.173319 212.525282,342.353843 C212.613048,338.383649 208.022893,335.908836 204.626354,337.858953 C191.508283,345.484525 178.460424,353.226695 165.482778,361.085464 C159.742891,364.583432 164.99129,373.564466 170.74873,370.075243 C183.720525,362.210644 196.768384,354.468474 209.892306,346.848732 L201.993378,342.353843 C201.975952,344.113771 202.13175,345.871163 202.458537,347.600796 C203.037792,351.02006 207.452415,352.209369 210.13805,350.705243 C214.105775,348.477227 217.827076,345.839213 221.240432,342.834814 L213.859323,335.47159 C211.370412,338.298738 209.568513,341.659125 208.593371,345.292136 C207.496298,349.341035 211.226347,352.436737 215.026609,351.693419 L232.84308,348.256665 L226.418618,341.846637 C225.281689,344.92332 224.748361,348.188934 224.847609,351.466051 C224.935375,355.051468 228.103723,357.13276 231.465156,356.49438 C237.111426,355.40418 242.713814,354.130337 248.272319,352.67285 L242.365676,345.021044 C239.097253,349.255036 236.262883,353.804721 233.905047,358.601906 C231.491485,363.516552 236.283502,367.819053 241.057965,365.729017 L264.59677,355.418755 L258.268851,347.242254 L253.792792,352.812769 C250.282157,357.228954 254.609014,364.041247 260.129487,360.98927 L272.829208,353.993333 L265.67629,346.874967 C264.105281,349.27982 263.920972,351.50103 264.482674,354.281915 C265.123365,357.622475 269.441445,359.004173 272.162187,357.395107 C278.670284,353.515926 285.448469,350.105453 292.444878,347.189784 L286.020417,343.560642 L287.670415,353.22378 L289.02201,348.151726 L278.806063,358.6981 C274.41777,363.236715 279.938243,369.078322 285.142759,366.874602 L288.469085,365.457924 L282.132389,357.281423 L271.223092,370.827306 C268.318042,374.438958 270.863252,381.469875 276.313513,379.528503 L278.946488,378.584051 L273.039846,370.932245 L264.175493,387.932372 C263.05749,389.975635 263.423834,392.508529 265.075371,394.154107 C266.726907,395.799685 269.268972,396.164707 271.319635,395.050738 C278.750478,391.307911 286.0643,387.369782 293.261101,383.236349 L286.11696,376.117983 L276.225747,391.587749 C273.540111,395.785311 279.086914,401.845541 283.369888,398.71486 L287.135044,395.960209 L279.236116,391.46532 C279.284517,393.421949 279.633789,395.35961 280.271753,397.210733 C281.658454,401.154693 285.853662,402.02044 289.004457,399.510647 C289.97574,398.773009 291.086081,398.237685 292.269347,397.936562 L285.844885,391.535279 C283.643592,404.076614 280.231195,416.376662 275.655269,428.263948 C273.899951,432.863777 279.648615,435.968224 283.326005,434.140535 L295.788758,427.940386 L288.644617,420.82202 L276.357395,438.906517 C273.399686,443.278978 279.201009,448.735808 283.501537,446.033628 L288.688499,442.771772 L281.535581,435.644661 L275.672822,444.861808 C272.890644,449.234269 278.437446,454.752314 282.816963,451.980174 L287.047278,449.356698 L279.14835,444.861808 C278.916652,447.327935 279.160942,449.815457 279.86803,452.190052 C280.313104,453.738223 281.44706,454.996991 282.943915,455.604494 C284.44077,456.211998 286.134708,456.100939 287.538767,455.303244 L296.701523,450.344874 L289.02201,447.231682 C290.082533,453.43435 289.326858,459.810129 286.845416,465.596016 L297.236895,466.977714 C297.122799,463.042499 295.025195,460.427768 291.339029,459.168499 L294.990089,465.569782 L295.96429,461.931894 C297.131576,457.559434 292.243017,453.729158 288.284776,456.055307 C286.928075,456.866168 285.474373,457.503724 283.957919,457.952955 L290.575466,462.97254 L291.031848,458.49514 C291.479454,454.12268 286.362704,452.583574 283.13292,454.000251 L277.928404,456.30891 L285.607918,462.194242 L287.766958,452.880901 C288.565627,449.382933 285.274407,444.914278 281.33372,446.470874 C278.710262,447.407028 276.342182,448.940127 274.41777,450.948273 C269.818839,455.836684 277.191171,463.191163 281.798879,458.311497 L281.772549,458.311497 Z" id="Shape" fill="#F3CD3A" fill-rule="nonzero"></path>
                <path d="M159.097665,410.964716 L183.12008,398.625257 L176.783148,390.431084 L144.642087,422.173643 C140.121977,426.634428 145.826971,432.593826 150.970243,430.367816 C161.111479,425.997393 171.582752,422.434032 182.286273,419.71101 L176.423294,412.068958 C169.126753,421.901965 161.373812,431.36397 153.164471,440.454974 C151.458637,442.341694 151.348613,445.176683 152.903105,447.189558 C154.457598,449.202432 157.231522,449.81686 159.492626,448.649146 C168.140813,444.16207 176.917727,439.937908 185.823369,435.976661 L178.143569,430.07861 C175.932415,435.564611 173.036547,440.749963 169.524639,445.511698 C166.487827,449.700805 172.48246,455.563801 176.669048,452.654212 C183.795902,447.688047 191.109997,443.014009 198.611333,438.632099 L191.466925,431.489585 C186.737069,438.462383 181.654499,445.190033 176.238979,451.646373 C174.527481,453.670816 173.948204,457.05365 176.238979,459.016746 C179.065145,461.444325 181.996635,461.645893 185.3933,460.191098 C189.781758,458.350696 194.073669,455.90559 198.36558,453.758454 L224.61733,440.612722 L217.464145,433.478972 C213.574068,440.410289 209.219586,447.071345 204.430428,453.416665 C200.919662,458.122837 207.476017,462.320707 211.583613,460.550415 L247.709392,444.994633 L240.494768,437.843355 C236.984003,444.766774 232.463892,450.945267 227.80335,457.123761 C224.538338,461.453088 230.76117,466.763964 234.956535,464.257511 C243.821219,458.999219 252.917028,454.167432 262.243962,449.762151 L254.537831,443.855336 L248.525645,458.920344 C246.656162,463.608988 252.571802,466.501049 256.205445,464.809632 L278.674346,454.380685 L271.003322,448.491397 L265.070128,464.52919 C263.718484,468.157411 267.896295,472.241352 271.49483,470.95307 L283.089133,466.799019 L276.480117,461.768586 C276.204896,463.907069 275.683615,466.006728 274.926603,468.025954 C273.680281,471.531482 276.866301,474.265795 279.964552,474.625111 C282.949237,474.981342 285.95882,475.083955 288.960889,474.931845 C295.631344,474.590056 295.72789,464.41526 288.960889,464.494134 L286.433138,464.494134 C279.710021,464.555481 279.692468,475.010719 286.433138,474.923081 L288.960889,474.923081 L288.960889,464.494134 C285.959068,464.649152 282.949486,464.549471 279.964552,464.196164 L285.002501,470.795321 C285.991715,467.870584 286.63964,464.841641 286.933422,461.768586 C287.293275,458.517208 283.282226,455.633911 280.324405,456.738153 L268.730102,460.88344 L275.154803,467.307321 L281.131882,451.269529 C282.887264,446.572121 277.155939,443.653768 273.452082,445.371477 L250.983181,455.800424 L258.662981,461.698475 L264.66639,446.633467 C266.527096,441.962351 260.62901,439.017707 256.995367,440.735416 C247.668433,445.146539 238.569698,449.978326 229.699164,455.230776 L236.843572,462.364526 C241.504113,456.229851 246.059332,450.03383 249.53499,443.08412 C252.018857,438.141325 247.121339,433.908399 242.381805,435.95037 L206.264803,451.506152 L213.409211,458.648666 C218.197193,452.309836 222.55445,445.657804 226.451705,438.737265 C229.08478,434.004801 223.888847,429.307394 219.29852,431.594751 L199.225717,441.620562 L189.930965,446.247859 C187.745513,447.334573 182.786557,450.918976 180.504559,450.62977 L184.19964,452.154675 L183.550148,451.602554 L183.550148,458.972927 C189.546011,451.847257 195.173492,444.42047 200.410601,436.721586 C203.421082,432.287093 197.584434,427.081383 193.257416,429.587836 C185.767782,433.975589 178.453687,438.649627 171.31513,443.609949 L178.468315,450.752463 C182.431674,445.209594 185.67571,439.187634 188.122921,432.830449 C190.00118,428.089222 184.094317,425.319855 180.451898,426.932398 C171.552107,430.90533 162.775192,435.132413 154.121155,439.613647 L160.458087,447.807819 C169.235001,438.03908 177.532111,427.873048 185.349416,417.309723 C188.21069,413.471169 183.506264,408.607249 179.451329,409.650143 C167.911456,412.660962 156.627387,416.575923 145.704094,421.358608 L152.041026,429.55278 L184.182086,397.810221 C188.517882,393.533477 183.03231,386.951847 177.853931,389.616049 L153.831517,401.955509 C147.854438,405.03161 153.129364,414.032054 159.097665,410.964716 Z" id="Shape" fill="#F3CD3A" fill-rule="nonzero"></path>
                <path d="M152.920578,443.528221 L146.641766,454.217255 C144.472721,457.912884 148.143412,463.615471 152.542971,461.953322 C159.727309,459.22662 167.074306,456.955871 174.540767,455.154424 L168.639562,447.418357 C166.915258,451.233837 164.858165,454.887793 162.492473,458.337263 C159.260861,463.067315 165.35526,467.585178 169.640659,465.534015 C173.054043,463.920542 176.604311,462.618612 180.248778,461.643879 L173.811898,455.172107 C172.055587,459.964047 170.109009,464.679364 167.972164,469.318057 C166.303668,472.907592 169.210363,479.043398 173.873369,477.054124 C183.605211,472.947128 193.57603,469.439536 203.730658,466.550756 L197.302559,460.078983 C196.975115,462.90067 196.110455,465.632348 194.755908,468.124493 C192.305854,472.545102 197.390375,478.25653 201.912876,475.321245 C209.678194,470.316388 217.759776,465.82729 226.106061,461.882592 L218.957875,454.676998 L215.743826,461.246024 C213.566,465.666634 218.176317,471.422267 222.892012,468.451618 C229.322891,464.374646 236.24654,461.144834 243.493541,458.841212 L237.065443,452.36944 C235.818516,455.543435 234.277889,458.592343 232.463908,461.475896 C229.76797,465.852299 235.212534,471.581409 239.612094,468.672648 C247.044775,463.748678 255.221045,460.070186 263.822842,457.780266 L257.921637,450.053041 L252.872243,459.875635 C250.167523,465.180367 256.657093,470.414368 261.082997,466.258995 C263.35346,464.10128 266.101861,462.519229 269.100557,461.643879 L263.19057,453.907812 L258.870045,463.474011 C256.929321,467.762003 261.26741,473.97738 266.018231,470.679605 C267.789514,469.323899 269.905128,468.499486 272.121412,468.301317 L267.080799,461.599673 C266.756191,464.164663 266.100834,466.676102 265.131294,469.070503 C262.496827,475.215151 270.277286,480.095504 274.158733,474.375235 C270.610985,472.50679 268.561955,472.86928 268.011644,475.462705 L278.09287,475.462705 L276.134583,469.477199 C274.053354,463.067315 263.945784,465.808093 266.053357,472.271025 L268.011644,478.265371 C269.697703,483.437484 276.257525,483.048471 278.09287,478.265371 C279.67355,474.118839 279.44523,469.158915 275.335462,466.621485 C271.638427,464.340451 267.475969,465.648951 265.148857,469.061662 L274.176296,474.366393 C275.615691,471.189123 276.625774,467.832013 277.179588,464.384657 C277.645011,461.281389 275.879918,457.453141 272.138975,457.718378 C268.056757,457.908054 264.106005,459.229839 260.722953,461.537784 L267.879921,468.734537 L272.200446,459.168338 C273.956757,455.251677 271.023718,449.999993 266.299241,451.441112 C261.577151,452.84855 257.250942,455.356505 253.671364,458.761642 L261.882119,465.136161 L266.931513,455.313566 C268.995178,451.290811 265.587935,446.366252 261.030308,447.577499 C251.54735,450.087771 242.529566,454.124232 234.325597,459.530828 L241.473783,466.736421 C243.716222,463.0478 245.609642,459.15531 247.129105,455.110218 C248.578062,451.3527 244.257537,447.515611 240.701007,448.638445 C232.579629,451.190455 224.815354,454.776602 217.596734,459.309797 L224.753702,466.50655 L227.967751,459.937524 C230.347553,455.066012 225.596731,450.477419 220.819565,452.740771 C212.469459,456.683507 204.384831,461.172668 196.617598,466.179424 L203.765784,473.385018 C205.626079,470.111653 206.848129,466.510622 207.366222,462.775555 C207.875552,458.991513 205.170833,455.101377 200.938123,456.303783 C190.783599,459.192896 180.812801,462.700481 171.080835,466.807151 L176.990821,474.534377 C179.519909,469.088186 181.820677,463.544741 183.893124,457.904043 C185.306954,454.031589 181.056682,450.442054 177.456244,451.432271 C172.944898,452.71091 168.554607,454.388425 164.3366,456.445242 L171.493568,463.650836 C173.85926,460.201366 175.916352,456.547409 177.640656,452.73193 C179.493565,448.620763 176.455146,443.890711 171.739451,445.004704 C164.288438,446.8065 156.956252,449.074251 149.785562,451.794761 L155.686768,459.530828 L161.96558,448.841794 C165.40795,442.997748 156.371729,437.693016 152.938141,443.537062 L152.920578,443.528221 Z" id="Shape" fill="#F3CD3A" fill-rule="nonzero"></path>
                <path d="M184.258052,395.414508 C181.200583,400.119565 177.584547,404.438931 173.48853,408.278736 C169.263294,412.265946 174.876446,419.924893 179.821993,416.472233 C185.802681,412.238489 192.237266,408.682135 199.006851,405.868884 L192.567977,399.445533 C190.83579,403.889176 188.468845,408.059714 185.540556,411.827791 C181.447084,417.08565 187.666351,423.570342 192.936916,419.206319 L198.444657,414.649508 L190.23136,408.322551 C187.051973,413.217512 183.627629,417.94973 179.971326,422.501244 C176.334636,426.987951 180.788263,433.5778 186.313573,430.694741 L203.117892,421.931643 L195.967491,414.798481 L181.728181,433.420065 C178.574626,437.556247 184.741187,443.462575 188.878581,440.553227 C197.663935,434.39384 206.895183,428.893048 216.496343,424.096128 L209.345943,416.954203 L200.298139,434.173691 C197.662857,439.098552 202.784089,443.339892 207.448539,441.306853 C213.759679,438.585603 220.210463,436.198717 226.773946,434.156165 L220.378993,427.759103 C218.33531,433.088311 215.51445,438.087473 212.007578,442.595028 C208.116144,447.686388 216.004424,452.234436 220.220876,448.913222 C223.97349,445.977892 228.089023,443.53632 232.466156,441.648614 L224.771131,435.759812 L222.302749,446.27553 C221.274989,450.613263 225.939439,454.556657 229.980206,452.164332 L264.476056,431.763839 L257.316871,424.621914 C255.796474,428.157785 253.627662,431.379384 250.921919,434.121112 C246.17841,438.914527 253.434222,446.13532 258.318279,441.499641 C263.277393,436.782136 268.648283,432.515139 274.36715,428.749333 L266.689693,422.860531 C264.429607,429.563487 261.596512,436.060379 258.221652,442.279557 C255.384331,447.537416 262.042812,452.672591 266.434949,448.597751 L269.316192,445.925006 L260.531916,440.851172 C259.516071,443.849009 258.1103,446.700912 256.350601,449.333851 C252.661205,454.977286 261.717793,460.208856 265.380836,454.59171 C267.606344,451.174467 269.377988,447.483603 270.651402,443.611548 C272.408257,438.44132 265.530169,435.172684 261.911048,438.537714 L259.029805,441.18417 L267.243103,447.502363 C271.038983,440.484702 274.224702,433.155276 276.765257,425.594618 C278.18831,421.362042 272.829902,417.234622 269.079016,419.705816 C262.610084,423.954895 256.531047,428.767105 250.913135,434.08606 L258.309495,441.464589 C261.672563,438.114544 264.393545,434.179523 266.338322,429.853484 C268.332353,425.384304 264.071979,419.828499 259.187922,422.720322 L224.692072,443.120814 L232.378313,449.018379 L234.846695,438.502662 C235.971082,433.761825 231.271495,430.791135 227.169238,432.61386 C222.021606,434.957112 217.199917,437.955671 212.824516,441.534694 L221.037814,447.852887 C225.023682,442.576375 228.200311,436.737556 230.463341,430.528242 C231.868825,426.795162 227.62602,422.983215 224.033252,424.113654 C216.607427,426.458937 209.312012,429.196897 202.177974,432.315914 L209.328374,439.457839 L218.411315,422.220825 C219.535299,420.171392 219.168994,417.62791 217.512103,415.977041 C215.855212,414.326173 213.305135,413.963874 211.252131,415.087663 C201.650971,419.884584 192.419723,425.385375 183.634369,431.544762 L190.793553,438.686687 L204.96259,420.05634 C208.362104,415.578397 201.98472,410.732403 197.803405,412.914415 L180.999086,421.677513 L187.332549,429.87101 C191.594447,424.649367 195.587656,419.215084 199.296732,413.589173 C202.748952,408.331315 195.378945,403.704399 191.083434,407.27098 L185.575694,411.827791 L192.972053,419.206319 C197.011917,414.049733 200.267809,408.327272 202.634757,402.223435 C204.005103,398.718196 199.762298,394.336647 196.204667,395.800084 C188.566756,398.873582 181.295467,402.785557 174.525075,407.463768 L180.858538,415.657265 C185.582137,411.179047 189.749384,406.150983 193.270719,400.68113 C196.924977,395.020168 187.877174,389.779836 184.240484,395.423271 L184.258052,395.414508 Z" id="Shape" fill="#F3CD3A" fill-rule="nonzero"></path>
                <path d="M243.566906,349.132047 L255.640912,340.839635 L248.032634,334.924029 L246.509237,341.667115 C245.638725,345.408384 248.946672,349.343318 252.881388,348.1109 L270.665955,342.556217 L264.816112,334.853605 L260.924922,342.723474 C258.626769,347.362647 263.310126,352.494787 268.010893,349.897906 L271.083801,348.19893 L263.997831,341.0333 C263.636286,341.84788 263.158187,342.604234 262.578896,343.278062 C258.957564,347.600327 263.536459,354.77476 268.863995,351.508853 C274.618299,347.97296 280.610485,344.849057 286.796549,342.160083 L279.144746,336.279688 C279.086369,337.221512 278.786345,338.131705 278.274233,338.920584 C275.932555,343.207638 280.88577,349.264091 285.360204,346.086214 C287.687298,344.393651 290.367751,343.26424 293.194815,342.785094 L286.639857,337.732181 L285.203512,412.936083 C285.072935,419.687972 295.440737,419.687972 295.562609,412.936083 L296.998954,337.732181 C297.068595,334.078942 293.647482,332.089468 290.443996,332.679268 C286.739872,333.351791 283.227187,334.839377 280.15454,337.036745 L287.20569,344.202375 C288.122589,342.599034 288.769771,340.852822 289.120817,339.035023 C289.99133,334.255002 285.717114,331.297199 281.503834,333.119417 C275.324449,335.800597 269.338121,338.915655 263.58869,342.441778 L269.865084,350.672569 C271.032499,349.321058 272.051178,347.845226 272.903172,346.271077 C274.017028,344.212315 273.654023,341.657256 272.012062,339.998873 C270.370101,338.340491 267.843002,337.976542 265.808496,339.105447 L262.735588,340.804423 L269.830264,347.970053 L273.721454,340.100184 C275.636581,336.226871 272.441801,330.971488 267.871611,332.406375 L250.121864,338.040285 L256.494014,344.484071 L258.026116,337.749787 C258.957564,333.603581 254.361259,329.114059 250.409133,331.825378 L238.335126,340.11779 C232.850898,343.885468 238.030447,352.970148 243.5582,349.167259 L243.566906,349.132047 Z" id="Shape" fill="#F3CD3A" fill-rule="nonzero"></path>
                <path d="M287.481152,407.071733 C287.363295,426.674931 286.871243,446.263426 286.004997,465.837217 C285.748658,471.633482 295.436478,473.159744 296.338082,467.239966 L296.70933,464.805005 C297.725844,458.188264 287.587223,455.338654 286.56187,462.008329 L286.190621,464.44329 L296.532545,465.837217 C297.398792,446.263426 297.887897,426.674931 297.999861,407.071733 C298.044057,400.313834 287.516509,400.305012 287.481152,407.071733 Z" id="Shape" fill="#F3CD3A" fill-rule="nonzero"></path>
                <path d="M151.039761,340.32003 L294.960239,341.99956 C301.67992,342.077477 301.67992,331.775201 294.960239,331.697285 L151.039761,330.000439 C144.32008,329.922523 144.32008,340.233456 151.039761,340.311372 L151.039761,340.32003 Z" id="Shape" fill="#F3CD3A" fill-rule="nonzero"></path>
                <path d="M147.209823,341.576847 C148.662907,351.989074 147.008492,362.577184 145.704217,372.910264 C144.463288,383.55699 143.899001,394.272345 144.014787,404.991181 L144.093569,469.944485 C144.093569,476.680774 154.527767,476.689568 154.519014,469.944485 C154.519014,447.718835 154.489835,425.499048 154.431479,403.285124 C154.388326,392.57038 155.02571,381.863786 156.339747,371.230589 C157.731557,360.34348 158.790733,349.720194 157.215099,338.789114 C156.339747,332.14956 146.246935,334.97247 147.166055,341.576847 L147.209823,341.576847 Z" id="Shape" fill="#F3CD3A" fill-rule="nonzero"></path>
                <path d="M153.047744,472.999459 C201.017012,472.139266 248.98628,472.013104 296.955548,472.620974 C303.677096,472.706993 303.685871,462.462094 296.955548,462.376075 C248.98628,461.768205 201.017012,461.897234 153.047744,462.763162 C146.326196,462.883589 146.308647,473.085478 153.047744,472.999459 Z" id="Shape" fill="#F3CD3A" fill-rule="nonzero"></path>
                <path d="M291.033861,337.047215 C291.780513,357.695206 291.31301,378.368497 289.633701,398.96318 C287.921403,419.613556 284.773272,440.219977 286.503406,460.975847 C287.056336,467.648318 297.677934,467.701065 297.116086,460.975847 C295.39487,440.219977 298.543001,419.657512 300.24638,398.96318 C301.933109,378.368893 302.403596,357.695347 301.655459,337.047215 C301.414667,330.330788 290.793069,330.304415 291.033861,337.047215 Z" id="Shape" fill="#F3CD3A" fill-rule="nonzero"></path>
                <path d="M300.536355,336.378352 C300.05314,337.669728 299.892904,339.062502 300.06998,340.432094 C300.465959,344.396547 304.214554,347.110948 307.94555,345.021574 C309.545745,344.130449 311.094086,343.146639 312.582897,342.075021 L304.883318,336.065839 L303.668984,340.057078 C302.252261,344.691203 307.487975,348.093132 311.359764,346.066261 L315.081961,344.075105 L307.391181,338.119497 L305.631277,343.476866 C304.188156,347.807406 309.564662,351.959367 313.322057,349.477119 L317.229044,346.887724 L309.555863,340.798181 L307.95435,345.012645 C306.009656,350.102145 313.234062,353.807659 316.709872,350.182506 C317.386512,349.34818 318.191823,348.63053 319.094542,348.057416 L311.896535,340.798181 L310.198228,343.798308 C307.77836,348.093132 312.943678,354.379112 317.369836,351.075401 L325.043018,345.325158 L317.352237,339.315976 L316.516283,342.887555 C315.407543,347.593111 321.795995,352.512962 325.271805,348.057416 C326.336349,346.590618 327.698674,345.372677 329.266787,344.485837 L321.576007,338.485584 L320.995238,341.530355 C320.115286,346.057332 324.515046,349.834277 328.686019,347.539537 C330.753652,346.420805 332.612064,344.943032 334.176919,343.173281 L325.236607,339.423123 L325.069416,341.512497 C324.717435,346.07519 331.070689,348.566366 334.009728,345.271584 L337.019164,341.905371 L328.263642,339.565986 L328.84441,342.708976 L337.599932,337.539115 C334.547601,334.161863 330.278669,332.181187 325.764578,332.047812 C323.432705,331.994238 321.250424,332.99428 318.971349,333.038925 C316.331493,333.08357 314.00842,331.788872 311.280569,332.029954 C308.552717,332.271035 306.071253,334.262191 306.044854,337.387323 L306.528828,335.976549 C301.495502,340.5571 308.922297,348.048487 313.938023,343.494724 C315.646148,341.946646 316.590335,339.710047 316.516283,337.387323 L311.236571,342.700047 C314.817975,342.378605 317.977003,344.128679 321.743198,343.405434 C325.201409,342.735763 327.515683,342.262529 330.146739,345.084076 C333.992129,349.21818 339.826211,344.816208 338.902261,339.914215 L338.321493,336.771225 C337.599932,332.878204 332.091433,331.601364 329.565971,334.422912 L326.556535,337.789126 L335.505647,341.548213 L335.664038,339.458839 C336.024818,334.896146 329.662765,332.387112 326.723726,335.699752 C325.780173,336.80387 324.635941,337.713318 323.35351,338.378436 L331.05309,344.387618 L331.633858,341.342847 C332.51381,336.878373 328.11405,332.985351 323.934278,335.333665 C321.569937,336.627756 319.489311,338.395721 317.818612,340.530313 L326.574134,345.709103 L327.410088,342.137523 C328.369236,338.048065 323.626295,333.208575 319.710509,336.13727 L312.037327,341.887513 L319.200136,349.155677 L320.898444,346.15555 C323.371109,341.762508 318.21459,335.771183 313.726835,338.878457 C312.099593,339.978278 310.589662,341.247081 309.221481,342.664331 L317.977003,347.843121 L319.578516,343.628658 C321.232825,339.289189 315.530737,335.208659 311.887735,337.619476 L307.980749,340.208871 L315.680328,346.209124 L317.440232,340.851755 C318.980148,336.217631 313.550845,332.815701 309.740653,334.851502 L306.036055,336.878373 L313.735635,342.887555 L314.958768,338.896315 C316.234698,334.69078 311.034182,330.172733 307.259188,332.896062 C305.768308,333.964528 304.220145,334.948225 302.621841,335.842615 L310.541409,340.432094 L310.638204,339.199899 C312.767687,332.690696 302.657039,329.904864 300.536355,336.378352 Z" id="Shape" fill="#F3CD3A" fill-rule="nonzero"></path>
                <path d="M301,337.025935 L301.565472,356.696331 C301.671498,360.390548 306.045071,363.53326 309.517422,361.195923 C312.760051,358.989897 315.967337,356.293644 319.439689,354.464043 C322.912041,352.634442 326.932193,353.115916 330.66961,352.914573 C334.106619,352.730737 337.252057,352.599426 339.125183,349.351666 C340.998309,346.103906 341.086664,341.796904 340.962967,338.190227 C340.74208,331.502117 330.227835,331.475855 330.448722,338.190227 C330.510571,340.212417 330.757965,342.794868 329.741882,344.65073 L332.878485,342.252115 C328.133821,343.451423 322.920876,342.190837 318.167377,343.591488 C313.0958,345.07968 308.50134,349.272879 304.207287,352.196739 L312.159237,356.696331 L311.593765,337.025935 C311.399384,330.337826 300.885138,330.311564 301.070684,337.025935 L301,337.025935 Z" id="Shape" fill="#F3CD3A" fill-rule="nonzero"></path>
                <path d="M110.406007,342.660246 L109.594856,345.909642 C109.406606,346.607272 109.814201,347.326873 110.505243,347.516917 C111.196286,347.706961 111.909093,347.295482 112.097343,346.597852 C112.960269,343.322322 108.904515,343.696917 107.929408,346.388776 C107.446169,347.739061 109.206539,348.392425 110.095353,347.660657 L112.563323,345.630874 L110.535446,345.369528 C112.019679,348.810577 115.014034,345.369528 116.964248,344.899106 L115.324687,343.644648 L115.324687,346.589141 C115.336005,347.052761 115.586756,347.476618 115.985721,347.706516 C116.384685,347.936414 116.873713,347.938846 117.274901,347.712926 C118.784991,346.993503 120.206901,346.098896 121.51187,345.047202 L119.345924,344.472242 L119.725612,346.902755 C119.741828,347.423002 120.058453,347.885403 120.534822,348.084529 C121.01119,348.283656 121.558931,348.182568 121.934704,347.826176 C123.263,346.577412 124.460172,345.193671 125.507219,343.696917 L123.091025,343.043553 C123.246359,344.363061 123.246359,345.696497 123.091025,347.016005 C123.099613,347.540131 123.415629,348.009083 123.895377,348.209622 C124.375125,348.410161 124.927024,348.304006 125.300117,347.939426 L129.312724,343.583667 L127.146779,342.311786 L126.283853,347.007293 C126.07675,348.139791 127.560984,349.420384 128.449798,348.279175 L130.909138,345.134317 L128.743193,343.862436 L127.828491,348.749597 C127.692236,349.370517 128.015513,350.000924 128.596394,350.247048 C129.177275,350.493172 129.849386,350.28452 130.192909,349.751421 L133.8172,344.237031 L131.452782,343.226495 C131.227326,344.852745 130.831024,346.450146 130.270573,347.991695 C129.744188,349.463941 131.849728,350.134728 132.64362,348.993519 L136.690745,343.121957 L134.455766,341.806518 L133.394366,343.818878 L135.758785,344.820703 L136.966882,339.419562 C137.277535,338.034431 135.318692,337.050029 134.602463,338.417737 L133.575581,339.759311 L135.732897,340.334271 L135.266917,338.069277 C135.138021,337.625507 134.789131,337.281775 134.34654,337.162507 C133.903949,337.043239 133.431787,337.165717 133.100971,337.485605 L131.375118,339.306312 L133.58421,340.229733 L133.748166,338.243507 C133.860347,336.99776 132.324338,336.684145 131.539075,337.320086 C128.662653,339.689619 125.73158,342.01269 122.745854,344.2893 L124.644293,345.761546 L125.075756,344.358992 C125.203934,343.849614 125.019479,343.312097 124.606634,342.991933 C124.193788,342.67177 123.631792,342.630411 123.177318,342.886746 C121.501909,343.896983 119.89608,345.020427 118.370818,346.249391 L120.200222,346.249391 C119.181968,345.029779 118.741876,343.20036 116.895213,343.069688 C114.781044,342.91288 112.183635,345.752835 110.595851,346.920178 C109.914139,347.425446 109.603485,348.749597 110.595851,349.176461 C112.779236,350.133948 115.120455,350.671652 117.499262,350.761957 C118.974866,350.831649 120.45047,350.761957 121.926074,350.761957 C122.659562,350.761957 123.401679,350.761957 124.143795,350.805515 C125.369186,350.616761 126.620398,350.892976 127.655906,351.58084 L129.606119,352.704626 C129.008021,349.003598 130.013753,345.221534 132.367484,342.320497 C132.684522,341.987752 132.806993,341.512324 132.690692,341.065812 C132.574391,340.619301 132.236112,340.266181 131.797952,340.133906 C128.622383,339.262755 124.756473,340.752424 121.62405,341.336096 L107.938037,343.940839 C106.298477,344.245742 106.988818,346.763371 108.619749,346.458468 L119.130193,344.498376 C122.357538,343.897282 128.009706,341.841364 131.159387,342.686381 L130.589855,340.508502 C127.753824,343.884616 126.47373,348.318966 127.069116,352.704626 C127.079075,353.167172 127.327451,353.590929 127.724266,353.822385 C128.121081,354.053841 128.608785,354.059429 129.0107,353.837123 C131.228421,352.835298 130.848733,350.20442 128.907149,349.045788 C127.302106,348.087522 124.497595,348.174637 122.719967,348.174637 C119.018012,348.07881 115.471385,348.435982 111.950645,346.911467 L111.950645,349.16775 C112.675503,348.636347 115.402351,345.944488 116.265277,346.01418 C117.369823,346.118719 117.801286,347.32962 118.439852,348.096233 C118.952608,348.587401 119.756499,348.587401 120.269256,348.096233 C121.637756,347.009206 123.07944,346.019516 124.583888,345.134317 L122.68545,343.653359 L122.253986,345.064625 C121.943333,346.06645 123.237722,347.251216 124.152424,346.536871 C127.293477,344.11507 130.400012,341.64971 133.47203,339.140793 L131.262938,338.217372 L131.098982,340.203598 C131.10757,340.727724 131.423586,341.196676 131.903334,341.397215 C132.383083,341.597755 132.934981,341.491599 133.308074,341.127019 L135.033926,339.315024 L132.867981,338.731352 L133.342591,341.005058 C133.469382,341.450834 133.819333,341.796265 134.26364,341.914208 C134.707946,342.032151 135.180943,341.905176 135.508536,341.580018 C136.134153,341.086944 136.626771,340.442833 136.940994,339.707042 L134.498912,338.713929 L133.299444,344.123781 C132.988791,345.508912 134.947634,346.484602 135.663863,345.125606 L136.725262,343.113245 C137.054109,342.493261 136.837924,341.721733 136.236103,341.36752 C135.634283,341.013307 134.862712,341.203473 134.490283,341.797806 L130.443158,347.669369 L132.807576,348.671193 C133.362222,347.131418 133.755561,345.537222 133.981156,343.914705 C134.124655,343.291699 133.803446,342.654787 133.219991,342.405422 C132.636536,342.156058 131.959969,342.366527 131.616738,342.904169 L127.992447,348.427271 L130.356865,349.429095 L131.271567,344.550646 C131.487299,343.418148 129.994436,342.154978 129.105622,343.278764 L126.620394,346.432333 L128.77771,347.704215 L129.640636,343.008707 C129.856368,341.815229 128.432539,340.700155 127.474691,341.736825 L123.470713,346.092584 L125.679804,347.016005 C125.835138,345.696497 125.835138,344.363061 125.679804,343.043553 C125.664497,342.463396 125.274386,341.961919 124.719713,341.809385 C124.16504,341.656852 123.576892,341.889309 123.27224,342.381478 C122.344598,343.689647 121.2831,344.89558 120.1053,345.979334 L122.305762,346.902755 C122.268714,345.845178 122.109432,344.795588 121.831152,343.77532 C121.696068,343.336326 121.34644,342.998587 120.906062,342.881687 C120.465684,342.764786 119.996716,342.885225 119.665207,343.20036 C118.523397,344.101346 117.277412,344.858988 115.954624,345.456643 L117.904837,346.589141 L117.904837,343.644648 C117.899094,343.238439 117.708964,342.857372 117.389065,342.610911 C117.069165,342.36445 116.654902,342.279874 116.265277,342.381478 C115.062812,342.861853 113.892521,343.420567 112.761796,344.054089 C112.399367,343.182937 111.294821,343.322322 110.72529,343.784032 L108.25732,345.813816 L110.423265,347.085697 L109.560339,345.909642 L112.062826,346.597852 L112.865347,343.357168 C113.270923,341.728114 110.777065,341.031193 110.37149,342.660246 L110.406007,342.660246 Z" id="Shape" fill="#F3CD3A" fill-rule="nonzero"></path>
                <path d="M133.195492,333.516951 C127.976894,342.128569 124.659425,351.779259 123.470202,361.808332 L133.712422,360.407944 C131.39938,346.297707 114.559734,348.123529 104.738067,343.284214 L107.138724,346.439518 C106.779502,345.473428 105.780688,341.227948 106.499133,340.235268 L103.3187,342.646062 C107.953546,341.883826 113.727389,343.000591 118.44985,343.151266 L133.913937,343.629879 C140.625264,343.842596 140.625264,333.286508 133.913937,333.082654 L109.863558,332.329281 C106.691886,332.222922 102.232271,331.274558 99.2971614,333.002885 C96.5197587,334.64258 96.1079672,337.771294 96.0291135,340.696155 C95.9502598,343.621016 95.9152137,347.963991 97.5448569,350.507734 C99.3847766,353.370552 103.187277,353.831439 106.19248,354.700034 C109.837273,355.754757 113.490828,356.774026 117.12686,357.864202 C120.342339,358.830292 122.979557,359.45958 123.592864,363.182131 C124.013417,365.761326 126.992334,367.276936 129.314138,366.95786 C132.100302,366.576742 133.493384,364.431844 133.835084,361.772879 C134.969727,353.603793 137.816504,345.774192 142.184815,338.808291 C145.741993,333.020611 136.717625,327.720409 133.177969,333.490362 L133.195492,333.516951 Z" id="Shape" fill="#F3CD3A" fill-rule="nonzero"></path>
                <g id="Group"></g>
                <g id="Group"></g>
                <path d="M87.4384486,231 C87.4384486,231 85.6846543,154.279103 89.1922428,153.397254 C92.6998314,152.515405 343.492411,150.751706 345.246206,153.397254 C347,156.042802 347,231 347,231" id="Shape" stroke="#0070E0" stroke-width="3"></path>
                <path d="M348.844256,262 C348.844256,262 347.459183,331.225985 350.965698,331.225985 C354.472213,331.225985 87.9770716,332.967519 87.1004428,331.225985 C86.2238141,329.484451 91.4835866,266.467035 87.5212246,264.446856" id="Shape" stroke="#0070E0" stroke-width="3"></path>
                <path d="M99,352.140127 C121.973492,350.382166 132.576642,366.203822 132.576642,366.203822 L144.505186,335 C146.272378,338.515924 142.737995,473 142.737995,473" id="Shape" stroke="#0070E0" stroke-width="3"></path>
                <path d="M131,366.739447 C131,366.739447 118.744309,423.724908 105.613212,431.615202 C92.482115,439.505497 88.9804891,439.505497 78.4756114,426.355006 C67.9707337,413.204515 71.4723596,366.739447 71.4723596,366.739447 L73.2231725,305.370488 C73.2231725,305.370488 60.0920754,265.919015 63.5937013,258.02872 L63.5937013,248.385027 C63.5937013,248.385027 76.7247984,236.111235 85.4788632,234.357836 C94.232928,232.604438 110.865651,237.864634 110.865651,237.864634 C110.865651,237.864634 110.865651,242.248131 107.364025,243.124831" id="Shape" stroke="#0070E0" stroke-width="3"></path>
                <path d="M68,246.777274 C68,246.777274 87.3476395,229.887017 112.851346,245.888313 C112.851346,245.888313 116.369099,250.333117 111.09247,250.333117 C105.815841,250.333117 89.985954,239.665587 68.8794382,253" id="Shape" stroke="#0070E0" stroke-width="3"></path>
                <path d="M112.72,251 C112.72,251 119.2,257 103,257" id="Shape" stroke="#0070E0" stroke-width="3"></path>
                <path d="M70,259.480537 C70,259.480537 88.4348597,244.945912 101.978838,256.396654 C115.522817,267.847395 79.2305539,252.694276 77.6469233,271" id="Shape" stroke="#0070E0" stroke-width="3"></path>
                <path d="M105,400 C105,400 96.9,335.878378 96,335" id="Shape" stroke="#0070E0" stroke-width="3"></path>
                <path d="M78,297 C78,297 79.6666667,301.5 83,297" id="Shape" stroke="#0070E0" stroke-width="2"></path>
                <path d="M301,472 L301,333" id="Shape" stroke="#0070E0" stroke-width="3"></path>
                <path d="M301,344 L306.302326,365 C306.302326,365 322.209302,348.375 339,351.875" id="Shape" stroke="#0070E0" stroke-width="3"></path>
                <path d="M335,400 C335,400 343.82,333 342.938,333" id="Shape" stroke="#0070E0" stroke-width="3"></path>
                <path d="M308,365.739447 C308,365.739447 320.255691,422.724908 333.386788,430.615202 C346.517885,438.505497 350.019511,438.505497 360.524389,425.355006 C371.029266,412.204515 367.52764,365.739447 367.52764,365.739447 L365.776827,304.370488 C365.776827,304.370488 378.907925,264.919015 375.406299,257.02872 L375.406299,247.385027 C375.406299,247.385027 362.275202,235.111235 353.521137,233.357836 C344.767072,231.604438 328.134349,236.864634 328.134349,236.864634 C328.134349,236.864634 328.134349,241.248131 331.635975,242.124831" id="Shape" stroke="#0070E0" stroke-width="3"></path>
                <path d="M370,246.777274 C370,246.777274 350.652361,229.887017 325.148654,245.888313 C325.148654,245.888313 321.630901,250.333117 326.90753,250.333117 C332.184159,250.333117 348.014046,239.665587 369.120562,253" id="Shape" stroke="#0070E0" stroke-width="3"></path>
                <path d="M326.28,250 C326.28,250 319.8,256 336,256" id="Shape" stroke="#0070E0" stroke-width="3"></path>
                <path d="M368,259.480537 C368,259.480537 349.56514,244.945912 336.021162,256.396654 C322.477183,267.847395 358.769446,252.694276 360.353077,271" id="Shape" stroke="#0070E0" stroke-width="3"></path>
                <g id="Group"></g>
                <path d="M184,150 C184,150 192.99556,138.060852 202,139.059307" id="Shape" stroke="#0070E0" stroke-width="2"></path>
                <path d="M165.0047,150 C165.0047,150 164.127067,136.82402 186.357521,124.526439 C208.587975,112.228858 248.669492,104.32327 278,150" id="Shape" stroke="#0070E0" stroke-width="2"></path>
                <path d="M178,151 C178,151 189.004305,135 200,135" id="Shape" stroke="#0070E0" stroke-width="2"></path>
                <path d="M175,150 C175,150 181.694531,134.7 197,132" id="Shape" stroke="#0070E0" stroke-width="2"></path>
                <path d="M169,150 C169,150 177.666667,128.706897 195,125" id="Shape" stroke="#0070E0" stroke-width="2"></path>
                <path d="M205,138.598415 C205,138.598415 225.546065,130.705009 247,150" id="Shape" stroke="#0070E0" stroke-width="2"></path>
                <path d="M202,134.094545 C202,134.094545 234.270068,123.490909 254,150" id="Shape" stroke="#0070E0" stroke-width="2"></path>
                <path d="M200,128.535926 C200,128.535926 238.955211,115.120879 262,150" id="Shape" stroke="#0070E0" stroke-width="2"></path>
                <path d="M198,124.747951 C198,124.747951 245.038594,106.371517 269,151" id="Shape" stroke="#0070E0" stroke-width="2"></path>
                <path d="M175.254852,130.517084 C168.29005,132.332922 157.921201,129.025816 152.749836,120.630854 C149.546027,115.437733 148.605779,107.735773 152.863014,96.4284526 C152.863014,96.4284526 165.399657,71.8663921 184.204622,81.0596204 C203.009587,90.2528488 198.534702,107.621735 198.534702,107.621735 C198.317052,111.376221 197.333273,116.736013 193.250158,120.244879 C192.445277,120.923393 191.569524,121.511665 190.638358,121.999312 C176.090628,129.999526 176.787108,130.113564 175.254852,130.517084 Z" id="Shape" stroke="#0070E0" stroke-width="2"></path>
                <g id="Group"></g>
                <path d="M177.084919,108.048076 C182.13969,105.341621 177.89823,99.7178162 173.648024,99.1114998 C171.463739,98.6972816 169.222437,99.4561167 167.733065,101.114121 C166.243694,102.772125 165.721311,105.089889 166.354461,107.230867 C169.362837,118.821177 190.88497,116.378337 189.905498,103.663266 C189.415763,97.3364866 181.667445,92.8462303 176.324079,91.1503018 C170.622157,89.3401397 163.52099,90.3506671 159.795501,95.4823886 C156.070012,100.61411 156.883323,109.541899 159.454435,115.016322 C162.139236,120.692849 168.497054,123.337795 174.522552,122.88086 C181.282653,122.37999 188.978499,118.126988 193.23745,112.82831 C197.496401,107.529632 196.403241,100.438366 194.488025,94.3752021 C189.95797,80.1750961 171.409232,78.5582523 160.07535,85.4561998 C149.100024,92.1520419 144.062743,108.302905 151.574938,119.471429 C158.947209,130.402699 177.994428,127.696243 187.736669,121.861546 C198.773212,115.244789 205.725709,97.5473792 197.181571,86.2206858 C192.878893,80.5265838 184.93818,78.8394425 178.283022,78.1804029 C170.998204,77.459853 163.582207,78.7867194 158.273823,84.1820567 C148.942609,93.6546521 144.10647,112.301078 153.114108,123.390518 C157.87154,129.260364 164.754075,130.218168 171.898968,129.963339 C178.895192,129.70851 185.541604,128.381644 189.879263,122.415139 C193.70095,117.142823 194.907798,110.32396 195.563694,103.962031 C196.307043,96.7828933 194.802855,90.6933677 188.173933,87.002746 C182.192162,83.6723994 174.478825,82.6091489 167.954847,84.8674578 C161.430868,87.1257668 157.346823,92.3717218 154.60955,98.4260987 C152.064674,104.049903 148.66276,111.852932 152.860495,117.511885 C156.900814,122.995094 165.698565,125.227041 172.100109,125.358849 C184.964415,125.622465 200.085004,113.724604 195.065213,99.4278388 C192.94011,93.3910363 186.757198,91.431492 181.011549,90.5000494 C174.111524,89.3752885 166.249517,89.4543733 160.556341,94.1203734 C155.947578,97.898867 153.420192,104.208073 156.070012,109.875813 C158.894737,115.903828 165.602367,118.443327 171.767789,119.172664 C178.335494,119.945938 184.527152,119.629599 186.04883,112.002314 C187.198872,106.106817 184.205484,100.181942 178.790248,97.6352512 C174.627495,95.684494 167.59629,95.4472398 165.270046,100.271409 C163.52099,103.93567 165.55864,109.243135 169.712648,110.077918 C173.411901,110.816043 176.813815,106.756359 173.105817,104.225647 C171.706572,103.27663 170.386035,105.552513 171.776534,106.50153 C169.222912,104.744091 168.024809,108.030502 167.403894,103.970818 C167.106555,102.090359 167.508838,101.791594 168.960554,100.543812 C171.584138,98.3558011 175.08225,98.575481 178.073135,100.130814 C183.320303,102.898781 186.21499,111.246615 181.081511,115.49083 C177.5834,118.346668 170.114931,116.677101 166.162065,115.192065 C160.162803,112.951331 155.554041,107.0024 158.676105,100.5526 C163.319849,90.9833451 176.743853,91.3348328 185.366698,94.1203734 C197.898684,98.17127 193.464827,113.496137 184.798255,119.269324 C180.804657,121.795862 176.118374,122.989194 171.409232,122.678755 C166.267008,122.423926 159.165841,120.684062 155.562786,116.606804 C151.443759,111.914442 154.731984,104.621071 156.935795,99.7266034 C158.842266,95.4823886 161.448359,91.3524072 165.497423,88.8832056 C173.289467,84.1293335 188.838574,85.6934541 192.476611,95.2802831 C194.059506,99.4629876 193.07129,104.823176 192.257979,109.10254 C191.383451,113.496137 190.097895,118.144563 187.168226,121.668228 C183.880001,125.631252 179.148805,126.817524 174.225212,127.160224 C169.13546,127.520499 163.346085,127.775328 158.851011,124.963426 C149.397364,119.058431 149.992043,106.387297 153.4989,97.2310402 C155.125522,92.9956126 157.329332,88.6635258 160.661284,85.508923 C165.033924,81.3350057 171.006949,80.2366064 176.875032,80.6408174 C181.308889,80.9220076 186.188755,81.7919398 190.211583,83.8129945 C195.817307,86.6336839 197.94241,92.0378084 198.082335,98.1009725 C198.381191,108.107581 192.521482,117.267535 183.337793,121.149783 C175.948032,124.418619 164.15065,126.009102 157.040738,121.220081 C149.073789,115.851105 149.563524,103.27663 153.726277,95.7372172 C158.405002,87.2839363 168.190969,83.110019 177.557164,84.243567 C184.343501,85.0607761 189.800555,88.2417404 192.039347,94.9990929 C193.86711,100.570174 194.969015,107.239655 190.57014,111.870506 C183.486463,119.322047 165.681074,125.850932 161.282199,112.081399 C159.533143,106.633338 158.98219,98.3558011 164.28183,94.7442642 C169.371582,91.2821097 175.904306,92.9868254 180.749191,95.9744714 C183.652624,97.7319103 187.29066,100.368069 187.421839,104.155349 C187.553018,107.94263 184.282284,110.930276 180.889115,111.712336 C177.632254,112.421929 174.228496,111.727078 171.50543,109.796728 C170.278619,109.034296 169.418298,107.798013 169.126714,106.37851 C168.176394,104.211002 169.240403,102.600016 172.318741,101.545553 C174.671222,101.317086 175.816853,102.687888 175.816853,105.65796 C174.32141,106.457594 175.650693,108.733478 177.13739,107.933843 L177.084919,108.048076 Z" id="Shape" fill="#0070E0" fill-rule="nonzero"></path>
                <path d="M188.910049,91.6947385 C188.678964,85.4706376 179.000062,85.3649951 174.538345,85.9020109 C171.658672,86.2453489 167.516919,88.8071783 170.61879,91.914827 C172.120842,93.4114283 174.707215,93.3321965 176.644773,93.3938213 C179.160044,93.4642496 182.164147,93.9924618 183.381787,91.3073829 C185.248242,87.1697203 180.35102,83.9564292 176.751428,84.0004468 C173.285154,84.0004468 166.903656,87.5218618 170.085517,91.6771315 C172.138618,94.3181927 176.938073,92.1965402 175.418246,88.9568384 C172.956303,83.8771973 166.485925,90.6119034 164.894994,92.8920196 C163.659579,94.6527271 162.326397,97.0032716 163.117418,99.221763 C163.666091,100.969582 165.438394,102.043215 167.259171,101.730771 C171.418699,100.850417 168.307941,96.2461674 164.637246,97.4962697 C160.824345,98.7903897 158.469056,106.176558 164.121749,104.952866 L163.090755,102.540697 C160.913224,103.649942 156.753695,106.299807 157.011444,109.231385 C157.269192,112.162963 160.442166,112.083731 162.513042,111.625947 L161.482048,109.213778 C160.667616,109.672905 160.088875,110.453585 159.890442,111.360742 C159.692008,112.2679 159.892626,113.215839 160.442166,113.967688 C162.077536,116.4855 165.303837,115.728396 167.676901,114.89206 L165.988204,113.615547 L165.49937,116.459089 C165.268877,116.86838 165.271358,117.367284 165.505911,117.774306 C165.740463,118.181327 166.1729,118.437143 166.645907,118.448689 C168.235693,118.575622 169.830363,118.27128 171.258717,117.568335 L169.481141,117.101747 C170.03219,118.2286 168.64568,119.513917 170.165508,120.561538 C171.863093,121.732408 174.609449,120.279824 176.102613,119.443488 C176.708977,119.063537 176.902994,118.276384 176.54161,117.66241 C176.180226,117.048435 175.393078,116.827884 174.760542,117.163372 C171.20539,119.161775 172.787433,117.841245 171.783102,115.76361 C171.402955,115.146533 170.598815,114.936721 169.961087,115.288219 L166.690346,115.772413 L167.845771,117.762013 C168.591875,116.500417 168.903806,115.032805 168.734559,113.580333 C168.725961,113.17139 168.529007,112.788802 168.199899,112.541739 C167.87079,112.294676 167.445676,112.210277 167.045862,112.312623 C165.632689,113.122549 164.246179,112.832032 162.904109,111.432269 C163.476561,111.096061 163.711011,110.393187 163.453453,109.785351 C163.195895,109.177516 162.525229,108.850921 161.882003,109.0201 C160.922112,107.593927 161.093944,106.607931 162.3975,106.062112 C163.024356,105.509642 163.743034,105.068826 164.521703,104.759188 C165.917101,104.054905 164.91277,102.038895 163.490709,102.347019 L166.503701,95.3041889 C166.920143,94.5766771 167.421287,93.9000521 167.996865,93.2881788 C169.134514,91.932434 170.44992,90.7175459 171.694224,89.4498365 C172.756426,87.6409936 174.728272,86.5480486 176.840307,86.5974904 L180.759862,88.3581979 L179.675541,90.735153 L177.471346,90.6823317 C176.706988,90.6823317 175.142721,90.9200272 174.467242,90.5326716 C172.165281,89.2033374 174.689439,88.4286262 176.32481,88.3758049 C178.608995,88.2965731 186.199245,87.9620387 186.332564,91.6155067 C186.394779,93.3057859 189.061143,93.3145894 188.998928,91.6155067 L188.910049,91.6947385 Z" id="Shape" fill="#0070E0" fill-rule="nonzero"></path>
                <path d="M155.481555,113.214611 L156.949255,112.322317 L155.199962,110.588236 C154.234507,111.885602 153.504088,113.338099 153.041077,114.881349 C152.926811,115.317177 153.054746,115.780118 153.377422,116.098435 C153.700099,116.416753 154.169379,116.54296 154.611175,116.430237 L159.056941,115.268571 L157.61484,113.41664 L156.898056,114.527799 C156.70555,114.867794 156.680485,115.27577 156.829957,115.636212 C156.97943,115.996654 157.287168,116.270322 157.666039,116.37973 C158.251411,116.571661 158.723335,117.005077 158.959192,117.567364 C159.195049,118.129652 159.171554,118.7653 158.894811,119.309149 C158.791714,119.689542 158.873142,120.095593 159.115293,120.408608 C159.357445,120.721624 159.732977,120.90626 160.132116,120.908544 C161.139027,120.841201 167.001294,121.085319 167.462084,120.066757 C166.805032,121.539884 169.006582,122.827818 169.672167,121.337855 C171.890783,116.37973 162.197136,118.248497 160.132116,118.383183 L161.360889,119.982578 C161.842712,118.79136 161.789945,117.454466 161.215688,116.303813 C160.64143,115.15316 159.599539,114.296662 158.34869,113.946966 L159.116673,115.798897 L159.824923,114.687738 C160.06953,114.242393 160.024804,113.696625 159.710854,113.295825 C159.396905,112.895026 158.872838,112.714653 158.37429,112.835807 L153.937057,113.997473 L155.507155,115.554779 C155.920671,114.226513 156.564502,112.97903 157.410045,111.867752 C158.186561,110.823936 156.693261,109.510748 155.703417,110.184178 L154.235717,111.076472 C152.836282,111.918259 154.116253,114.115323 155.524221,113.2567 L155.481555,113.214611 Z" id="Shape" fill="#0070E0" fill-rule="nonzero"></path>
                <path d="M165.069513,88.3926408 C163.101689,90.4542763 161.481608,92.8327253 160.274644,95.4320083 L162.680861,96.4695771 L164.191332,92.7754745 C164.691895,91.5411254 162.803806,90.4767229 161.987098,91.4695689 C158.385016,95.8278773 155.10621,100.453048 152.177815,105.306801 C151.413797,106.567984 153.301887,108.15117 154.24154,106.93471 L164.920222,93.1779796 L162.856497,91.55007 L158.123101,99.8595647 C157.39421,101.129692 159.203263,102.677101 160.195608,101.47853 L166.966384,93.3568708 L164.76215,92.0509652 L163.418533,97.8112608 C163.296694,98.3324662 163.486751,98.8779539 163.903903,99.2043416 C164.321056,99.5307294 164.887511,99.5771497 165.350531,99.3228912 L169.741436,96.451688 L167.765529,95.2888954 C168.009998,96.5656023 167.869163,97.8877854 167.361566,99.0813881 C167.235174,99.603974 167.423345,100.153308 167.841473,100.482394 C168.2596,100.81148 168.828965,100.858363 169.293564,100.601963 L174.85245,96.6305791 L172.867761,95.4677865 C172.74767,96.5242702 172.86478,97.5947366 173.210252,98.598382 C173.325775,98.996551 173.613594,99.3191304 173.99172,99.4742294 C174.369846,99.6293283 174.796827,99.5999443 175.151032,99.3944477 C177.911315,97.8556858 180.553392,96.1065092 183.054662,94.161881 L181.113881,93.3658153 L181.394899,95.9865709 C181.403405,96.4641969 181.657395,96.9022337 182.063946,97.1404245 C182.470497,97.3786152 182.969954,97.3820087 183.379589,97.1493635 L185.346714,96.1922958 L183.362025,95.0295032 C183.365137,96.585687 183.097548,98.1301269 182.571662,99.591228 C182.441217,100.114233 182.628933,100.666129 183.049077,100.994857 C183.469221,101.323585 184.041152,101.36605 184.50366,101.102858 L186.374186,99.7969528 L184.433406,98.2763779 C183.596548,100.926045 182.617363,103.526869 181.500281,106.067088 C180.938245,107.337216 182.518971,108.965125 183.564007,107.694998 L185.408187,105.458858 L183.212734,104.152953 L182.554098,107.328271 C182.343335,108.356895 183.48497,109.591244 184.486097,108.839901 L187.12064,106.898932 L185.135951,105.73614 L184.573915,110.727203 C184.433406,112.006275 186.049259,112.319335 186.822058,111.675326 L191.063673,108.097503 L188.86822,107.498218 L189.623456,110.807704 C189.75028,111.266876 190.105493,111.623863 190.557967,111.746881 C191.010441,111.869899 191.49307,111.740705 191.827691,111.40699 C191.933072,111.272821 193.171308,109.385519 193.513798,109.322908 L191.897945,108.428452 L191.985763,108.732567 L192.863944,107.086768 L192.644399,107.176213 L194.269034,108.830957 C194.716011,107.098347 195.343063,105.419208 196.13956,103.822004 L193.865071,102.462431 L192.828817,104.71646 L195.235033,105.754029 C196.077787,102.867461 196.665579,99.9099557 196.991395,96.916805 C197.131904,95.6287886 195.516051,95.3246736 194.743252,95.9686818 C193.272443,97.1733394 191.879121,98.4729758 190.571892,99.8595647 L192.820035,100.807688 C192.907853,98.4821027 194.312943,92.9006983 192.539017,90.9686737 C192.205465,90.5520441 191.705642,90.3102848 191.177837,90.3102848 C190.650031,90.3102848 190.150208,90.5520441 189.816656,90.9686737 C189.479821,91.3093287 189.34898,91.8082207 189.474165,92.2745792 L189.588329,92.5786942 C190.17671,94.1797701 192.723435,93.47315 192.126272,91.8631295 C190.817782,91.9794088 190.255746,92.5518605 190.440164,93.5983738 L190.352346,95.9865709 L190.185492,100.754021 C190.201995,101.288185 190.524217,101.762955 191.009006,101.967408 C191.493796,102.171862 192.05122,102.06807 192.433635,101.702144 C193.740865,100.315555 195.134187,99.0159185 196.604996,97.8112608 L194.356852,96.8631376 C194.048411,99.614832 193.498819,102.332892 192.714653,104.984797 C192.293126,106.415926 194.471016,107.408772 195.12087,106.013421 L196.201032,103.768337 C196.938704,102.220928 194.681779,100.861355 193.926543,102.408764 C193.02849,104.215361 192.310642,106.109163 191.783781,108.061725 C191.546673,108.956181 192.442417,110.118973 193.408416,109.707524 L193.627962,109.618078 C194.320051,109.40605 194.726164,108.677258 194.550052,107.963335 L194.453452,107.65922 C194.223921,106.979511 193.522428,106.591199 192.837599,106.764764 C191.4852,107.024156 190.765091,108.553675 189.98351,109.546521 L192.187745,110.136862 L191.423727,106.827376 C191.290385,106.373207 190.934416,106.022568 190.484302,105.902018 C190.034187,105.781467 189.554923,105.908413 189.219493,106.237035 L184.977878,109.814858 L187.226022,110.762981 L187.788058,105.771918 C187.781684,105.293597 187.527375,104.854392 187.119484,104.617255 C186.711593,104.380117 186.210976,104.380427 185.803368,104.61807 L183.168825,106.559039 L185.100823,108.079614 L185.759459,104.904296 C186.00535,103.705725 184.468533,102.489265 183.555225,103.59839 L181.711044,105.83453 L183.783552,107.462439 C185.00956,104.699096 186.091233,101.871649 187.02404,98.9919425 C187.148781,98.4681871 186.957998,97.9188271 186.537673,97.5914446 C186.117347,97.2640622 185.546838,97.2204693 185.08326,97.4803122 L183.221516,98.7862177 L185.153514,100.306793 C185.659208,98.5914129 185.954184,96.8188011 186.031695,95.0295032 C186.020178,94.5534801 185.764994,94.1182853 185.358977,93.8822371 C184.952959,93.6461889 184.455287,93.6436922 184.047006,93.8756551 L182.079881,94.8774457 L184.06457,96.0312937 C184.282453,94.9070603 184.153621,93.7417045 183.695734,92.6949734 C183.582251,92.2952076 183.295268,91.9703927 182.916874,91.8134397 C182.538479,91.6564866 182.110352,91.6846829 181.754954,91.8899632 C179.256427,93.8385507 176.614045,95.5879289 173.851324,97.1225298 L175.792104,97.9275401 L175.537432,95.5125093 C175.531058,95.0341882 175.276749,94.5949838 174.868858,94.3578462 C174.460967,94.1207086 173.96035,94.1210187 173.552742,94.3586613 L168.002638,98.3211007 L169.934636,99.8416756 C170.412069,98.404186 170.582726,96.8794516 170.435199,95.3693964 C170.423682,94.8933733 170.168498,94.4581785 169.762481,94.2221304 C169.356463,93.9860822 168.858791,93.9835854 168.45051,94.2155484 L164.059605,97.0867516 L165.991603,98.598382 L167.33522,92.8470309 C167.616238,91.630571 166.035512,90.4588338 165.130986,91.5411254 L158.368991,99.6627844 L160.432717,101.290694 L165.166113,92.9811993 C165.886221,91.711072 164.050823,90.1278852 163.093606,91.3622342 L152.414924,105.118965 L154.487431,106.73793 C157.29604,102.079152 160.43666,97.6366739 163.883969,93.4463163 L161.679734,92.1404108 L160.134135,95.7719015 C159.563318,97.1672526 161.890498,98.1779877 162.540352,96.8094703 C163.644003,94.4113364 165.127442,92.2144435 166.931257,90.3067763 C168.10802,89.0545382 166.246276,87.1582918 165.069513,88.41053 L165.069513,88.3926408 Z" id="Shape" fill="#0070E0" fill-rule="nonzero"></path>
                <path d="M169.373095,131.425566 L171.732114,134.591805 C172.257378,135.136065 173.094065,135.136065 173.619329,134.591805 C174.12689,134.027256 174.12689,133.137166 173.619329,132.572617 L171.26031,129.415858 C170.73898,128.861381 169.894425,128.861381 169.373095,129.415858 C168.875635,129.981032 168.875635,130.860393 169.373095,131.425566 Z" id="Shape" fill="#0070E0" fill-rule="nonzero"></path>
                <path d="M172.253916,129.607302 C175.480542,126.245307 179.12571,123.281576 183.106351,120.783647 C184.743463,119.77082 186.433242,118.839593 188.169047,117.993626 C188.665564,117.753992 196.618696,113.791478 196.299507,116.701316 C196.113313,118.344518 198.773224,118.327401 198.959418,116.701316 C199.633262,110.607773 191.733327,113.577519 188.79856,114.86983 C181.848207,117.98166 175.590737,122.367841 170.374246,127.784374 C169.195019,128.991101 171.074689,130.80547 172.253916,129.607302 Z" id="Shape" fill="#0070E0" fill-rule="nonzero"></path>
                <path d="M194.004817,115.632153 C193.293298,116.825445 192.374966,117.876188 191.29484,118.732872 L193.357919,120.359186 L194.53807,118.357569 L192.142801,117.321017 C191.766901,118.375441 186.023499,118.75968 185.079378,119.036689 C182.793045,119.655747 180.588578,120.555895 178.514242,121.717427 C175.297238,123.504585 172.587262,125.87257 171.520755,129.580923 C171.375833,130.164825 171.62712,130.776188 172.136535,131.079074 C172.64595,131.381961 173.290071,131.302987 173.714961,130.885549 C180.708449,124.862825 188.506187,121.520839 197.108177,118.715001 L196.408828,116.132557 C191.565838,118.053752 186.242046,119.599644 181.65257,122.074858 C180.204376,122.91644 178.951777,124.068788 177.980989,125.452588 C176.168583,127.781247 173.704496,129.489509 170.917567,130.349402 C169.309064,130.858742 169.990929,133.450121 171.608173,132.931845 C175.559494,131.671899 177.841119,129.491566 180.559837,126.408717 C184.196451,122.280382 192.090349,120.707682 197.108177,118.715001 C198.646744,118.107367 198.052297,115.596409 196.408828,116.132557 C187.361004,119.081368 179.187365,122.655685 171.861687,128.991161 L174.055894,130.295787 C175.594461,124.693045 182.893914,122.021244 187.929225,121.065114 C190.551782,120.56471 193.567724,121.002563 194.625489,118.009073 C195.15,116.552539 192.973277,115.703639 192.230219,116.981457 L191.067552,118.974139 C190.760635,119.555945 190.911236,120.279366 191.423306,120.683028 C191.935377,121.086691 192.658135,121.051734 193.130631,120.600453 C194.31757,119.527558 195.363631,118.302106 196.242733,116.95465 C197.195595,115.524923 194.922712,114.184554 193.978591,115.605345 L194.004817,115.632153 Z" id="Shape" fill="#0070E0" fill-rule="nonzero"></path>
                <path d="M168,130.206198 C168.108863,131.721815 168.947499,133.086607 170.243314,133.856956 C170.809459,134.163397 171.513989,133.961942 171.837442,133.401126 C172.160895,132.84031 171.987242,132.121309 171.444521,131.774255 C170.868324,131.447962 170.476708,130.867559 170.386504,130.206198 C170.369779,129.547163 169.845214,129.016907 169.193252,129 C168.536042,129.004385 168.004338,129.541858 168,130.206198 Z" id="Shape" fill="#0070E0" fill-rule="nonzero"></path>
                <path d="M198.000405,112.746383 L198.577816,117.027229 C198.776323,117.742697 199.44968,118.151126 200.095583,117.94784 C200.744506,117.733665 201.12659,116.986396 200.9617,116.253915 L200.392537,111.973069 C200.190397,111.256337 199.514529,110.848601 198.866522,111.052458 C198.232989,111.289661 197.872434,112.034106 198.041649,112.75559 L198.000405,112.746383 Z" id="Shape" fill="#0070E0" fill-rule="nonzero"></path>
                <path d="M183.843323,121.425745 C182.533903,123.25185 180.472538,124.31505 178.292819,124.288555 C177.578815,124.288555 177,124.895048 177,125.643196 C177,126.391344 177.578815,126.997838 178.292819,126.997838 C181.164069,127.061237 183.901349,125.727201 185.704983,123.38546 C186.713382,122.030818 184.894816,120.098196 183.877798,121.4709 L183.843323,121.425745 Z" id="Shape" fill="#0070E0" fill-rule="nonzero"></path>
                <path d="M170.241338,131.600456 C177.738867,123.698378 187.405193,118.124833 198.058623,115.561177 C199.707382,115.160631 199.010847,112.635445 197.353272,113.0447 C186.261405,115.728167 176.194885,121.529237 168.372157,129.745751 C167.199511,130.973514 169.068692,132.819511 170.241338,131.600456 Z" id="Shape" fill="#0070E0" fill-rule="nonzero"></path>
                <path d="M172.603922,131.979624 C179.973699,124.850721 189.128418,119.921007 199.066814,117.729653 L198.370422,115.170149 C187.294758,117.768578 177.167169,123.500795 169.156782,131.705075 L171.211138,131.979624 L172.865069,127.046601 C173.481951,126.693282 174.128697,126.396884 174.797556,126.16096 C175.842144,125.709282 176.912847,125.275318 177.966139,124.885636 C180.072725,123.999994 182.161901,123.114353 184.242371,122.228712 C186.465022,121.242697 188.667362,120.221258 190.84939,119.164392 C192.024551,118.588725 196.612033,115.382703 197.674031,116.153211 C199.0407,117.153986 200.346435,114.851318 198.98847,113.8594 L198.057046,113.186312 C197.652916,112.937896 197.146736,112.937896 196.742606,113.186312 C189.256393,117.162843 181.517738,120.271444 173.787788,123.716589 C169.957632,125.408164 166.179706,128.924161 168.956569,133.352368 C169.165802,133.703041 169.52078,133.937512 169.920772,133.989243 C170.320763,134.040975 170.722111,133.904321 171.010925,133.618061 C178.701985,125.741787 188.429977,120.244985 199.066814,117.765079 C200.703335,117.384253 200.006943,114.842462 198.370422,115.205575 C187.997935,117.521441 178.447895,122.685888 170.758483,130.13749 C169.531092,131.315393 171.385236,133.192953 172.603922,132.01505 L172.603922,131.979624 Z" id="Shape" fill="#0062E0" fill-rule="nonzero"></path>
                <path d="M172.865218,133.588907 C178.807553,128.016498 187.264974,125.260437 194.641971,121.97039 C197.298753,120.790452 206.296386,117.595144 201.726722,113.357701 C197.706126,109.645632 192.2243,114.503189 188.859043,116.544396 C182.73959,120.247852 174.574414,122.177095 169.375978,127.069102 C169.050612,127.398072 168.924925,127.868106 169.04428,128.309553 C169.163636,128.750999 169.510801,129.100113 169.96047,129.230887 C172.404709,130.178283 174.459287,129.360077 175.858525,127.293032 C176.806111,125.906389 174.503567,124.605873 173.564837,125.992516 L170.668945,126.74182 L171.253437,128.903605 C175.034923,125.337951 180.915266,123.735991 185.502643,121.376114 C187.769763,120.196176 189.992603,118.938724 192.135741,117.543468 C192.922067,116.864606 193.793996,116.285781 194.730531,115.82093 C195.616124,114.959661 196.501718,115.080239 197.316465,116.225726 C199.21754,116.799906 199.418274,117.290829 197.918669,117.698496 C196.935659,119.110977 191.914342,120.377043 190.267138,121.143572 C187.805187,122.245996 185.33438,123.331195 182.890141,124.442232 C178.559587,126.414538 174.468143,128.559097 171.014327,131.806081 C169.774496,132.960181 171.66081,134.786071 172.891786,133.631971 L172.865218,133.588907 Z" id="Shape" fill="#0062E0" fill-rule="nonzero"></path>
                <path d="M201,131 C201,131 213.173913,127.875 221,129.4375" id="Shape" stroke="#0070E0" stroke-width="2"></path>
                <path d="M240,135 C240,135 250.736842,139.333333 257,148" id="Shape" stroke="#0070E0" stroke-width="2"></path>
                <path d="M213,123.604018 C213,123.604018 243.625,117.363524 262,145" id="Shape" stroke="#0070E0" stroke-width="2"></path>
                <path d="M272,148 C267.230499,138.523156 259.962935,130.563444 251,125" id="Shape" stroke="#0070E0" stroke-width="2"></path>
                <path d="M196,130 C196,130 180.961538,131.73913 173,150" id="Shape" stroke="#0070E0" stroke-width="2"></path>
                <path d="M222,134 C222,134 237.517241,136.538462 247,145" id="Shape" stroke="#0070E0" stroke-width="2"></path>
                <path d="M198,123 C198,123 212.08,116.375357 220.44,118.376733 C220.44,118.376733 233.9128,116.943433 242,122.685373" id="Shape" stroke="#0070E0" stroke-width="2"></path>
                <text id="Get-Stuff-Done." font-family="Chalkboard-Bold, Chalkboard" font-size="32" font-weight="bold" line-spacing="40" letter-spacing="0.25" fill="#0070E0">
                    <tspan x="169" y="208">Get</tspan>
                    <tspan x="169" y="248">Stuff</tspan>
                    <tspan x="169" y="288">Done</tspan>
                    <tspan x="243.264088" y="288">.</tspan>
                </text>
            </g>
        </g>
    </g>
</svg>