<?xml version="1.0" encoding="UTF-8"?>
<svg width="171px" height="30px" viewBox="0 0 171 30" version="1.1" xmlns="http://www.w3.org/2000/svg" xmlns:xlink="http://www.w3.org/1999/xlink">
    <!-- Generator: Sketch 51.3 (57544) - http://www.bohemiancoding.com/sketch -->
    <title>Group</title>
    <desc>Created with Sketch.</desc>
    <defs></defs>
    <g id="Dribbble" stroke="none" stroke-width="1" fill="none" fill-rule="evenodd">
        <g id="home-2" transform="translate(-1115.000000, -745.000000)" fill="#4BC7E7" fill-rule="nonzero">
            <g id="Group-3" transform="translate(1090.000000, 685.000000)">
                <g id="Group" transform="translate(25.000000, 60.000000)">
                    <path d="M6.74390244,8.88 C7.31585366,8.07317073 8.62853659,6.1197561 12.467561,6.1197561 C15.2278049,6.1197561 16.6073171,7.19658537 17.1790244,7.73560976 C18.8297561,9.35170732 18.93,11.6743902 18.93,12.9878049 L18.93,23.9968293 L11.9960976,23.9968293 L11.9960976,14.4687805 C11.9960976,13.5941463 11.9612195,11.8429268 9.63780488,11.8429268 C7.18073171,11.8429268 7.11414634,13.7619512 7.11414634,14.7046341 L7.11414634,23.9968293 L0.179512195,23.9968293 L0.179512195,6.55731707 L6.74390244,6.55731707 L6.74390244,8.88 Z" id="Shape"></path>
                    <path d="M21.3858537,6.55731707 L28.3207317,6.55731707 L28.3207317,16.0512195 C28.3207317,17.0953659 28.3541463,18.8782927 30.812439,18.8782927 C33.27,18.8782927 33.3026829,16.9595122 33.3363415,15.7812195 L33.3363415,6.55707317 L40.3058537,6.55707317 L40.3058537,23.9965854 L33.7070732,23.9965854 L33.7070732,21.4365854 C33.4704878,21.9429268 33.3363415,22.244878 32.8334146,22.7170732 C31.5526829,23.962439 29.7343902,24.4334146 27.95,24.4334146 C25.1904878,24.4 23.7417073,23.3565854 23.1363415,22.7170732 C21.4536585,21.0665854 21.4195122,18.8112195 21.3860976,17.1612195 L21.3860976,6.55731707 L21.3858537,6.55731707 Z" id="Shape"></path>
                    <path d="M43.77,17.6668293 L49.8978049,17.6668293 L49.8978049,22.515122 C49.8639024,24.4336585 49.8304878,26.4204878 48.1797561,28.1043902 C46.8329268,29.4504878 45.3192683,29.6860976 43.77,29.9553659 L43.77,26.992439 C45.7902439,26.3521951 45.8241463,25.0743902 45.8585366,23.9968293 L43.77,23.9968293 L43.77,17.6668293 Z" id="Shape"></path>
                    <path d="M59.9287805,9.08243902 C60.4670732,8.20609756 61.6456098,6.15365854 65.4504878,6.15365854 C66.0558537,6.15365854 67.0326829,6.2204878 68.1080488,6.55731707 C70.3653659,7.26487805 71.0380488,8.5104878 71.5102439,9.41902439 C72.0146341,8.27390244 73.5970732,6.15365854 77.57,6.15365854 C79.455122,6.15365854 81.2729268,6.75902439 82.4178049,7.90390244 C83.9997561,9.45243902 84.0336585,11.337561 84.0680488,12.987561 L84.0680488,23.9965854 L77.1329268,23.9965854 L77.1329268,14.8726829 C77.1329268,13.7614634 77.0990244,11.8758537 74.707561,11.8758537 C72.1836585,11.8758537 72.1492683,13.9295122 72.1492683,14.7043902 L72.1492683,24.03 L65.2141463,24.03 L65.2141463,14.6034146 C65.2141463,14.2660976 65.1812195,13.9295122 65.1134146,13.5939024 C64.81,12.2460976 63.6317073,11.8758537 62.7907317,11.8758537 C62.0834146,11.8758537 61.3765854,12.112439 60.9058537,12.582439 C60.2656098,13.222439 60.2656098,13.9295122 60.2319512,14.5363415 L60.2319512,24.0297561 L53.297561,24.0297561 L53.297561,6.59097561 L59.9290244,6.59097561 L59.9290244,9.08243902 L59.9287805,9.08243902 Z" id="Shape"></path>
                    <path d="M94.7012195,0.228292683 L94.7012195,7.76902439 C95.3734146,7.1297561 96.5195122,6.05219512 99.1453659,6.05219512 C102.950976,6.05219512 106.754878,8.77902439 106.754878,14.8729268 C106.754878,20.36 103.891951,24.4336585 98.8765854,24.4336585 C98.2034146,24.4336585 97.2592683,24.3663415 96.2841463,23.9968293 C95.3080488,23.6253659 94.9707317,23.255122 94.4997561,22.7173171 L94.4997561,23.9968293 L87.7668293,23.9968293 L87.7668293,0.228292683 L94.7012195,0.228292683 Z M99.9204878,15.2431707 C99.9204878,14.4353659 99.8534146,13.794878 99.7185366,13.1895122 C99.1121951,11.0009756 97.4634146,11.0009756 97.2260976,11.0009756 C96.5878049,11.0009756 95.9465854,11.3041463 95.474878,11.7758537 C94.5678049,12.7512195 94.5331707,14.2997561 94.5331707,15.2095122 C94.5331707,15.9839024 94.5680488,16.6912195 94.7685366,17.3631707 C95.3082927,19.2156098 96.7226829,19.417561 97.1926829,19.417561 C97.8663415,19.417561 98.5065854,19.1490244 98.9434146,18.6780488 C99.4158537,18.1731707 99.9204878,17.2297561 99.9204878,15.2431707 Z" id="Shape"></path>
                    <path d="M108.738049,17.6668293 L114.866098,17.6668293 L114.866098,22.515122 C114.83122,24.4336585 114.798537,26.4204878 113.14878,28.1043902 C111.801707,29.4504878 110.286829,29.6860976 108.738049,29.9553659 L108.738049,26.992439 C110.758293,26.3521951 110.791707,25.0743902 110.82561,23.9968293 L108.738049,23.9968293 L108.738049,17.6668293 Z" id="Shape"></path>
                    <path d="M135.636341,19.9231707 C133.582683,23.0534146 130.550976,24.7021951 126.378049,24.7021951 C119.914146,24.7021951 116.749024,20.057561 116.749024,15.2095122 C116.749024,9.52 120.688049,5.8504878 126.343659,5.8504878 C128.465366,5.8504878 131.22561,6.38878049 133.344878,8.44243902 C135.905366,10.9678049 135.93878,13.8636585 136.006829,16.5221951 L123.819512,16.5221951 C123.852927,17.2965854 123.886098,18.2056098 124.66122,18.98 C124.827561,19.1490244 125.46878,19.7882927 126.747805,19.7882927 C128.33122,19.7882927 129.206829,18.9465854 129.912439,17.5319512 L135.636341,19.9231707 Z M128.935366,12.8529268 C128.903415,12.5829268 128.903415,12.3146341 128.834878,12.0446341 C128.532439,10.7995122 127.454878,10.2602439 126.512927,10.2602439 C124.425122,10.2602439 124.055366,12.0787805 123.886341,12.8529268 L128.935366,12.8529268 Z" id="Shape"></path>
                    <path d="M145.396829,8.07317073 C147.281707,6.38902439 148.560488,6.18731707 151.219512,6.18731707 L151.219512,12.0446341 C150.749756,12.0104878 150.276829,11.9778049 149.807073,11.9778049 C145.733171,11.9778049 145.665854,14.6373171 145.631707,15.7817073 L145.631707,23.9970732 L138.73,23.9970732 L138.73,6.45609756 L145.396829,6.45609756 L145.396829,8.07317073 Z" id="Shape"></path>
                    <polygon id="Shape" points="153.54122 6.55731707 170.037561 6.55731707 170.037561 10.5295122 161.92439 18.777561 169.970244 18.777561 169.970244 23.9968293 152.495854 23.9968293 152.495854 20.1585366 160.779512 11.7412195 153.540976 11.7412195 153.540976 6.55731707"></polygon>
                </g>
            </g>
        </g>
    </g>
</svg>