<?xml version="1.0" encoding="UTF-8"?>
<svg width="300px" height="300px" viewBox="0 0 300 300" version="1.1" xmlns="http://www.w3.org/2000/svg" xmlns:xlink="http://www.w3.org/1999/xlink">
    <!-- Generator: Sketch 51.3 (57544) - http://www.bohemiancoding.com/sketch -->
    <title>bot</title>
    <desc>Created with Sketch.</desc>
    <defs>
        <polygon id="path-1" points="0.0495867769 0.459549466 0.0495867769 299.856439 299.906612 299.856439 299.906612 0.459549466 0.0495867769 0.459549466"></polygon>
        <circle id="path-3" cx="29.6307146" cy="29.6307146" r="29.6307146"></circle>
        <rect id="path-5" x="0" y="0" width="12.6988777" height="31.3238983"></rect>
    </defs>
    <g id="Page-1" stroke="none" stroke-width="1" fill="none" fill-rule="evenodd">
        <g id="bot">
            <g id="Group-16">
                <mask id="mask-2" fill="white">
                    <use xlink:href="#path-1"></use>
                </mask>
                <g id="Clip-14"></g>
                <path d="M31.8727273,279.587585 L268.034711,279.587585 C274.423967,279.587585 279.603306,274.417035 279.603306,268.03862 L279.603306,32.2773684 C279.603306,25.8989538 274.423967,20.7284036 268.034711,20.7284036 L31.8727273,20.7284036 C25.4826446,20.7284036 20.3041322,25.8989538 20.3041322,32.2773684 L20.3041322,268.03862 C20.3041322,274.417035 25.4826446,279.587585 31.8727273,279.587585 M288.338017,299.856439 L11.568595,299.856439 C5.18016529,299.856439 0,294.685889 0,288.307474 L0,12.0085143 C0,5.63009974 5.18016529,0.459549466 11.568595,0.459549466 L288.338017,0.459549466 C294.726446,0.459549466 299.906612,5.63009974 299.906612,12.0085143 L299.906612,288.307474 C299.906612,294.685889 294.726446,299.856439 288.338017,299.856439" id="Fill-15" fill="#4A90E2" mask="url(#mask-2)"></path>
            </g>
            <g transform="translate(59.000000, 48.000000)">
                <g id="Group-2" transform="translate(0.000000, 28.000000)">
                    <rect id="Rectangle-164" fill="#294A83" x="160.312675" y="38.096633" width="24.5511635" height="37.2500412" rx="7"></rect>
                    <rect id="Rectangle-164" fill="#294A83" x="0" y="38.096633" width="24.5511635" height="37.2500412" rx="7"></rect>
                    <path d="M12.2986731,20.9455389 C13.1822797,9.37763717 23.301447,0 34.8994436,0 L149.066999,0 C160.665454,0 170.784289,9.37928806 171.66777,20.9455389 L175.904579,76.4125233 C176.788186,87.980425 168.095473,97.3580622 156.509904,97.3580622 L27.4565385,97.3580622 C15.8615487,97.3580622 7.17838308,87.9787741 8.06186361,76.4125233 L12.2986731,20.9455389 Z" id="Rectangle-163" fill="#429BE5"></path>
                    <path d="M12.77823,22.1283729 C13.5800084,10.5574724 23.6404536,1.17740425 35.2382215,1.17740425 L142.75267,1.17740425 C154.355203,1.17740425 164.41134,10.5640677 165.212662,22.1283729 L168.919774,75.6277238 C169.721552,87.1986243 160.977337,96.5786925 149.365394,96.5786925 L28.6254983,96.5786925 C17.0241338,96.5786925 8.2697965,87.192029 9.07111791,75.6277238 L12.77823,22.1283729 Z" id="Rectangle-163" fill="#3DA1F3"></path>
                </g>
                <g id="Group-10" transform="translate(137.000000, 110.000000)">
                    <circle id="Oval-123" fill-opacity="0.106714221" fill="#000000" cx="4" cy="3" r="3"></circle>
                    <circle id="Oval-123" fill="#FFFFFF" cx="3" cy="3" r="3"></circle>
                </g>
                <g id="Group-10" transform="translate(147.000000, 110.000000)">
                    <circle id="Oval-123" fill-opacity="0.106714221" fill="#000000" cx="4" cy="3" r="3"></circle>
                    <circle id="Oval-123" fill="#FFFFFF" cx="3" cy="3" r="3"></circle>
                </g>
                <g id="Group-5" transform="translate(88.000000, 0.000000)" fill="#294A83">
                    <ellipse id="Oval-52" cx="4.23295923" cy="4.18902799" rx="4.23295923" ry="4.18902799"></ellipse>
                    <rect id="Rectangle-126" x="3.38636738" y="0.846591845" width="1.69318369" height="27.6428999"></rect>
                </g>
                <g id="Group-4" transform="translate(63.000000, 47.000000)">
                    <mask id="mask-4" fill="white">
                        <use xlink:href="#path-3"></use>
                    </mask>
                    <use id="Oval-115" fill="#FFFFFF" xlink:href="#path-3"></use>
                    <path d="M29.6307146,46.2239147 C36.1765513,46.2239147 41.4830004,40.9174656 41.4830004,34.3716289 C41.4830004,27.8257922 36.1765513,22.5193431 29.6307146,22.5193431 C23.0848779,22.5193431 17.7784287,27.8257922 17.7784287,34.3716289 C17.7784287,40.9174656 23.0848779,46.2239147 29.6307146,46.2239147 Z" id="Oval-117" fill="#294A83" mask="url(#mask-4)"></path>
                    <path d="M19.7784287,36.5193431 C21.435283,36.5193431 22.7784287,35.1761973 22.7784287,33.5193431 C22.7784287,31.8624888 21.435283,30.5193431 19.7784287,30.5193431 C18.1215745,30.5193431 16.7784287,31.8624888 16.7784287,33.5193431 C16.7784287,35.1761973 18.1215745,36.5193431 19.7784287,36.5193431 Z" id="Oval-117" fill="#FFFFFF" mask="url(#mask-4)"></path>
                    <rect id="Rectangle-175" fill="#4A90E2" mask="url(#mask-4)" x="-4.74091433" y="-5.92614292" width="68.7432578" height="39.1125432"></rect>
                    <path d="M59.0528672,32.9870303 L52.5938238,32.9870303 C52.5938238,32.9870303 58.5413947,12.746858 31.8234973,0.0620445465 C5.10559987,-12.622769 59.1264856,8.01424191 59.1264856,8.01424191 L62.3054014,27.2637198 L59.0528672,32.9870303 Z" id="Path-471" fill="#4087DB" mask="url(#mask-4)"></path>
                </g>
                <g id="Group-7" transform="translate(60.000000, 125.000000)">
                    <path d="M20,0 L45,0 L45,55.643654 C45,59.5119351 41.8590466,62.6477965 38.0028631,62.6477965 L26.9971369,62.6477965 C23.1327249,62.6477965 20,59.5196486 20,55.643654 L20,0 Z" id="Rectangle-166" fill="#294A83"></path>
                    <g id="Group-9" transform="translate(27.000000, 47.000000)">
                        <mask id="mask-6" fill="white">
                            <use xlink:href="#path-5"></use>
                        </mask>
                        <use id="Rectangle-166" fill="#4087DB" xlink:href="#path-5"></use>
                        <rect id="Rectangle-166" fill="#4A90E2" mask="url(#mask-6)" x="-2" y="0" width="12.6988777" height="31.3238983"></rect>
                    </g>
                    <g id="Group-6" transform="translate(0.000000, 8.000000)">
                        <g id="Group-3" transform="translate(45.000000, 0.000000)">
                            <rect id="Rectangle-166" fill="#294A83" x="0" y="0" width="7.61932661" height="9.3125103"></rect>
                            <path d="M7.61932661,0 L13.9687654,0 C17.4754637,0 20.3182043,2.83578002 20.3182043,6.35239019 L20.3182043,17.3521815 C20.3182043,20.8605097 17.4683283,23.7045717 13.9687654,23.7045717 L7.61932661,23.7045717 L7.61932661,0 Z" id="Rectangle-164" fill="#4A90E2"></path>
                        </g>
                        <g id="Group-3" transform="translate(10.500000, 12.000000) scale(-1, 1) translate(-10.500000, -12.000000) ">
                            <rect id="Rectangle-166" fill="#294A83" x="0" y="0" width="7.61932661" height="9.3125103"></rect>
                            <path d="M7.61932661,0 L13.9687654,0 C17.4754637,0 20.3182043,2.83578002 20.3182043,6.35239019 L20.3182043,17.3521815 C20.3182043,20.8605097 17.4683283,23.7045717 13.9687654,23.7045717 L7.61932661,23.7045717 L7.61932661,0 Z" id="Rectangle-164" fill="#4A90E2"></path>
                        </g>
                    </g>
                </g>
                <polygon id="Rectangle-187" fill="#000000" opacity="0.0803404851" points="173 66 174.674818 66 177.674818 103.338562 175.785927 103.338562"></polygon>
                <polygon id="Rectangle-187" fill="#000000" opacity="0.0803404851" transform="translate(8.337409, 84.669281) scale(-1, 1) translate(-8.337409, -84.669281) " points="6 66 7.67481809 66 10.6748181 103.338562 8.78592735 103.338562"></polygon>
                <ellipse id="Oval-118" fill="#4A90E2" opacity="0.137418377" cx="92.0540105" cy="205.079551" rx="30.0540105" ry="5.07955107"></ellipse>
                <rect id="Rectangle-190" fill="#000000" opacity="0.08" x="105" y="133" width="1" height="9"></rect>
                <rect id="Rectangle-190" fill="#000000" opacity="0.08" x="79" y="133" width="1" height="9"></rect>
                <rect id="Rectangle-189" fill="#000000" opacity="0.08" x="80" y="125" width="25.3977554" height="3"></rect>
            </g>
        </g>
    </g>
</svg>