<?xml version="1.0" encoding="UTF-8"?>
<svg width="155px" height="32px" viewBox="0 0 155 32" version="1.1" xmlns="http://www.w3.org/2000/svg" xmlns:xlink="http://www.w3.org/1999/xlink">
    <!-- Generator: Sketch 51.3 (57544) - http://www.bohemiancoding.com/sketch -->
    <title>funsize</title>
    <desc>Created with Sketch.</desc>
    <defs></defs>
    <g id="Dribbble" stroke="none" stroke-width="1" fill="none" fill-rule="evenodd">
        <g id="home-2" transform="translate(-882.000000, -744.000000)" fill="#000000">
            <g id="Group-4" transform="translate(850.000000, 685.000000)">
                <g id="funsize" transform="translate(32.000000, 59.000000)">
                    <g id="LOGO-BLACK-Copy">
                        <path d="M24.7387564,10.7788969 L5.12734009,10.7788969 C4.78935285,10.7788969 4.51549208,11.0547656 4.51549208,11.3951435 L4.51549208,13.997103 C4.51549208,14.3374809 4.78935285,14.613437 5.12734009,14.613437 L6.2233906,14.613437 C6.56111751,14.613437 6.8352386,14.3374809 6.8352386,13.997103 L6.8352386,13.731811 C6.8352386,13.391433 7.10909938,13.1155643 7.44699983,13.1155643 L14.0153196,13.1155643 C14.3530465,13.1155643 14.6270809,13.391433 14.6270809,13.731811 L14.6270809,20.0486451 C14.6270809,20.389023 14.3530465,20.6649791 14.0153196,20.6649791 L12.562365,20.6649791 C12.2243778,20.6649791 11.950517,20.9409352 11.950517,21.2813132 L11.950517,22.3853999 C11.950517,22.7257778 12.2243778,23.001734 12.562365,23.001734 L19.01163,23.001734 C19.3493569,23.001734 19.623478,22.7257778 19.623478,22.3853999 L19.623478,21.2813132 C19.623478,20.9409352 19.3493569,20.6649791 19.01163,20.6649791 L17.5586754,20.6649791 C17.2206882,20.6649791 16.9468274,20.389023 16.9468274,20.0486451 L16.9468274,13.731811 C16.9468274,13.391433 17.2206882,13.1155643 17.5586754,13.1155643 L24.1269084,13.1155643 C24.4647221,13.1155643 24.7387564,13.391433 24.7387564,13.731811 L24.7387564,13.997103 C24.7387564,14.3374809 25.0126172,14.613437 25.3506044,14.613437 L26.4465682,14.613437 C26.7845554,14.613437 27.0584162,14.3374809 27.0584162,13.997103 L27.0584162,11.3951435 C27.0584162,11.0547656 26.7845554,10.7788969 26.4465682,10.7788969 L24.7387564,10.7788969" id="Fill-13"></path>
                        <path d="M3.34655087,29.6214467 L28.1429257,29.6214467 C28.8137804,29.6214467 29.3575971,29.0736428 29.3575971,28.3978693 L29.3575971,3.41968814 C29.3575971,2.74391469 28.8137804,2.19611075 28.1429257,2.19611075 L3.34655087,2.19611075 C2.67560933,2.19611075 2.13187942,2.74391469 2.13187942,3.41968814 L2.13187942,28.3978693 C2.13187942,29.0736428 2.67560933,29.6214467 3.34655087,29.6214467 M30.2747183,31.7688696 L1.21467145,31.7688696 C0.54390346,31.7688696 0,31.2210657 0,30.5452922 L0,1.27226524 C0,0.596491792 0.54390346,0.0486878558 1.21467145,0.0486878558 L30.2747183,0.0486878558 C30.9454863,0.0486878558 31.4893898,0.596491792 31.4893898,1.27226524 L31.4893898,30.5452922 C31.4893898,31.2210657 30.9454863,31.7688696 30.2747183,31.7688696" id="Fill-15"></path>
                    </g>
                    <g id="Group" transform="translate(42.617085, 13.728056)">
                        <polyline id="Fill-17" points="4.00363205 8.2879926 1.9371192 8.2879926 1.9371192 2.12739734 0.228847801 2.12739734 0.228847801 0.387794339 5.71190345 0.387794339 5.71190345 2.12739734 4.00363205 2.12739734 4.00363205 8.2879926"></polyline>
                        <path d="M14.5671089,2.82912043 L14.546461,2.82912043 L13.6919811,5.34397014 L15.4105765,5.34397014 L14.5671089,2.82912043 L14.5671089,2.82912043 Z M13.1227867,6.91566572 L12.5745844,8.2879926 L10.381431,8.2879926 L13.4390441,0.387794339 L15.6951737,0.387794339 L18.6898106,8.2879926 L16.4863332,8.2879926 L15.9694469,6.91566572 L13.1227867,6.91566572 L13.1227867,6.91566572 Z" id="Fill-18"></path>
                        <path d="M26.6698883,6.71663899 L26.9334934,6.71663899 C27.545016,6.71663899 28.5781004,6.74775829 28.5781004,5.87812778 C28.5781004,4.92471453 27.55534,5.01909834 26.8804971,5.01909834 L26.6698883,5.01909834 L26.6698883,6.71663899 L26.6698883,6.71663899 Z M26.6698883,3.48912314 L26.9018333,3.48912314 C27.4500356,3.48912314 28.0195741,3.39508131 28.0195741,2.72447752 C28.0195741,2.00155227 27.3763913,1.95948992 26.8175209,1.95948992 L26.6698883,1.95948992 L26.6698883,3.48912314 L26.6698883,3.48912314 Z M24.6030313,8.2879926 L24.6030313,0.387794339 L27.55534,0.387794339 C28.9683461,0.387794339 29.9174623,0.932895025 29.9174623,2.44166806 C29.9174623,3.15399223 29.6855173,3.73021222 29.0423345,4.05474205 L29.0423345,4.07594421 C30.1807233,4.22264947 30.6659494,4.98763707 30.6659494,6.08775558 C30.6659494,7.74323389 29.2426194,8.2879926 27.787285,8.2879926 L24.6030313,8.2879926 L24.6030313,8.2879926 Z" id="Fill-19"></path>
                        <polyline id="Fill-20" points="39.0782569 6.54873157 41.5560076 6.54873157 41.5560076 8.2879926 37.0114 8.2879926 37.0114 0.387794339 39.0782569 0.387794339 39.0782569 6.54873157"></polyline>
                        <polyline id="Fill-21" points="49.5574214 2.12739734 49.5574214 3.44740277 51.8871953 3.44740277 51.8871953 5.1866638 49.5574214 5.1866638 49.5574214 6.54873157 52.01418 6.54873157 52.01418 8.2879926 47.4905644 8.2879926 47.4905644 0.387794339 52.01418 0.387794339 52.01418 2.12739734 49.5574214 2.12739734"></polyline>
                        <polyline id="Fill-22" points="71.4548867 3.43680169 71.4548867 0.387794339 73.5213995 0.387794339 73.5213995 8.2879926 71.4548867 8.2879926 71.4548867 5.05055961 68.4705737 5.05055961 68.4705737 8.2879926 66.4040609 8.2879926 66.4040609 0.387794339 68.4705737 0.387794339 68.4705737 3.43680169 71.4548867 3.43680169"></polyline>
                        <polyline id="Fill-23" points="82.2076361 2.12739734 82.2076361 3.44740277 84.53741 3.44740277 84.53741 5.1866638 82.2076361 5.1866638 82.2076361 6.54873157 84.6640506 6.54873157 84.6640506 8.2879926 80.1407792 8.2879926 80.1407792 0.387794339 84.6640506 0.387794339 84.6640506 2.12739734 82.2076361 2.12739734"></polyline>
                        <path d="M93.2769871,3.92923894 L93.4772719,3.92923894 C94.1521148,3.92923894 94.9112701,3.80373584 94.9112701,2.94436443 C94.9112701,2.08533499 94.1521148,1.95948992 93.4772719,1.95948992 L93.2769871,1.95948992 L93.2769871,3.92923894 L93.2769871,3.92923894 Z M97.8212505,8.2879926 L95.2485195,8.2879926 L93.297635,5.24958634 L93.2769871,5.24958634 L93.2769871,8.2879926 L91.2101301,8.2879926 L91.2101301,0.387794339 L94.2994033,0.387794339 C95.8707102,0.387794339 97.0620953,1.13192175 97.0620953,2.81851935 C97.0620953,3.90837875 96.4502285,4.85153289 95.3221637,5.05055961 L97.8212505,8.2879926 L97.8212505,8.2879926 Z" id="Fill-24"></path>
                        <path d="M105.40007,4.20178928 C105.40007,5.56385706 106.412507,6.55933265 107.64622,6.55933265 C108.879933,6.55933265 109.892026,5.56385706 109.892026,4.20178928 C109.892026,3.11227185 108.879933,2.11645429 107.64622,2.11645429 C106.412507,2.11645429 105.40007,3.11227185 105.40007,4.20178928 L105.40007,4.20178928 Z M112.042851,4.1911882 C112.042851,6.74775829 110.197959,8.54994186 107.64622,8.54994186 C105.094481,8.54994186 103.249245,6.74775829 103.249245,4.1911882 C103.249245,1.80252554 105.358086,0.125845077 107.64622,0.125845077 C109.934354,0.125845077 112.042851,1.80252554 112.042851,4.1911882 L112.042851,4.1911882 Z" id="Fill-25"></path>
                    </g>
                </g>
            </g>
        </g>
    </g>
</svg>