<?xml version="1.0" encoding="UTF-8"?>
<svg width="90px" height="32px" viewBox="0 0 90 32" version="1.1" xmlns="http://www.w3.org/2000/svg" xmlns:xlink="http://www.w3.org/1999/xlink">
    <!-- Generator: Sketch 51.3 (57544) - http://www.bohemiancoding.com/sketch -->
    <title>Zynga_2012 (1)</title>
    <desc>Created with Sketch.</desc>
    <defs></defs>
    <g id="Dribbble" stroke="none" stroke-width="1" fill="none" fill-rule="evenodd">
        <g id="home-2" transform="translate(-195.000000, -744.000000)">
            <g id="Group-8" transform="translate(130.000000, 685.000000)">
                <g id="Zynga_2012-(1)" transform="translate(65.000000, 59.000000)">
                    <polygon id="path26493" fill="#E31836" points="0.0448179272 31.8269714 0.0448179272 0.0448179272 89.5910364 0.0448179272 89.5910364 31.8269714"></polygon>
                    <g id="g26404" transform="translate(53.315068, 16.925652) scale(-1, 1) rotate(90.000000) translate(-53.315068, -16.925652) translate(44.179534, -10.480949)" fill="#FFFFFF" fill-rule="nonzero">
                        <path d="M4.56776695,47.9615529 C4.56776695,48.6672729 4.86238791,49.4780516 5.29404189,49.9690865 L9.80014398,49.9690865 C10.3985215,49.450645 10.857582,48.6101758 10.857582,47.6326737 C10.857582,46.7099848 9.96001583,45.8992062 7.87254633,45.8992062 C5.89698713,45.8992062 4.56776695,46.4427704 4.56776695,47.9615529 Z M13.0569618,52.7074628 L2.45289085,52.7074628 L2.45289085,50.156365 L3.18601745,50.076429 C2.6675759,49.5077421 2.23592192,48.5005494 2.23592192,47.470518 C2.23592192,44.5722699 4.51523763,43.0237969 7.87254633,43.0237969 C10.9101114,43.0237969 13.2716469,44.5448633 13.2716469,47.2284263 C13.2716469,48.2561739 12.7851797,49.3158958 11.9675494,49.9690865 L13.0569618,50.1289584 L13.0569618,52.7074628 Z M4.56776695,37.2524233 C4.56776695,37.9558594 4.86238791,38.7712058 5.29404189,39.2553891 L9.36849001,39.2553891 C9.96001583,38.7415154 10.4236442,37.9010462 10.4236442,36.925828 C10.4236442,36.0031391 9.77273738,35.1900766 7.68526789,35.1900766 C5.70514092,35.1900766 4.56776695,35.7313569 4.56776695,37.2524233 Z M16.3183474,33.6461713 C16.5581552,34.4318272 16.7728402,35.5646334 16.7728402,37.3323593 C16.7728402,40.5023895 15.0599276,41.9960493 11.5358954,41.9960493 L2.45289085,41.9960493 L2.45289085,39.4449515 L3.18601745,39.3672994 C2.6675759,38.7940447 2.23592192,37.7914198 2.23592192,36.7613884 C2.23592192,33.8608564 4.32339142,32.3146673 7.68526789,32.3146673 C10.7228329,32.3146673 12.837709,33.8334498 12.837709,36.5192967 C12.837709,37.5470443 12.3466741,38.6067662 11.5358954,39.2553891 L12.1593956,39.2553891 C13.4886158,39.2553891 14.4661179,38.5245464 14.4661179,36.925828 C14.4661179,35.5669173 14.2217424,34.7812614 13.975083,34.1326385 L16.3183474,33.6461713 Z M13.0569618,31.2960552 L5.6526116,31.2960552 C3.42582521,31.2960552 2.23592192,29.8320859 2.23592192,28.0712118 C2.23592192,26.4428029 2.99417123,25.4150553 3.94426676,24.6545221 L2.45289085,24.4923664 L2.45289085,21.9161458 L13.0569618,21.9161458 L13.0569618,24.6545221 L6.1916081,24.6545221 C5.16157665,25.4653007 4.75504539,26.3628669 4.75504539,27.1782133 C4.75504539,27.9912758 5.16157665,28.5599628 6.49079683,28.5599628 L13.0569618,28.5599628 L13.0569618,31.2960552 Z M16.6609299,15.5395432 L2.45289085,21.2058581 L2.45289085,18.4674818 L9.36849001,15.8912612 L2.45289085,13.4749125 L2.45289085,10.5218512 L12.5385203,14.3998853 L16.6609299,12.5567913 L16.6609299,15.5395432 Z M13.0569618,10.2546368 L10.7502395,10.7228329 L10.7502395,4.90806558 L2.45289085,10.0102613 L2.45289085,0.988921544 L4.78245199,0.513873782 L4.78245199,5.53613354 L13.0569618,0.166723494 L13.0569618,10.2546368 Z" id="path26406"></path>
                    </g>
                    <g id="g26408" transform="translate(81.117936, 19.965963) scale(-1, 1) rotate(90.000000) translate(-81.117936, -19.965963) translate(80.160271, 18.529466)" fill="#FFFFFF" fill-rule="nonzero">
                        <path d="M0.957665076,0.957665076 L0.957665076,1.1214258 C0.957665076,1.26028724 0.950003755,1.38669903 0.791031352,1.38669903 C0.658873572,1.38669903 0.63588961,1.27177922 0.63588961,1.1654784 L0.63588961,0.957665076 L0.957665076,0.957665076 Z M0.508520155,0.799650338 L0.508520155,1.19037769 C0.508520155,1.43170929 0.604286663,1.5437561 0.798692673,1.5437561 C0.979691372,1.5437561 1.05726224,1.42883629 1.07354255,1.27848288 L1.51885681,1.56769773 L1.51885681,1.39914868 L1.08503453,1.12334113 L1.08503453,0.957665076 L1.51885681,0.957665076 L1.51885681,0.799650338 L0.508520155,0.799650338 Z M1.75252709,1.13770611 C1.75252709,1.53801011 1.43458228,1.84637827 1.01225198,1.84637827 C0.598540672,1.84637827 0.278680537,1.53801011 0.278680537,1.13770611 C0.278680537,0.734529113 0.598540672,0.424245629 1.01225198,0.424245629 C1.43458228,0.424245629 1.75252709,0.734529113 1.75252709,1.13770611 Z M0.151311082,1.13770611 C0.151311082,1.60983499 0.523842796,2.004393 1.01225198,2.004393 C1.50736483,2.004393 1.87989654,1.60983499 1.87989654,1.13770611 C1.87989654,0.663661897 1.50736483,0.266230891 1.01225198,0.266230891 C0.523842796,0.266230891 0.151311082,0.663661897 0.151311082,1.13770611 Z" id="path26410"></path>
                    </g>
                    <g id="g26412" transform="translate(15.591916, 15.529754) scale(-1, 1) rotate(-180.000000) translate(-15.591916, -15.529754) translate(8.346882, 6.473461)" fill="#FFFFFF" fill-rule="nonzero">
                        <path d="M12.3165579,17.3880817 C12.567236,17.6938221 12.9461513,17.9713069 13.4540282,17.5134208 C13.9619051,17.0540856 14.4009542,16.6556088 14.261125,16.5201266 C14.163317,16.4259412 13.9481395,16.5491068 13.8054124,16.6259041 C13.6213885,16.5360657 13.5366216,16.4085531 13.4822838,16.1962736 C13.4286706,15.9818206 13.3634653,15.7354894 13.2533408,15.7028868 C13.3779554,15.0972019 13.3156481,13.9597316 13.1135116,13.6047249 L13.1106136,12.9635394 C13.6605117,11.9716942 14.0329064,9.27581708 13.304056,8.03401825 C13.304056,8.03401825 13.2931885,6.43503923 12.985999,5.73154643 C12.985999,5.73154643 12.6360639,4.21226279 12.7382188,3.40371699 C12.9055791,3.33271566 13.3214441,3.0863845 13.3931699,2.94800435 C13.4670693,2.81107321 13.5011209,2.5973447 13.4822838,2.53865993 C13.2859434,2.18655127 12.239036,2.17640823 11.7601393,2.5328639 C11.6529127,2.86396196 11.8296916,4.16444557 11.7789763,4.9374907 C11.7304346,5.71198484 11.6543618,6.01410276 11.5014915,7.04724461 C10.8508875,6.89147638 10.116241,6.85235319 9.36348199,6.92842605 C9.16134554,6.04742991 8.80561437,4.77665094 8.75779715,4.01664687 C8.72374549,3.45515673 8.67592826,1.81270752 8.67592826,1.81270752 C8.68824482,1.64462273 8.7903998,1.52073264 8.80706338,1.41060813 C8.82734947,1.26788096 8.85705411,1.03748887 8.81720643,0.92374184 C8.54261964,0.405721906 7.35370955,0.468029199 7.16026714,0.908527269 C7.15012409,1.02299881 7.18852277,1.31569818 7.25083007,1.40118958 C7.31603537,1.51421211 7.58337713,1.70040949 7.6413374,1.83806514 C7.70799171,2.38144269 7.77681954,4.41367474 7.62829634,4.87300989 C7.40514929,5.29756889 7.24938106,6.44735579 7.20518635,7.4710791 C7.08636779,7.52106984 6.46401937,7.86231094 5.88079413,8.23253218 C5.68010669,7.55077448 5.24395564,7.20228834 5.24395564,7.20228834 L5.44536758,6.26115842 C5.59389078,6.24449484 6.00830673,6.06916501 6.08437959,5.9387544 C6.16262595,5.80544578 6.16987099,5.67720867 6.15538092,5.58664575 C6.02641931,5.36132519 5.12513708,5.39102983 4.9585013,5.61127886 L4.33180585,7.51599831 C4.33180585,7.51599831 4.56654495,8.14776528 4.46294097,8.9823932 C2.53576191,8.77735874 1.95688369,6.30462862 1.73735916,5.13383112 L1.77575784,4.96284832 L1.77575784,4.67522047 C1.59318299,4.37382705 0.691900751,4.41439924 0.48107026,4.66797543 C0.48107026,4.75564034 0.512223907,4.91430659 0.581776233,5.01501256 C0.64915505,5.11571854 0.970834561,5.35045764 1.04980543,5.40407089 L1.47726244,7.09361283 C1.54681477,8.98384221 2.03078304,10.7769881 2.8088997,11.7434757 C1.74315519,13.0707659 1.84820818,14.5480284 2.70819372,15.321798 C2.79875665,15.4022179 2.95017786,15.4971278 3.00379111,15.4645252 C3.06754741,15.426851 3.04653681,15.3630947 2.94872885,15.218194 C2.35028904,14.3212588 2.45389303,13.1084401 3.57325079,12.446244 C4.86648936,13.2381262 8.58898785,13.416354 8.58898785,13.416354 L8.69693886,13.7684627 C8.62159051,13.9024958 8.49625142,14.5523754 8.53247659,14.888545 C8.47886334,14.9131781 8.36873882,15.0501092 8.22528714,15.1739993 C8.07531494,15.3036854 7.89346459,15.3029609 7.83622882,15.3956973 C7.42036386,14.8689834 7.53193739,15.5340775 7.58772415,15.7847557 C7.69495065,16.2665504 7.76450298,16.9533797 8.51726202,17.0178605 C8.68534681,17.033075 9.0461495,17.0142379 9.18670316,16.8418061 C9.31783828,17.0410446 10.3864808,17.2670896 10.5944133,17.2395585 C10.8291524,17.4337254 12.2230969,17.4815426 12.3165579,17.3880817" id="path26414"></path>
                    </g>
                </g>
            </g>
        </g>
    </g>
</svg>